<svg xmlns="http://www.w3.org/2000/svg" viewBox="0 0 168.65704 70.16867"><defs><style>.cls-1{fill:#fdfeff;}.cls-2{fill:none;stroke:#fdfeff;stroke-miterlimit:10;stroke-width:0.5px;}.cls-3{fill:#fff;}</style></defs><g id="Layer_2" data-name="Layer 2"><g id="Layer_3" data-name="Layer 3"><path class="cls-1" d="M162.45283,53.34a6.20318,6.20318,0,0,0-2.99559,11.63569l1.46282,2.54084,1.53277,2.65212,1.53277-2.65212,1.466-2.54084A6.20428,6.20428,0,0,0,162.45283,53.34Zm0,9.53687a3.33425,3.33425,0,1,1,3.33583-3.33265A3.33182,3.33182,0,0,1,162.45283,62.87689Z"/><polyline class="cls-2" points="158.015 55.213 136.695 33.893 0 33.893"/><path class="cls-3" d="M.65809,26.41016V21.50977H2.954a2.21681,2.21681,0,0,1,1.34375.34668,1.10114,1.10114,0,0,1,.46191.92773,1.19168,1.19168,0,0,1-.18164.669,1.22424,1.22424,0,0,1-.48681.42675,1.46687,1.46687,0,0,1-.66114.15039l.126-.252a1.75991,1.75991,0,0,1,.7417.15039,1.23087,1.23087,0,0,1,.52148.4375,1.25411,1.25411,0,0,1,.19287.71387,1.14155,1.14155,0,0,1-.48339.98047,2.43612,2.43612,0,0,1-1.43457.34961Zm.90967-.71387H3.038a1.50154,1.50154,0,0,0,.78369-.168.66423.66423,0,0,0,0-1.07422,1.47982,1.47982,0,0,0-.78369-.17187h-1.54v-.707H2.85584a1.328,1.328,0,0,0,.73145-.168.6316.6316,0,0,0,0-1.01465,1.32788,1.32788,0,0,0-.73145-.168H1.56776Z"/><path class="cls-3" d="M5.29188,26.41016,7.497,21.50977h.896l2.21192,4.90039H9.65321l-1.897-4.417H8.12l-1.89013,4.417ZM6.307,25.27637l.24511-.71387h2.646l.24512.71387Z"/><path class="cls-3" d="M11.22791,26.41016V21.50977h.749l3.07275,3.77343H14.6786V21.50977h.90332v4.90039h-.749l-3.07325-3.77344h.3711v3.77344Z"/><path class="cls-3" d="M17.66053,26.48047a2.03165,2.03165,0,0,1-.86426-.18262,1.63712,1.63712,0,0,1-.64746-.52441l.51758-.623a1.48078,1.48078,0,0,0,.44483.41992,1.03981,1.03981,0,0,0,.52832.13965q.76317,0,.76318-.90234V22.27344H16.65956v-.76367h2.65332v3.248a1.7688,1.7688,0,0,1-.42383,1.29492A1.65386,1.65386,0,0,1,17.66053,26.48047Z"/><path class="cls-3" d="M19.78846,26.41016l2.20508-4.90039h.896l2.21191,4.90039h-.95166l-1.897-4.417h.36377l-1.89014,4.417Zm1.01514-1.13379.24512-.71387h2.646l.24512.71387Z"/><path class="cls-3" d="M25.725,26.41016V21.50977h2.01562a2.70815,2.70815,0,0,1,1.1167.21,1.62227,1.62227,0,0,1,.71728.60254,1.684,1.684,0,0,1,.252.93066,1.66723,1.66723,0,0,1-.252.92773,1.607,1.607,0,0,1-.71728.59473,2.74162,2.74162,0,0,1-1.1167.207H26.22889l.40576-.41308v1.84082Zm.90966-1.74317-.40576-.43359h1.46973a1.37385,1.37385,0,0,0,.90674-.25879.89574.89574,0,0,0,.3042-.72168.88187.88187,0,0,0-.3042-.7207,1.39644,1.39644,0,0,0-.90674-.252H26.22889l.40576-.44824Zm2.2959,1.74317-1.23877-1.77832h.97315L29.911,26.41016Z"/><path class="cls-3" d="M30.84168,26.41016V21.50977h.749l2.1416,3.57714h-.3916l2.10693-3.57714h.749l.00684,4.90039h-.86084l-.00732-3.54883h.18213l-1.792,2.98926h-.40576L31.4994,22.86133h.21v3.54883Z"/><path class="cls-3" d="M36.83338,26.41016l2.20508-4.90039h.896l2.21191,4.90039h-.95166l-1.897-4.417h.36377l-1.89014,4.417Zm1.01514-1.13379.24512-.71387h2.646l.24512.71387Z"/><path class="cls-3" d="M44.288,26.48047a3.6634,3.6634,0,0,1-1.09863-.165,2.40424,2.40424,0,0,1-.833-.42285l.31494-.707a2.55747,2.55747,0,0,0,.728.38476,2.64073,2.64073,0,0,0,.88867.1543,1.92068,1.92068,0,0,0,.623-.084.74943.74943,0,0,0,.3501-.22754.51564.51564,0,0,0,.1123-.32618.44854.44854,0,0,0-.16113-.36035,1.19249,1.19249,0,0,0-.4165-.21679q-.25561-.08058-.5669-.15039-.312-.07032-.623-.165a2.54757,2.54757,0,0,1-.56689-.24512,1.21605,1.21605,0,0,1-.4165-.40234,1.17321,1.17321,0,0,1-.16114-.64356,1.32277,1.32277,0,0,1,.21338-.73144,1.469,1.469,0,0,1,.65088-.53223,2.68535,2.68535,0,0,1,1.10986-.19922,3.50985,3.50985,0,0,1,.875.11133,2.55865,2.55865,0,0,1,.75586.32226l-.28711.707a2.66952,2.66952,0,0,0-.67919-.29,2.55543,2.55543,0,0,0-.67188-.09473,1.72294,1.72294,0,0,0-.6123.09082.74234.74234,0,0,0-.34327.23828.55065.55065,0,0,0-.10839.33594.45325.45325,0,0,0,.15771.36035,1.12119,1.12119,0,0,0,.41309.21387c.16992.05078.36035.10156.57031.15039s.41894.10351.62646.16406a2.60225,2.60225,0,0,1,.5669.23828,1.16136,1.16136,0,0,1,.41308.39844,1.18478,1.18478,0,0,1,.15772.63769,1.315,1.315,0,0,1-.21387.72461,1.46422,1.46422,0,0,1-.6543.53125A2.69337,2.69337,0,0,1,44.288,26.48047Z"/><path class="cls-3" d="M47.17274,26.41016V21.50977h.90967v4.90039Z"/><path class="cls-3" d="M49.40565,26.41016V21.50977h.749l3.07276,3.77343h-.3711V21.50977h.90332v4.90039h-.749l-3.07324-3.77344h.37109v3.77344Z"/><path class="cls-3" d="M56.349,24.751v-.57422h3.5V24.751Z"/><path class="cls-3" d="M63.9579,26.48047a3.66342,3.66342,0,0,1-1.09864-.165,2.40424,2.40424,0,0,1-.833-.42285l.315-.707a2.55741,2.55741,0,0,0,.728.38476,2.64078,2.64078,0,0,0,.88868.1543,1.92066,1.92066,0,0,0,.623-.084.74943.74943,0,0,0,.3501-.22754.51558.51558,0,0,0,.1123-.32618.44854.44854,0,0,0-.16113-.36035,1.19249,1.19249,0,0,0-.4165-.21679q-.25562-.08058-.5669-.15039-.312-.07032-.623-.165a2.54745,2.54745,0,0,1-.5669-.24512,1.21605,1.21605,0,0,1-.4165-.40234,1.1733,1.1733,0,0,1-.16113-.64356,1.32285,1.32285,0,0,1,.21337-.73144,1.469,1.469,0,0,1,.65088-.53223,2.6854,2.6854,0,0,1,1.10987-.19922,3.50991,3.50991,0,0,1,.875.11133,2.55887,2.55887,0,0,1,.75586.32226l-.28711.707a2.66959,2.66959,0,0,0-.6792-.29,2.55538,2.55538,0,0,0-.67188-.09473,1.72294,1.72294,0,0,0-.6123.09082.74225.74225,0,0,0-.34326.23828.55059.55059,0,0,0-.1084.33594.45325.45325,0,0,0,.15771.36035,1.12119,1.12119,0,0,0,.41309.21387c.16992.05078.36035.10156.57031.15039s.419.10351.62647.16406a2.60237,2.60237,0,0,1,.56689.23828,1.16139,1.16139,0,0,1,.41309.39844,1.18478,1.18478,0,0,1,.15771.63769,1.315,1.315,0,0,1-.21387.72461,1.46425,1.46425,0,0,1-.65429.53125A2.69344,2.69344,0,0,1,63.9579,26.48047Z"/><path class="cls-3" d="M69.13807,26.48047a2.87818,2.87818,0,0,1-1.05713-.18945,2.55091,2.55091,0,0,1-.83984-.52832,2.38132,2.38132,0,0,1-.55322-.79786,2.67389,2.67389,0,0,1,0-2.00879,2.38519,2.38519,0,0,1,.55322-.79882,2.56664,2.56664,0,0,1,.83984-.52832,3.02876,3.02876,0,0,1,2.10352,0,2.57175,2.57175,0,0,1,.83642.52832,2.38522,2.38522,0,0,1,.55323.79882,2.53035,2.53035,0,0,1,.1958,1.00391,2.55638,2.55638,0,0,1-.1958,1.00781,2.33744,2.33744,0,0,1-.55323.79883,2.59529,2.59529,0,0,1-.83642.52442A2.83012,2.83012,0,0,1,69.13807,26.48047Zm-.00732-.79785a1.82976,1.82976,0,0,0,.686-.126,1.58906,1.58906,0,0,0,.54639-.36133,1.69868,1.69868,0,0,0,.36035-.5459,1.90155,1.90155,0,0,0,0-1.3789,1.70939,1.70939,0,0,0-.36035-.5459,1.58661,1.58661,0,0,0-.54639-.36035,1.82976,1.82976,0,0,0-.686-.126,1.80225,1.80225,0,0,0-.68213.126,1.62907,1.62907,0,0,0-.54639.36035,1.67907,1.67907,0,0,0-.36377.5459,1.89374,1.89374,0,0,0,0,1.376,1.69048,1.69048,0,0,0,.36035.54883,1.58445,1.58445,0,0,0,.54639.36133A1.82907,1.82907,0,0,0,69.13075,25.68262Z"/><path class="cls-3" d="M74.84315,26.48047a2.14114,2.14114,0,0,1-1.57861-.56738,2.20871,2.20871,0,0,1-.57032-1.6377V21.50977h.90967v2.73046a1.55606,1.55606,0,0,0,.32568,1.09864,1.39954,1.39954,0,0,0,1.83741,0,1.568,1.568,0,0,0,.32226-1.09864V21.50977h.896v2.76562a2.20894,2.20894,0,0,1-.5708,1.6377A2.13178,2.13178,0,0,1,74.84315,26.48047Z"/><path class="cls-3" d="M79.162,26.41016V22.28027H77.538v-.7705h4.15821v.7705h-1.624v4.12989Z"/><path class="cls-3" d="M83.29188,26.41016h-.90967V21.50977h.90967Zm2.604-2.09961H83.21522V23.5332h2.68066Zm-.06982-2.80078h.91016v4.90039h-.91016Z"/><path class="cls-3" d="M89.98426,26.41016V21.50977h.90967v4.90039Zm.812-1.15528L90.747,24.17676l2.56933-2.667h1.022L92.203,23.77832l-.5039.55273Zm2.604,1.15528-1.876-2.2334.60156-.665,2.33838,2.89844Z"/><path class="cls-3" d="M94.18348,26.41016l2.20508-4.90039h.896l2.21191,4.90039h-.95166l-1.897-4.417h.36377l-1.89014,4.417Zm1.01514-1.13379.24512-.71387h2.646l.24512.71387Z"/><path class="cls-3" d="M100.12,26.41016V21.50977h.90967v4.13086h2.562v.76953Z"/><path class="cls-3" d="M104.31288,26.41016V21.50977h.90966v4.90039Z"/><path class="cls-3" d="M106.54579,26.41016V21.50977h.749l2.1416,3.57714h-.3916l2.10693-3.57714h.749l.00683,4.90039h-.86084l-.00732-3.54883h.18213l-1.792,2.98926h-.40576l-1.82031-2.98926h.21v3.54883Z"/><path class="cls-3" d="M112.53749,26.41016l2.20507-4.90039h.896l2.21191,4.90039h-.95166l-1.897-4.417h.36377l-1.89014,4.417Zm1.01513-1.13379.24512-.71387h2.646l.24511.71387Z"/><path class="cls-3" d="M118.47352,26.41016V21.50977h.749l3.07276,3.77343h-.3711V21.50977h.90332v4.90039h-.749l-3.07324-3.77344h.37109v3.77344Z"/><path class="cls-3" d="M125.13709,26.41016V22.28027h-1.624v-.7705h4.1582v.7705h-1.624v4.12989Z"/><path class="cls-3" d="M127.41932,26.41016l2.20508-4.90039h.896l2.21191,4.90039h-.95166l-1.897-4.417h.36377l-1.89014,4.417Zm1.01514-1.13379.24511-.71387h2.646l.24512.71387Z"/><path class="cls-3" d="M133.35536,26.41016V21.50977h.749l3.07275,3.77343H136.806V21.50977h.90332v4.90039h-.749l-3.07325-3.77344h.3711v3.77344Z"/><path class="cls-3" d="M.86073,7.87012v-7H4.04041a4.43765,4.43765,0,0,1,2.01026.43457A3.31851,3.31851,0,0,1,7.41053,2.52051a3.40427,3.40427,0,0,1,.49024,1.84961,3.41058,3.41058,0,0,1-.49024,1.84472A3.30925,3.30925,0,0,1,6.05067,7.43555a4.43765,4.43765,0,0,1-2.01026.43457ZM2.48084,6.54h1.48a2.62178,2.62178,0,0,0,1.21485-.26465,1.925,1.925,0,0,0,.7998-.75488,2.24883,2.24883,0,0,0,.28516-1.15039,2.2422,2.2422,0,0,0-.28516-1.15528,1.93225,1.93225,0,0,0-.7998-.75A2.6219,2.6219,0,0,0,3.96082,2.2002h-1.48Z"/><path class="cls-3" d="M9.79041,1.74023a.98881.98881,0,0,1-.70019-.25.812.812,0,0,1-.27-.62011A.81349.81349,0,0,1,9.09022.25.99319.99319,0,0,1,9.79041,0a1.02608,1.02608,0,0,1,.7002.23535.76553.76553,0,0,1,.27.60449.85845.85845,0,0,1-.26514.64551A.97435.97435,0,0,1,9.79041,1.74023ZM9.01063,7.87012V2.49023H10.5702V7.87012Z"/><path class="cls-3" d="M13.83045,7.9502a5.22986,5.22986,0,0,1-1.3247-.165,3.28005,3.28005,0,0,1-1.00489-.415l.52-1.12012a3.45552,3.45552,0,0,0,.875.375,3.59036,3.59036,0,0,0,.99463.14551,1.62478,1.62478,0,0,0,.76514-.13086.39821.39821,0,0,0,.2251-.35938.30634.30634,0,0,0-.1753-.28515,1.52347,1.52347,0,0,0-.46484-.14453q-.29-.05127-.63477-.10059-.345-.0498-.69531-.13477a2.34909,2.34909,0,0,1-.63965-.25488,1.30432,1.30432,0,0,1-.46533-.46,1.43547,1.43547,0,0,1-.1748-.75A1.45148,1.45148,0,0,1,11.92567,3.25a1.956,1.956,0,0,1,.855-.61523,3.60225,3.60225,0,0,1,1.33984-.22461,5.42258,5.42258,0,0,1,1.12012.12011,3.04673,3.04673,0,0,1,.9502.34961l-.52,1.11035a2.64342,2.64342,0,0,0-.78516-.31543,3.63578,3.63578,0,0,0-.76514-.085,1.56148,1.56148,0,0,0-.75976.14063.41077.41077,0,0,0-.24024.35937.32363.32363,0,0,0,.1753.29981,1.57491,1.57491,0,0,0,.46484.16015q.29.06006.63525.10547a5.94661,5.94661,0,0,1,.69483.13477,2.54608,2.54608,0,0,1,.63476.25488,1.33275,1.33275,0,0,1,.46534.4502,1.38221,1.38221,0,0,1,.17968.74511,1.39913,1.39913,0,0,1-.2998.88477,1.96833,1.96833,0,0,1-.86524.60547A3.80281,3.80281,0,0,1,13.83045,7.9502Z"/><path class="cls-3" d="M16.69032,3.81055V2.61035h3.73v1.2002ZM19.53016,7.9502a2.1125,2.1125,0,0,1-1.48-.48536,1.86026,1.86026,0,0,1-.52978-1.44433V1.2998h1.56005V6a.72345.72345,0,0,0,.17969.52539.653.653,0,0,0,.49024.18457.99985.99985,0,0,0,.62988-.20019l.41992,1.10058a1.71576,1.71576,0,0,1-.57471.25488A2.81867,2.81867,0,0,1,19.53016,7.9502Z"/><path class="cls-3" d="M21.68055,7.87012V2.49023H23.1703V4.00977l-.21-.43946a1.7279,1.7279,0,0,1,.77-.86523,2.62029,2.62029,0,0,1,1.29-.29492V3.85059c-.0669-.00684-.127-.01172-.18018-.01563-.05322-.00293-.10986-.00488-.16992-.00488a1.46632,1.46632,0,0,0-1.03516.36523,1.47479,1.47479,0,0,0-.395,1.13477v2.54Z"/><path class="cls-3" d="M26.73036,1.74023a.98884.98884,0,0,1-.7002-.25.812.812,0,0,1-.27-.62011.81349.81349,0,0,1,.27-.62012.99321.99321,0,0,1,.7002-.25,1.026,1.026,0,0,1,.70019.23535.76553.76553,0,0,1,.27.60449.85845.85845,0,0,1-.26514.64551A.97434.97434,0,0,1,26.73036,1.74023Zm-.77979,6.12989V2.49023h1.55957V7.87012Z"/><path class="cls-3" d="M28.96034,7.87012V.4502h1.55957V3.58008L30.4203,5.16992l.02978,1.60059V7.87012ZM32.14,7.9502a2.36156,2.36156,0,0,1-1.21972-.29981,1.91391,1.91391,0,0,1-.78028-.915,3.89264,3.89264,0,0,1-.27-1.55566,3.69542,3.69542,0,0,1,.28516-1.55957A2.00352,2.00352,0,0,1,30.95008,2.71,2.30165,2.30165,0,0,1,32.14,2.41016,2.74028,2.74028,0,0,1,33.50526,2.75a2.50777,2.50777,0,0,1,.96.96,2.91421,2.91421,0,0,1,.355,1.46973,2.8896,2.8896,0,0,1-.355,1.46,2.54357,2.54357,0,0,1-.96.96582A2.7129,2.7129,0,0,1,32.14,7.9502Zm-.27-1.28028a1.29847,1.29847,0,0,0,1.18506-.69433,1.61958,1.61958,0,0,0,.18506-.7959,1.61423,1.61423,0,0,0-.18506-.79981A1.30613,1.30613,0,0,0,31.87,3.69043a1.36608,1.36608,0,0,0-.6997.17969,1.2906,1.2906,0,0,0-.49024.50976,1.65178,1.65178,0,0,0-.18017.79981,1.65727,1.65727,0,0,0,.18017.7959,1.28473,1.28473,0,0,0,.49024.51464A1.36608,1.36608,0,0,0,31.87,6.66992Z"/><path class="cls-3" d="M38.13026,7.9502A2.665,2.665,0,0,1,36.935,7.69043a1.84367,1.84367,0,0,1-.815-.79492,2.84906,2.84906,0,0,1-.29-1.36524v-3.04h1.56V5.2998a1.43683,1.43683,0,0,0,.28516.98536,1.0296,1.0296,0,0,0,.80469.31543A1.29689,1.29689,0,0,0,39.12,6.44531a1.0678,1.0678,0,0,0,.44-.48047,1.839,1.839,0,0,0,.16015-.81445V2.49023h1.56006V7.87012h-1.48V6.38965l.27.43066a1.84465,1.84465,0,0,1-.79541.84473A2.35462,2.35462,0,0,1,38.13026,7.9502Z"/><path class="cls-3" d="M42.09022,3.81055V2.61035h3.73v1.2002ZM44.93006,7.9502a2.1125,2.1125,0,0,1-1.48-.48536,1.86029,1.86029,0,0,1-.52978-1.44433V1.2998h1.56006V6a.72349.72349,0,0,0,.17968.52539.65306.65306,0,0,0,.49024.18457.99985.99985,0,0,0,.62988-.20019l.41992,1.10058a1.71571,1.71571,0,0,1-.5747.25488A2.81881,2.81881,0,0,1,44.93006,7.9502Z"/><path class="cls-3" d="M47.86024,1.74023a.98884.98884,0,0,1-.7002-.25.812.812,0,0,1-.27-.62011A.81352.81352,0,0,1,47.16.25a.99321.99321,0,0,1,.7002-.25,1.026,1.026,0,0,1,.70019.23535.76553.76553,0,0,1,.27.60449.85844.85844,0,0,1-.26513.64551A.97437.97437,0,0,1,47.86024,1.74023Zm-.77979,6.12989V2.49023H48.64V7.87012Z"/><path class="cls-3" d="M52.64979,7.9502a3.1498,3.1498,0,0,1-1.5249-.36036,2.73571,2.73571,0,0,1-1.04981-.98437,2.66151,2.66151,0,0,1-.38525-1.42578,2.65626,2.65626,0,0,1,1.43506-2.415,3.44656,3.44656,0,0,1,3.04492,0A2.62428,2.62428,0,0,1,55.6,5.17969a2.649,2.649,0,0,1-1.43018,2.41015A3.15609,3.15609,0,0,1,52.64979,7.9502Zm0-1.28028a1.36667,1.36667,0,0,0,.7002-.17969,1.288,1.288,0,0,0,.49023-.51464,1.66276,1.66276,0,0,0,.17969-.7959,1.65723,1.65723,0,0,0-.17969-.79981A1.2939,1.2939,0,0,0,53.35,3.87012a1.45313,1.45313,0,0,0-1.39991,0,1.32587,1.32587,0,0,0-.49511.50976,1.61423,1.61423,0,0,0-.18506.79981,1.61958,1.61958,0,0,0,.18506.7959,1.31932,1.31932,0,0,0,.49511.51464A1.36611,1.36611,0,0,0,52.64979,6.66992Z"/><path class="cls-3" d="M59.91053,2.41016a2.50436,2.50436,0,0,1,1.14453.25488,1.84835,1.84835,0,0,1,.79541.78027,2.766,2.766,0,0,1,.29,1.34473V7.87012H60.58045V5.03027a1.38131,1.38131,0,0,0-.28515-.96,1.038,1.038,0,0,0-.80518-.31054,1.40644,1.40644,0,0,0-.665.15527,1.08177,1.08177,0,0,0-.46.47461,1.79084,1.79084,0,0,0-.165.82031V7.87012H56.64051V2.49023h1.48975V3.98047l-.27979-.4502a1.98816,1.98816,0,0,1,.82959-.83007A2.55993,2.55993,0,0,1,59.91053,2.41016Z"/><path class="cls-3" d="M3.16053,17.99023a5.69514,5.69514,0,0,1-1.60986-.22558,3.75047,3.75047,0,0,1-1.24024-.585L.86073,15.96a3.99842,3.99842,0,0,0,1.06494.52539,3.91421,3.91421,0,0,0,1.24512.20508,2.58644,2.58644,0,0,0,.7749-.0957.90528.90528,0,0,0,.43506-.26465.59592.59592,0,0,0,.14013-.38965.52931.52931,0,0,0-.22021-.44531,1.78621,1.78621,0,0,0-.58008-.26953q-.35962-.10548-.79492-.2002-.43506-.09522-.87012-.23535a3.61981,3.61981,0,0,1-.79492-.36035,1.77314,1.77314,0,0,1-.585-.5791,1.71312,1.71312,0,0,1-.2251-.9209A1.953,1.953,0,0,1,.77577,11.835a2.22282,2.22282,0,0,1,.98-.79,4.0179,4.0179,0,0,1,1.645-.29492,5.4938,5.4938,0,0,1,1.2998.15527,3.73965,3.73965,0,0,1,1.12988.46485l-.5,1.23047a4.21213,4.21213,0,0,0-.98-.415,3.57231,3.57231,0,0,0-.96-.13575,2.27213,2.27213,0,0,0-.77.11036.90287.90287,0,0,0-.42968.28515.65949.65949,0,0,0-.13038.40528.51871.51871,0,0,0,.22022.43457,1.72174,1.72174,0,0,0,.58008.26464q.35961.10109.79492.2002.43506.09962.87012.23047a3.34361,3.34361,0,0,1,.79492.34961,1.76673,1.76673,0,0,1,.585.58008,1.69011,1.69011,0,0,1,.2251.91015,1.89168,1.89168,0,0,1-.33008,1.08008,2.31219,2.31219,0,0,1-.98486.79A3.99765,3.99765,0,0,1,3.16053,17.99023Z"/><path class="cls-3" d="M9.69032,17.9502a3.14981,3.14981,0,0,1-1.52491-.36036,2.73575,2.73575,0,0,1-1.0498-.98437,2.84724,2.84724,0,0,1,0-2.86035,2.70441,2.70441,0,0,1,1.0498-.98047,3.19208,3.19208,0,0,1,1.52491-.35449,3.19843,3.19843,0,0,1,1.52.35449,2.72866,2.72866,0,0,1,0,4.82519A3.15609,3.15609,0,0,1,9.69032,17.9502Zm0-1.28028a1.36661,1.36661,0,0,0,.70019-.17969,1.28794,1.28794,0,0,0,.49024-.51464,1.86124,1.86124,0,0,0,0-1.59571,1.29386,1.29386,0,0,0-.49024-.50976,1.45311,1.45311,0,0,0-1.3999,0,1.326,1.326,0,0,0-.49512.50976,1.81243,1.81243,0,0,0,0,1.59571,1.31941,1.31941,0,0,0,.49512.51464A1.36609,1.36609,0,0,0,9.69032,16.66992Z"/><path class="cls-3" d="M15.95057,17.9502a2.66507,2.66507,0,0,1-1.19531-.25977,1.84365,1.84365,0,0,1-.81494-.79492,2.84894,2.84894,0,0,1-.29-1.36524v-3.04h1.56006V15.2998a1.43683,1.43683,0,0,0,.28515.98536,1.0296,1.0296,0,0,0,.80469.31543,1.297,1.297,0,0,0,.64014-.15528,1.06784,1.06784,0,0,0,.43994-.48047,1.839,1.839,0,0,0,.16015-.81445V12.49023h1.56006v5.37989h-1.48V16.38965l.27.43066a1.8446,1.8446,0,0,1-.79541.84473A2.3546,2.3546,0,0,1,15.95057,17.9502Z"/><path class="cls-3" d="M19.91053,13.81055v-1.2002h3.73v1.2002Zm2.83985,4.13965a2.11246,2.11246,0,0,1-1.48-.48536,1.86026,1.86026,0,0,1-.52979-1.44433V11.2998h1.56006V16a.72345.72345,0,0,0,.17969.52539.653.653,0,0,0,.49023.18457.99985.99985,0,0,0,.62988-.20019l.41993,1.10058a1.71585,1.71585,0,0,1-.57471.25488A2.81873,2.81873,0,0,1,22.75038,17.9502Z"/><path class="cls-3" d="M28.17079,12.41016a2.50439,2.50439,0,0,1,1.14453.25488,1.84845,1.84845,0,0,1,.79541.78027,2.766,2.766,0,0,1,.29,1.34473v3.08008H28.84071V15.03027a1.38131,1.38131,0,0,0-.28516-.96,1.038,1.038,0,0,0-.80517-.31054,1.40639,1.40639,0,0,0-.665.15527,1.08177,1.08177,0,0,0-.46.47461,1.79071,1.79071,0,0,0-.165.82031v2.66016H24.90077V10.4502h1.55957v3.53027l-.34961-.4502a1.9881,1.9881,0,0,1,.82959-.83007A2.55993,2.55993,0,0,1,28.17079,12.41016Z"/><path class="cls-3" d="M34.75038,17.87012v-7h1.60986v7Zm1.4497-1.59961-.08984-1.87012,3.3501-3.53027h1.7998l-3.02,3.25-.8999.96Zm3.34033,1.59961-2.49023-3.04981,1.06006-1.15039,3.31982,4.2002Z"/><path class="cls-3" d="M43.58,17.9502a2.49888,2.49888,0,0,1-1.08008-.21485,1.64817,1.64817,0,0,1-.68994-.585,1.58747,1.58747,0,0,1-.00489-1.66992,1.53741,1.53741,0,0,1,.74512-.56543A3.61611,3.61611,0,0,1,43.88026,14.71H45.31v.91016H44.05018a1.17092,1.17092,0,0,0-.75488.17968.575.575,0,0,0-.20508.4502.56218.56218,0,0,0,.23486.47559,1.06162,1.06162,0,0,0,.645.1748,1.33562,1.33562,0,0,0,.7002-.18555,1.0573,1.0573,0,0,0,.4497-.54492l.24024.71973a1.39137,1.39137,0,0,1-.62012.79A2.22256,2.22256,0,0,1,43.58,17.9502Zm1.64013-.08008V16.82031l-.1001-.23047V14.71a1.00865,1.00865,0,0,0-.30468-.78027,1.34713,1.34713,0,0,0-.93506-.2793,2.7175,2.7175,0,0,0-.84522.13477,2.23148,2.23148,0,0,0-.70507.36523l-.56006-1.08984A3.36863,3.36863,0,0,1,42.83,12.58008a4.74864,4.74864,0,0,1,1.26025-.16992,2.85437,2.85437,0,0,1,1.90967.58007,2.25013,2.25013,0,0,1,.68017,1.80957v3.07032Z"/><path class="cls-3" d="M48.09022,17.87012V10.4502h1.55957v7.41992Z"/><path class="cls-3" d="M51.88026,11.74023a.98884.98884,0,0,1-.7002-.25.84707.84707,0,0,1,0-1.24023.99321.99321,0,0,1,.7002-.25,1.026,1.026,0,0,1,.70019.23535.76553.76553,0,0,1,.27.60449.85844.85844,0,0,1-.26513.64551A.97437.97437,0,0,1,51.88026,11.74023Zm-.77979,6.12989V12.49023H52.66v5.37989Z"/><path class="cls-3" d="M60.99989,12.41016a2.44536,2.44536,0,0,1,1.13525.25488,1.83013,1.83013,0,0,1,.77979.78027A2.80166,2.80166,0,0,1,63.20008,14.79v3.08008H61.64V15.03027a1.43257,1.43257,0,0,0-.27-.96.95366.95366,0,0,0-.75976-.31054,1.202,1.202,0,0,0-.61035.15527,1.0467,1.0467,0,0,0-.41992.46484,1.81653,1.81653,0,0,0-.14991.79v2.7002H57.87V15.03027a1.45213,1.45213,0,0,0-.26513-.96.93792.93792,0,0,0-.75488-.31054,1.20026,1.20026,0,0,0-.60987.15527,1.04121,1.04121,0,0,0-.41992.46484,1.81615,1.81615,0,0,0-.15039.79v2.7002H54.11024V12.49023H55.6V13.96l-.27979-.42969a1.91789,1.91789,0,0,1,.79492-.835,2.38057,2.38057,0,0,1,1.17481-.28515,2.25691,2.25691,0,0,1,1.29492.375,1.81333,1.81333,0,0,1,.73535,1.14453l-.55029-.14942a2.15107,2.15107,0,0,1,.86523-1A2.52661,2.52661,0,0,1,60.99989,12.41016Z"/><path class="cls-3" d="M66.25965,17.9502a2.49894,2.49894,0,0,1-1.08008-.21485,1.64829,1.64829,0,0,1-.68994-.585,1.58749,1.58749,0,0,1-.00488-1.66992,1.53741,1.53741,0,0,1,.74512-.56543A3.61611,3.61611,0,0,1,66.56,14.71h1.42968v.91016H66.72987a1.17092,1.17092,0,0,0-.75488.17968.575.575,0,0,0-.20508.4502.56218.56218,0,0,0,.23486.47559,1.06162,1.06162,0,0,0,.645.1748,1.33564,1.33564,0,0,0,.7002-.18555,1.0573,1.0573,0,0,0,.4497-.54492l.24024.71973a1.39141,1.39141,0,0,1-.62012.79A2.2226,2.2226,0,0,1,66.25965,17.9502Zm1.64014-.08008V16.82031l-.1001-.23047V14.71a1.00862,1.00862,0,0,0-.30469-.78027,1.34709,1.34709,0,0,0-.93505-.2793,2.7175,2.7175,0,0,0-.84522.13477,2.23164,2.23164,0,0,0-.70508.36523l-.56006-1.08984a3.36884,3.36884,0,0,1,1.06006-.48047,4.74877,4.74877,0,0,1,1.26026-.16992,2.85432,2.85432,0,0,1,1.90966.58007,2.2501,2.2501,0,0,1,.68018,1.80957v3.07032Z"/><path class="cls-3" d="M74.03993,12.41016a2.50439,2.50439,0,0,1,1.14453.25488,1.84845,1.84845,0,0,1,.79541.78027,2.766,2.766,0,0,1,.29,1.34473v3.08008H74.70985V15.03027a1.38131,1.38131,0,0,0-.28516-.96,1.038,1.038,0,0,0-.80517-.31054,1.40639,1.40639,0,0,0-.665.15527,1.08177,1.08177,0,0,0-.46.47461,1.79071,1.79071,0,0,0-.165.82031v2.66016H70.76991V12.49023h1.48974v1.49024l-.27978-.4502a1.9881,1.9881,0,0,1,.82959-.83007A2.55993,2.55993,0,0,1,74.03993,12.41016Z"/><path class="cls-3" d="M77.03993,13.81055v-1.2002h3.73v1.2002Zm2.83984,4.13965a2.1125,2.1125,0,0,1-1.48-.48536A1.86026,1.86026,0,0,1,77.87,16.02051V11.2998h1.56006V16a.72345.72345,0,0,0,.17969.52539A.653.653,0,0,0,80.1,16.71a.99985.99985,0,0,0,.62988-.20019l.41992,1.10058a1.71576,1.71576,0,0,1-.57471.25488A2.81873,2.81873,0,0,1,79.87977,17.9502Z"/><path class="cls-3" d="M83.68983,17.9502a2.49891,2.49891,0,0,1-1.08008-.21485,1.64829,1.64829,0,0,1-.68994-.585,1.58744,1.58744,0,0,1-.00488-1.66992A1.53733,1.53733,0,0,1,82.66,14.915,3.61618,3.61618,0,0,1,83.99012,14.71h1.42969v.91016H84.16a1.17092,1.17092,0,0,0-.75488.17968.575.575,0,0,0-.20508.4502.56219.56219,0,0,0,.23487.47559,1.0616,1.0616,0,0,0,.645.1748,1.33561,1.33561,0,0,0,.70019-.18555,1.05732,1.05732,0,0,0,.44971-.54492l.24023.71973a1.39139,1.39139,0,0,1-.62011.79A2.22262,2.22262,0,0,1,83.68983,17.9502ZM85.33,17.87012V16.82031l-.1001-.23047V14.71a1.00862,1.00862,0,0,0-.30469-.78027,1.34711,1.34711,0,0,0-.93506-.2793,2.71739,2.71739,0,0,0-.84521.13477,2.23153,2.23153,0,0,0-.70508.36523l-.56006-1.08984a3.36874,3.36874,0,0,1,1.06006-.48047,4.74864,4.74864,0,0,1,1.26025-.16992,2.85433,2.85433,0,0,1,1.90967.58007,2.25013,2.25013,0,0,1,.68018,1.80957v3.07032Z"/><path class="cls-3" d="M91.4701,12.41016a2.50436,2.50436,0,0,1,1.14453.25488,1.84835,1.84835,0,0,1,.79541.78027,2.766,2.766,0,0,1,.29,1.34473v3.08008H92.14V15.03027a1.38131,1.38131,0,0,0-.28515-.96,1.038,1.038,0,0,0-.80518-.31054,1.40644,1.40644,0,0,0-.665.15527,1.08177,1.08177,0,0,0-.46.47461,1.79084,1.79084,0,0,0-.165.82031v2.66016H88.20008V12.49023h1.48975v1.49024l-.27979-.4502a1.98816,1.98816,0,0,1,.82959-.83007A2.56,2.56,0,0,1,91.4701,12.41016Z"/><path class="cls-3" d="M98.04969,17.87012v-7h3.02979a3.94143,3.94143,0,0,1,1.62011.30468,2.37812,2.37812,0,0,1,1.04981.875,2.4451,2.4451,0,0,1,.37012,1.36036,2.399,2.399,0,0,1-.37012,1.34472,2.35262,2.35262,0,0,1-1.04981.86524,3.992,3.992,0,0,1-1.62011.2998H98.94959l.72022-.71v2.66016Zm1.62012-2.48047-.72022-.75977h2.04a1.6583,1.6583,0,0,0,1.12012-.32519,1.27432,1.27432,0,0,0,0-1.79492,1.67939,1.67939,0,0,0-1.12012-.31934h-2.04l.72022-.77051Zm2.82959,2.48047-1.75-2.54h1.73l1.77,2.54Z"/><path class="cls-3" d="M107.95936,17.9502a3.46041,3.46041,0,0,1-1.61523-.36036,2.64847,2.64847,0,0,1-1.07471-.98437,2.68889,2.68889,0,0,1-.38037-1.42578,2.73371,2.73371,0,0,1,.375-1.43457,2.66111,2.66111,0,0,1,1.02539-.98047,3.2121,3.2121,0,0,1,2.895-.01953,2.51326,2.51326,0,0,1,1.00488.96,2.88486,2.88486,0,0,1,.37012,1.49512c0,.05957-.00391.12793-.01026.20507-.00683.07618-.01318.14844-.02.21485h-4.37011V14.71h3.55029l-.6001.27051a1.49792,1.49792,0,0,0-.16992-.73047,1.2518,1.2518,0,0,0-.47021-.48535,1.36679,1.36679,0,0,0-.69971-.17481,1.3946,1.3946,0,0,0-.70508.17481,1.22451,1.22451,0,0,0-.4751.49023A1.54888,1.54888,0,0,0,106.41932,15v.24023a1.51036,1.51036,0,0,0,.19483.77442,1.27448,1.27448,0,0,0,.55029.51074,1.87216,1.87216,0,0,0,.835.17481,2.01857,2.01857,0,0,0,.75488-.12989,1.83627,1.83627,0,0,0,.59473-.39062l.83008.90039a2.42065,2.42065,0,0,1-.92969.64551A3.455,3.455,0,0,1,107.95936,17.9502Z"/><path class="cls-3" d="M113.88905,17.61035a2.81578,2.81578,0,0,1-1.355-.32519,2.658,2.658,0,0,1-.96973-3.65039,2.50189,2.50189,0,0,1,.96973-.9043,2.84655,2.84655,0,0,1,1.355-.32031,2.52594,2.52594,0,0,1,1.20019.27539,1.88462,1.88462,0,0,1,.81006.84961,3.27323,3.27323,0,0,1,.29,1.47461,3.25047,3.25047,0,0,1-.29,1.46582,1.92138,1.92138,0,0,1-.81006.85449A2.4938,2.4938,0,0,1,113.88905,17.61035Zm.24023,2.2793a5.75687,5.75687,0,0,1-1.46484-.18457,3.185,3.185,0,0,1-1.17529-.55469l.62011-1.12012a2.55519,2.55519,0,0,0,.86524.44532,3.45389,3.45389,0,0,0,1.03466.16406,1.669,1.669,0,0,0,1.20508-.36914,1.48166,1.48166,0,0,0,.375-1.10059v-.80957l.1001-1.35058-.02-1.35938V12.49023h1.48v4.4795a2.84894,2.84894,0,0,1-.77978,2.21A3.21426,3.21426,0,0,1,114.12928,19.88965Zm.06983-3.55957a1.56548,1.56548,0,0,0,.73-.165,1.2227,1.2227,0,0,0,.5-.46484,1.42048,1.42048,0,0,0,0-1.38477,1.22437,1.22437,0,0,0-.5-.46,1.69689,1.69689,0,0,0-1.46,0,1.26262,1.26262,0,0,0-.50489.46,1.38777,1.38777,0,0,0,0,1.38477,1.2605,1.2605,0,0,0,.50489.46484A1.56543,1.56543,0,0,0,114.19911,16.33008Z"/><path class="cls-3" d="M119.37928,11.74023a.98879.98879,0,0,1-.70019-.25.84707.84707,0,0,1,0-1.24023.99317.99317,0,0,1,.70019-.25,1.0261,1.0261,0,0,1,.7002.23535.76556.76556,0,0,1,.27.60449.85845.85845,0,0,1-.26514.64551A.97437.97437,0,0,1,119.37928,11.74023Zm-.77978,6.12989V12.49023h1.55957v5.37989Z"/><path class="cls-3" d="M124.16883,17.9502a3.1498,3.1498,0,0,1-1.5249-.36036,2.73561,2.73561,0,0,1-1.0498-.98437,2.84718,2.84718,0,0,1,0-2.86035,2.70428,2.70428,0,0,1,1.0498-.98047,3.44656,3.44656,0,0,1,3.04492,0,2.72864,2.72864,0,0,1,0,4.82519A3.15606,3.15606,0,0,1,124.16883,17.9502Zm0-1.28028a1.36662,1.36662,0,0,0,.7002-.17969,1.28791,1.28791,0,0,0,.49023-.51464,1.86114,1.86114,0,0,0,0-1.59571,1.29383,1.29383,0,0,0-.49023-.50976,1.45311,1.45311,0,0,0-1.3999,0,1.32582,1.32582,0,0,0-.49512.50976,1.81243,1.81243,0,0,0,0,1.59571,1.31927,1.31927,0,0,0,.49512.51464A1.36608,1.36608,0,0,0,124.16883,16.66992Z"/><path class="cls-3" d="M131.42957,12.41016a2.50444,2.50444,0,0,1,1.14454.25488,1.84845,1.84845,0,0,1,.79541.78027,2.766,2.766,0,0,1,.29,1.34473v3.08008H132.0995V15.03027a1.38131,1.38131,0,0,0-.28516-.96,1.038,1.038,0,0,0-.80518-.31054,1.40637,1.40637,0,0,0-.665.15527,1.08184,1.08184,0,0,0-.46.47461,1.79084,1.79084,0,0,0-.165.82031v2.66016h-1.55957V12.49023h1.48974v1.49024l-.27978-.4502a1.9881,1.9881,0,0,1,.82959-.83007A2.55992,2.55992,0,0,1,131.42957,12.41016Z"/></g></g></svg>