<svg xmlns="http://www.w3.org/2000/svg" viewBox="0 0 150.34967 70.25528"><defs><style>.cls-1{fill:#fbb03b;}.cls-2{fill:none;stroke:#fbb03b;stroke-miterlimit:10;stroke-width:0.5px;}</style></defs><g id="Layer_2" data-name="Layer 2"><g id="Layer_3" data-name="Layer 3"><path class="cls-1" d="M6.20422,53.42664A6.20318,6.20318,0,0,0,3.20863,65.06233l1.46282,2.54083,1.53277,2.65212L7.737,67.60316l1.466-2.54083A6.20428,6.20428,0,0,0,6.20422,53.42664Zm0,9.53687a3.33425,3.33425,0,1,1,3.33583-3.33266A3.33182,3.33182,0,0,1,6.20422,62.96351Z"/><polyline class="cls-2" points="10.559 55.213 31.879 33.894 150.35 33.894"/><path class="cls-1" d="M40.78778,26.41113V21.51074H42.8034a2.72444,2.72444,0,0,1,1.1167.209,1.62427,1.62427,0,0,1,.71729.60351,1.84484,1.84484,0,0,1,0,1.86133,1.608,1.608,0,0,1-.71729.60156,2.69191,2.69191,0,0,1-1.1167.21094H41.29168l.40576-.42773v1.84179Zm.90966-1.74414-.40576-.43945h1.46973a1.385,1.385,0,0,0,.90674-.25586,1.00352,1.00352,0,0,0,0-1.43945,1.39644,1.39644,0,0,0-.90674-.252H41.29168l.40576-.44726Z"/><path class="cls-1" d="M46.6535,26.41113V22.28027h-1.624v-.76953h4.15821v.76953h-1.624v4.13086Z"/><path class="cls-1" d="M54.07342,26.48145a2.86707,2.86707,0,0,1-1.03906-.18555,2.49277,2.49277,0,0,1-.833-.52539,2.39781,2.39781,0,0,1-.5498-.80274,2.69144,2.69144,0,0,1,0-2.01562,2.3832,2.3832,0,0,1,.55322-.80078,2.51059,2.51059,0,0,1,.833-.52539,2.8618,2.8618,0,0,1,1.043-.18555,2.82054,2.82054,0,0,1,1.09913.207,2.17961,2.17961,0,0,1,.83984.61133l-.58789.55469a1.78754,1.78754,0,0,0-.59522-.43164,1.76517,1.76517,0,0,0-.71386-.14258,1.897,1.897,0,0,0-.70362.125,1.61467,1.61467,0,0,0-.917.90429,1.91722,1.91722,0,0,0,0,1.38477,1.6233,1.6233,0,0,0,.36377.54688,1.66663,1.66663,0,0,0,.55322.35742,1.89719,1.89719,0,0,0,.70362.125,1.69265,1.69265,0,0,0,1.30908-.58008l.58789.55859a2.2578,2.2578,0,0,1-.83984.60938A2.80593,2.80593,0,0,1,54.07342,26.48145Z"/><path class="cls-1" d="M59.08563,26.48145A2.89827,2.89827,0,0,1,58.0285,26.292a2.56932,2.56932,0,0,1-.83985-.52929,2.38718,2.38718,0,0,1-.55322-.79688,2.67653,2.67653,0,0,1,0-2.00977,2.395,2.395,0,0,1,.55322-.79882,2.5646,2.5646,0,0,1,.83985-.52735,3.01419,3.01419,0,0,1,2.10351,0,2.56945,2.56945,0,0,1,.83643.52735,2.395,2.395,0,0,1,.55322.79882,2.68153,2.68153,0,0,1,0,2.01172,2.33742,2.33742,0,0,1-.55322.79883,2.59745,2.59745,0,0,1-.83643.52539A2.84991,2.84991,0,0,1,59.08563,26.48145Zm-.00733-.79883a1.82969,1.82969,0,0,0,.686-.125,1.61735,1.61735,0,0,0,.54638-.36133,1.69242,1.69242,0,0,0,.36036-.54688,1.90155,1.90155,0,0,0,0-1.3789,1.7051,1.7051,0,0,0-.36036-.54492,1.58893,1.58893,0,0,0-.54638-.36133,1.82949,1.82949,0,0,0-.686-.125,1.802,1.802,0,0,0-.68213.125,1.63172,1.63172,0,0,0-.54638.36133,1.67473,1.67473,0,0,0-.36377.54492,1.89622,1.89622,0,0,0,0,1.37695,1.70081,1.70081,0,0,0,.36035.54883,1.6127,1.6127,0,0,0,.54639.36133A1.82889,1.82889,0,0,0,59.0783,25.68262Z"/><path class="cls-1" d="M62.68328,26.41113V21.51074h.749l2.1416,3.57617h-.3916l2.10693-3.57617h.749l.00684,4.90039h-.86084l-.00732-3.54883h.18212l-1.792,2.98829h-.40576L63.341,22.8623h.21v3.54883Z"/><path class="cls-1" d="M68.675,26.41113l2.20508-4.90039h.896L73.988,26.41113h-.95166l-1.897-4.418h.36377l-1.89014,4.418Zm1.01514-1.13476.24512-.71289h2.646l.24512.71289Z"/><path class="cls-1" d="M76.80877,26.48145a2.86711,2.86711,0,0,1-1.03906-.18555,2.49287,2.49287,0,0,1-.833-.52539,2.398,2.398,0,0,1-.5498-.80274,2.69157,2.69157,0,0,1,0-2.01562,2.38335,2.38335,0,0,1,.55322-.80078,2.51059,2.51059,0,0,1,.833-.52539,2.86186,2.86186,0,0,1,1.043-.18555,2.82052,2.82052,0,0,1,1.09912.207,2.17961,2.17961,0,0,1,.83984.61133l-.58789.55469a1.78751,1.78751,0,0,0-.59521-.43164,1.76522,1.76522,0,0,0-.71387-.14258,1.897,1.897,0,0,0-.70362.125,1.61467,1.61467,0,0,0-.917.90429,1.91722,1.91722,0,0,0,0,1.38477,1.6233,1.6233,0,0,0,.36377.54688,1.66663,1.66663,0,0,0,.55322.35742,1.89719,1.89719,0,0,0,.70362.125,1.69261,1.69261,0,0,0,1.30908-.58008l.58789.55859a2.2578,2.2578,0,0,1-.83984.60938A2.80593,2.80593,0,0,1,76.80877,26.48145Z"/><path class="cls-1" d="M81.56219,26.41113V21.51074h.749l2.1416,3.57617h-.3916l2.10694-3.57617h.749l.00684,4.90039h-.86084l-.00733-3.54883H86.238l-1.792,2.98829h-.40576L82.2199,22.8623h.21v3.54883Z"/><path class="cls-1" d="M87.55389,26.41113,89.759,21.51074h.896l2.21192,4.90039h-.95166l-1.897-4.418H90.382l-1.89013,4.418ZM88.569,25.27637l.24511-.71289h2.646l.24512.71289Z"/><path class="cls-1" d="M93.48992,26.41113V21.51074h2.01563a2.72444,2.72444,0,0,1,1.1167.209,1.62424,1.62424,0,0,1,.71728.60351,1.83756,1.83756,0,0,1,0,1.85742,1.60892,1.60892,0,0,1-.71728.59571,2.758,2.758,0,0,1-1.1167.207H93.99383l.40576-.41406v1.84179Zm.90967-1.74414-.40576-.43359h1.46973a1.3739,1.3739,0,0,0,.90674-.25781.89911.89911,0,0,0,.30419-.72266.88186.88186,0,0,0-.30419-.7207,1.39646,1.39646,0,0,0-.90674-.252H93.99383l.40576-.44726Zm2.2959,1.74414-1.23877-1.77929h.97315L97.676,26.41113Z"/><path class="cls-1" d="M98.60711,26.41113V21.51074h.90967v4.90039Z"/><path class="cls-1" d="M101.83367,26.41113V22.28027h-1.624v-.76953h4.1582v.76953h-1.624v4.13086Z"/><path class="cls-1" d="M105.05389,26.41113V21.51074h.90967v4.90039Z"/><path class="cls-1" d="M107.2868,26.41113V21.51074h.749l2.1416,3.57617h-.3916l2.10694-3.57617h.749l.00684,4.90039h-.86084l-.00733-3.54883h.18213l-1.792,2.98829h-.40576l-1.82032-2.98829h.21v3.54883Z"/><path class="cls-1" d="M115.9035,26.41113V21.51074h.90967v4.90039Z"/><path class="cls-1" d="M118.13641,26.41113V21.51074h.749l3.07276,3.77344h-.3711V21.51074h.90332v4.90039h-.749l-3.07324-3.77343h.37109v3.77343Z"/><path class="cls-1" d="M123.80633,26.41113V21.51074h2.1416a3.0378,3.0378,0,0,1,1.40039.3086,2.31562,2.31562,0,0,1,.938.85351,2.62993,2.62993,0,0,1,0,2.57227,2.29779,2.29779,0,0,1-.938.85742,3.0378,3.0378,0,0,1-1.40039.30859Zm.90967-.76953h1.18994a2.032,2.032,0,0,0,.95557-.21094,1.51831,1.51831,0,0,0,.623-.58789,1.87982,1.87982,0,0,0,0-1.76757,1.50946,1.50946,0,0,0-.623-.584,2.03216,2.03216,0,0,0-.95557-.21094H124.716Z"/><path class="cls-1" d="M131.695,26.48145a2.13772,2.13772,0,0,1-1.57861-.56836,2.20634,2.20634,0,0,1-.57031-1.63672V21.51074h.90966v2.73047a1.55328,1.55328,0,0,0,.32569,1.09766,1.39952,1.39952,0,0,0,1.8374,0,1.56521,1.56521,0,0,0,.32227-1.09766V21.51074h.896v2.76563a2.20654,2.20654,0,0,1-.5708,1.63672A2.12839,2.12839,0,0,1,131.695,26.48145Z"/><path class="cls-1" d="M136.62957,26.48145a3.66393,3.66393,0,0,1-1.09863-.166,2.4036,2.4036,0,0,1-.833-.42188l.31494-.707a2.60729,2.60729,0,0,0,.728.38477,2.66524,2.66524,0,0,0,.88867.1543,1.94764,1.94764,0,0,0,.62305-.084.75039.75039,0,0,0,.3501-.22851.51368.51368,0,0,0,.1123-.32618.44658.44658,0,0,0-.16113-.35937,1.161,1.161,0,0,0-.4165-.2168c-.17042-.05469-.35938-.10351-.5669-.15039-.208-.04687-.41553-.10156-.62305-.166a2.59207,2.59207,0,0,1-.56689-.24414,1.216,1.216,0,0,1-.4165-.40235,1.17669,1.17669,0,0,1-.16114-.64453,1.31963,1.31963,0,0,1,.21338-.73047,1.46436,1.46436,0,0,1,.65088-.5332,2.68535,2.68535,0,0,1,1.10986-.19922,3.50985,3.50985,0,0,1,.875.11133,2.61082,2.61082,0,0,1,.75586.32226l-.28711.707a2.66606,2.66606,0,0,0-.6792-.28906,2.51813,2.51813,0,0,0-.67187-.0957,1.72079,1.72079,0,0,0-.61231.0918.73526.73526,0,0,0-.34326.23828.54858.54858,0,0,0-.1084.33593.45126.45126,0,0,0,.15772.35938,1.122,1.122,0,0,0,.41309.21484c.16992.05078.36035.10157.57031.15039s.41894.10352.62646.16407a2.60127,2.60127,0,0,1,.5669.23828,1.16128,1.16128,0,0,1,.41308.39844,1.18351,1.18351,0,0,1,.15772.63671,1.31028,1.31028,0,0,1-.21387.72461,1.45786,1.45786,0,0,1-.6543.53125A2.67666,2.67666,0,0,1,136.62957,26.48145Z"/><path class="cls-1" d="M140.43768,26.41113V22.28027h-1.624v-.76953h4.15821v.76953h-1.624v4.13086Z"/><path class="cls-1" d="M143.65838,26.41113V21.51074H145.674a2.72444,2.72444,0,0,1,1.1167.209,1.6243,1.6243,0,0,1,.71728.60351,1.83763,1.83763,0,0,1,0,1.85742,1.609,1.609,0,0,1-.71728.59571,2.758,2.758,0,0,1-1.1167.207h-1.51172l.40576-.41406v1.84179Zm.90967-1.74414-.40576-.43359H145.632a1.37386,1.37386,0,0,0,.90674-.25781.89908.89908,0,0,0,.3042-.72266.88184.88184,0,0,0-.3042-.7207,1.39642,1.39642,0,0,0-.90674-.252h-1.46972l.40576-.44726Zm2.2959,1.74414-1.23877-1.77929h.97314l1.2461,1.77929Z"/><path class="cls-1" d="M148.77508,26.41113V21.51074h.90967v4.90039Z"/><path class="cls-1" d="M53.67108,7.87012v-7h1.33984l2.98,4.94043h-.71L60.21112.87012h1.33007l.02,7h-1.52L60.03094,3.2002h.28027L57.97088,7.12988h-.73L54.85076,3.2002h.34034V7.87012Z"/><path class="cls-1" d="M64.77069,7.9502a2.49888,2.49888,0,0,1-1.08008-.21485,1.64817,1.64817,0,0,1-.68994-.585,1.58747,1.58747,0,0,1-.00489-1.66992A1.53741,1.53741,0,0,1,63.7409,4.915,3.61611,3.61611,0,0,1,65.071,4.71h1.42969v.91016H65.2409a1.17092,1.17092,0,0,0-.75488.17968.575.575,0,0,0-.20508.4502.56218.56218,0,0,0,.23486.47559,1.06164,1.06164,0,0,0,.645.1748,1.33562,1.33562,0,0,0,.7002-.18555,1.0573,1.0573,0,0,0,.4497-.54492l.24024.71973a1.39137,1.39137,0,0,1-.62012.79A2.22256,2.22256,0,0,1,64.77069,7.9502Zm1.64013-.08008V6.82031l-.1001-.23047V4.71a1.00865,1.00865,0,0,0-.30468-.78027,1.34713,1.34713,0,0,0-.93506-.2793,2.7175,2.7175,0,0,0-.84522.13477,2.23158,2.23158,0,0,0-.70507.36523l-.56006-1.08984a3.36863,3.36863,0,0,1,1.06006-.48047,4.74864,4.74864,0,0,1,1.26025-.16992,2.85437,2.85437,0,0,1,1.90967.58007,2.25013,2.25013,0,0,1,.68017,1.80957V7.87012Z"/><path class="cls-1" d="M69.28094,7.87012V2.49023h1.48975V4.00977l-.21-.43946a1.728,1.728,0,0,1,.77-.86523,2.62034,2.62034,0,0,1,1.29-.29492V3.85059c-.06689-.00684-.12695-.01172-.18017-.01563-.05322-.00293-.10987-.00488-.16992-.00488a1.46632,1.46632,0,0,0-1.03516.36523,1.47479,1.47479,0,0,0-.395,1.13477v2.54Z"/><path class="cls-1" d="M74.33074,1.74023a.98879.98879,0,0,1-.70019-.25.812.812,0,0,1-.27-.62011.81349.81349,0,0,1,.27-.62012A.99317.99317,0,0,1,74.33074,0a1.02608,1.02608,0,0,1,.7002.23535.76553.76553,0,0,1,.27.60449.85845.85845,0,0,1-.26514.64551A.97437.97437,0,0,1,74.33074,1.74023ZM73.551,7.87012V2.49023h1.55957V7.87012Z"/><path class="cls-1" d="M79.83074,2.41016a2.50444,2.50444,0,0,1,1.14454.25488,1.84845,1.84845,0,0,1,.79541.78027,2.766,2.766,0,0,1,.29,1.34473V7.87012H80.50067V5.03027a1.38131,1.38131,0,0,0-.28516-.96,1.038,1.038,0,0,0-.80518-.31054,1.40637,1.40637,0,0,0-.665.15527,1.08184,1.08184,0,0,0-.46.47461,1.79084,1.79084,0,0,0-.165.82031V7.87012H76.56072V2.49023h1.48975V3.98047l-.27978-.4502a1.9881,1.9881,0,0,1,.82959-.83007A2.55992,2.55992,0,0,1,79.83074,2.41016Z"/><path class="cls-1" d="M86.18084,7.9502a3.46044,3.46044,0,0,1-1.61523-.36036,2.64847,2.64847,0,0,1-1.07471-.98437,2.68889,2.68889,0,0,1-.38037-1.42578,2.73371,2.73371,0,0,1,.375-1.43457,2.66118,2.66118,0,0,1,1.02539-.98047,3.2121,3.2121,0,0,1,2.895-.01953,2.51326,2.51326,0,0,1,1.00488.96,2.88486,2.88486,0,0,1,.37012,1.49512c0,.05957-.00391.12793-.01025.20507-.00684.07618-.01319.14844-.02.21485H84.38055V4.71h3.55029l-.6001.27051A1.49792,1.49792,0,0,0,87.16082,4.25a1.2518,1.2518,0,0,0-.47021-.48535,1.36679,1.36679,0,0,0-.69971-.17481,1.3946,1.3946,0,0,0-.70508.17481,1.22458,1.22458,0,0,0-.4751.49023A1.54888,1.54888,0,0,0,84.6408,5v.24023a1.51036,1.51036,0,0,0,.19483.77442,1.27448,1.27448,0,0,0,.55029.51074,1.87216,1.87216,0,0,0,.835.17481,2.01857,2.01857,0,0,0,.75488-.12989,1.83627,1.83627,0,0,0,.59473-.39062l.83008.90039a2.42058,2.42058,0,0,1-.92969.64551A3.455,3.455,0,0,1,86.18084,7.9502Z"/><path class="cls-1" d="M94.3703,6.57031h3.81005V7.87012H92.76043v-7h5.29v1.2998H94.3703Zm-.12012-2.87988H97.6203V4.9502H94.25018Z"/><path class="cls-1" d="M101.61,7.9502a2.76489,2.76489,0,0,1-1.36963-.33985,2.498,2.498,0,0,1-.96533-.96,2.91287,2.91287,0,0,1-.355-1.4707,2.89466,2.89466,0,0,1,.355-1.46,2.53753,2.53753,0,0,1,.96533-.96485A2.7372,2.7372,0,0,1,101.61,2.41016a2.33666,2.33666,0,0,1,1.21533.2998,1.93113,1.93113,0,0,1,.77491.91016,3.87185,3.87185,0,0,1,.27,1.55957,3.76686,3.76686,0,0,1-.27979,1.55566,1.97125,1.97125,0,0,1-.79.915A2.30334,2.30334,0,0,1,101.61,7.9502Zm.27-1.28028a1.34987,1.34987,0,0,0,.69043-.17969,1.31825,1.31825,0,0,0,.49463-.51464,1.61969,1.61969,0,0,0,.18506-.7959,1.61434,1.61434,0,0,0-.18506-.79981,1.32477,1.32477,0,0,0-.49463-.50976,1.34987,1.34987,0,0,0-.69043-.17969,1.36614,1.36614,0,0,0-.69971.17969,1.32587,1.32587,0,0,0-.49511.50976,1.61423,1.61423,0,0,0-.18506.79981,1.61958,1.61958,0,0,0,.18506.7959,1.31932,1.31932,0,0,0,.49511.51464A1.36614,1.36614,0,0,0,101.88006,6.66992Zm1.34033,3.14063V6.78027l.1001-1.58984-.03027-1.60059V2.49023h1.49023V9.81055Z"/><path class="cls-1" d="M108.49041,7.9502a2.6651,2.6651,0,0,1-1.19531-.25977,1.84365,1.84365,0,0,1-.81494-.79492,2.84894,2.84894,0,0,1-.29-1.36524v-3.04h1.56006V5.2998a1.43683,1.43683,0,0,0,.28515.98536,1.02962,1.02962,0,0,0,.80469.31543,1.29691,1.29691,0,0,0,.64014-.15528,1.06784,1.06784,0,0,0,.43994-.48047,1.83883,1.83883,0,0,0,.16016-.81445V2.49023h1.56005V7.87012h-1.48V6.38965l.27.43066a1.8446,1.8446,0,0,1-.79541.84473A2.3546,2.3546,0,0,1,108.49041,7.9502Z"/><path class="cls-1" d="M113.8703,1.74023a.98882.98882,0,0,1-.7002-.25.812.812,0,0,1-.27-.62011.81349.81349,0,0,1,.27-.62012.99319.99319,0,0,1,.7002-.25,1.02607,1.02607,0,0,1,.70019.23535.76553.76553,0,0,1,.27.60449.85845.85845,0,0,1-.26514.64551A.97434.97434,0,0,1,113.8703,1.74023Zm-.77979,6.12989V2.49023h1.55957V7.87012Z"/><path class="cls-1" d="M116.10028,9.81055V2.49023H117.59V3.58984l-.02978,1.60059.09961,1.58984V9.81055ZM119.28,7.9502A2.30156,2.30156,0,0,1,118.09,7.65039a1.99663,1.99663,0,0,1-.79492-.915,3.70711,3.70711,0,0,1-.28516-1.55566,3.88031,3.88031,0,0,1,.27-1.55957,1.91961,1.91961,0,0,1,.78028-.91016,2.36165,2.36165,0,0,1,1.21972-.2998,2.71289,2.71289,0,0,1,1.36524.34472,2.54779,2.54779,0,0,1,.96.96485,2.89466,2.89466,0,0,1,.355,1.46,2.91287,2.91287,0,0,1-.355,1.4707,2.5077,2.5077,0,0,1-.96.96A2.74028,2.74028,0,0,1,119.28,7.9502Zm-.27-1.28028a1.29847,1.29847,0,0,0,1.18506-.69433,1.61958,1.61958,0,0,0,.18506-.7959,1.61423,1.61423,0,0,0-.18506-.79981,1.30613,1.30613,0,0,0-1.18506-.68945,1.36608,1.36608,0,0,0-.6997.17969,1.2906,1.2906,0,0,0-.49024.50976,1.65178,1.65178,0,0,0-.18017.79981,1.65727,1.65727,0,0,0,.18017.7959,1.28473,1.28473,0,0,0,.49024.51464A1.36608,1.36608,0,0,0,119.00994,6.66992Z"/><path class="cls-1" d="M129.88983,2.41016a2.44539,2.44539,0,0,1,1.13525.25488,1.83019,1.83019,0,0,1,.77979.78027A2.80166,2.80166,0,0,1,132.09,4.79V7.87012H130.53V5.03027a1.43257,1.43257,0,0,0-.27-.96.95366.95366,0,0,0-.75976-.31054,1.202,1.202,0,0,0-.61035.15527,1.04678,1.04678,0,0,0-.41993.46484,1.81668,1.81668,0,0,0-.1499.79v2.7002h-1.56006V5.03027a1.45218,1.45218,0,0,0-.26513-.96.938.938,0,0,0-.75489-.31054,1.20025,1.20025,0,0,0-.60986.15527,1.04121,1.04121,0,0,0-.41992.46484,1.81615,1.81615,0,0,0-.15039.79v2.7002h-1.55957V2.49023h1.48974V3.96l-.27978-.42969a1.91789,1.91789,0,0,1,.79492-.835,2.38055,2.38055,0,0,1,1.17481-.28515,2.25691,2.25691,0,0,1,1.29492.375,1.81337,1.81337,0,0,1,.73535,1.14453l-.55029-.14942a2.15107,2.15107,0,0,1,.86523-1A2.52658,2.52658,0,0,1,129.88983,2.41016Z"/><path class="cls-1" d="M136.20037,7.9502a3.46044,3.46044,0,0,1-1.61523-.36036,2.64847,2.64847,0,0,1-1.07471-.98437,2.68889,2.68889,0,0,1-.38037-1.42578,2.73371,2.73371,0,0,1,.375-1.43457,2.66118,2.66118,0,0,1,1.02539-.98047,3.2121,3.2121,0,0,1,2.895-.01953,2.51326,2.51326,0,0,1,1.00488.96,2.88477,2.88477,0,0,1,.37012,1.49512c0,.05957-.00391.12793-.01025.20507-.00684.07618-.01319.14844-.02.21485h-4.37012V4.71h3.55029l-.60009.27051a1.49782,1.49782,0,0,0-.16993-.73047,1.2518,1.2518,0,0,0-.47021-.48535,1.36679,1.36679,0,0,0-.69971-.17481,1.3946,1.3946,0,0,0-.70508.17481,1.22449,1.22449,0,0,0-.47509.49023A1.54877,1.54877,0,0,0,134.66033,5v.24023a1.51046,1.51046,0,0,0,.19483.77442,1.27454,1.27454,0,0,0,.55029.51074,1.87216,1.87216,0,0,0,.835.17481,2.01866,2.01866,0,0,0,.75489-.12989,1.83633,1.83633,0,0,0,.59472-.39062l.83008.90039a2.42058,2.42058,0,0,1-.92969.64551A3.455,3.455,0,0,1,136.20037,7.9502Z"/><path class="cls-1" d="M143.11,2.41016a2.50436,2.50436,0,0,1,1.14453.25488,1.84835,1.84835,0,0,1,.79541.78027A2.766,2.766,0,0,1,145.34,4.79V7.87012H143.78V5.03027a1.38131,1.38131,0,0,0-.28515-.96,1.038,1.038,0,0,0-.80518-.31054,1.40644,1.40644,0,0,0-.665.15527,1.08177,1.08177,0,0,0-.46.47461,1.79084,1.79084,0,0,0-.165.82031V7.87012H139.84V2.49023h1.48975V3.98047l-.27979-.4502a1.98816,1.98816,0,0,1,.82959-.83007A2.55993,2.55993,0,0,1,143.11,2.41016Z"/><path class="cls-1" d="M146.11,3.81055V2.61035h3.73v1.2002Zm2.83985,4.13965a2.11251,2.11251,0,0,1-1.48-.48536,1.86029,1.86029,0,0,1-.52978-1.44433V1.2998h1.56006V6a.72345.72345,0,0,0,.17969.52539.653.653,0,0,0,.49023.18457A.99985.99985,0,0,0,149.8,6.50977l.41992,1.10058a1.71571,1.71571,0,0,1-.5747.25488A2.81879,2.81879,0,0,1,148.94989,7.9502Z"/><path class="cls-1" d="M79.68084,17.87012v-7h1.33985l2.98,4.94043h-.71l2.93017-4.94043H87.551l.02,7h-1.52l-.01025-4.66992H86.321l-2.34033,3.92968h-.73L80.86053,13.2002h.34033v4.66992Z"/><path class="cls-1" d="M90.78045,17.9502a2.49894,2.49894,0,0,1-1.08008-.21485,1.64829,1.64829,0,0,1-.68994-.585,1.58749,1.58749,0,0,1-.00488-1.66992,1.53736,1.53736,0,0,1,.74512-.56543A3.61609,3.61609,0,0,1,91.08074,14.71h1.42969v.91016H91.25067a1.171,1.171,0,0,0-.75489.17968.575.575,0,0,0-.20507.4502.56218.56218,0,0,0,.23486.47559,1.06162,1.06162,0,0,0,.645.1748,1.33561,1.33561,0,0,0,.70019-.18555,1.05727,1.05727,0,0,0,.44971-.54492l.24023.71973a1.39135,1.39135,0,0,1-.62011.79A2.22262,2.22262,0,0,1,90.78045,17.9502Zm1.64014-.08008V16.82031l-.1001-.23047V14.71a1.00862,1.00862,0,0,0-.30469-.78027,1.3471,1.3471,0,0,0-.93506-.2793,2.71749,2.71749,0,0,0-.84521.13477,2.23153,2.23153,0,0,0-.70508.36523l-.56006-1.08984a3.36884,3.36884,0,0,1,1.06006-.48047,4.74877,4.74877,0,0,1,1.26026-.16992,2.85432,2.85432,0,0,1,1.90966.58007,2.2501,2.2501,0,0,1,.68018,1.80957v3.07032Z"/><path class="cls-1" d="M98.56072,12.41016a2.50444,2.50444,0,0,1,1.14454.25488,1.84845,1.84845,0,0,1,.79541.78027,2.766,2.766,0,0,1,.29,1.34473v3.08008H99.23065V15.03027a1.38131,1.38131,0,0,0-.28516-.96,1.038,1.038,0,0,0-.80518-.31054,1.40637,1.40637,0,0,0-.665.15527,1.08184,1.08184,0,0,0-.46.47461,1.79084,1.79084,0,0,0-.165.82031v2.66016H95.29071V12.49023h1.48974v1.49024l-.27978-.4502a1.9881,1.9881,0,0,1,.82959-.83007A2.55992,2.55992,0,0,1,98.56072,12.41016Z"/><path class="cls-1" d="M104.47088,17.9502a2.66507,2.66507,0,0,1-1.19531-.25977,1.84365,1.84365,0,0,1-.81494-.79492,2.84894,2.84894,0,0,1-.29-1.36524v-3.04h1.56006V15.2998a1.43683,1.43683,0,0,0,.28515.98536,1.0296,1.0296,0,0,0,.80469.31543,1.297,1.297,0,0,0,.64014-.15528,1.06784,1.06784,0,0,0,.43994-.48047,1.839,1.839,0,0,0,.16015-.81445V12.49023h1.56006v5.37989h-1.48V16.38965l.27.43066a1.8446,1.8446,0,0,1-.79541.84473A2.3546,2.3546,0,0,1,104.47088,17.9502Z"/><path class="cls-1" d="M108.43035,13.81055v-1.2002h3.73v1.2002Zm.83008,4.05957v-5.5a1.97568,1.97568,0,0,1,.54-1.45508,2.07179,2.07179,0,0,1,1.54-.54492,2.99647,2.99647,0,0,1,.65479.07031,1.54413,1.54413,0,0,1,.53515.21973L112.1203,11.79a1.07764,1.07764,0,0,0-.29-.13965,1.13986,1.13986,0,0,0-.33985-.0498.68794.68794,0,0,0-.5249.19433.82052.82052,0,0,0-.18506.585v.5l.04.66992v4.32032Z"/><path class="cls-1" d="M114.50018,17.9502a2.49891,2.49891,0,0,1-1.08008-.21485,1.64823,1.64823,0,0,1-.68994-.585,1.58744,1.58744,0,0,1-.00488-1.66992,1.53733,1.53733,0,0,1,.74511-.56543,3.61618,3.61618,0,0,1,1.33008-.20508h1.42969v.91016h-1.25977a1.17092,1.17092,0,0,0-.75488.17968.575.575,0,0,0-.20508.4502.56219.56219,0,0,0,.23487.47559,1.06159,1.06159,0,0,0,.645.1748,1.33562,1.33562,0,0,0,.7002-.18555,1.05732,1.05732,0,0,0,.44971-.54492l.24023.71973a1.39137,1.39137,0,0,1-.62012.79A2.22256,2.22256,0,0,1,114.50018,17.9502Zm1.64013-.08008V16.82031l-.10009-.23047V14.71a1.00865,1.00865,0,0,0-.30469-.78027,1.34711,1.34711,0,0,0-.93506-.2793,2.71739,2.71739,0,0,0-.84521.13477,2.23153,2.23153,0,0,0-.70508.36523l-.56006-1.08984a3.36874,3.36874,0,0,1,1.06006-.48047,4.74864,4.74864,0,0,1,1.26025-.16992,2.85435,2.85435,0,0,1,1.90967.58007,2.25013,2.25013,0,0,1,.68018,1.80957v3.07032Z"/><path class="cls-1" d="M121.65008,17.9502a3.29194,3.29194,0,0,1-1.5498-.35547,2.65892,2.65892,0,0,1-1.06495-.98438,2.71205,2.71205,0,0,1,1.06495-3.8457,3.30321,3.30321,0,0,1,1.5498-.35449,2.96776,2.96776,0,0,1,1.48.35449,2.16653,2.16653,0,0,1,.93018,1.01562l-1.21.64942a1.40735,1.40735,0,0,0-.52491-.55957,1.35593,1.35593,0,0,0-.68506-.17969,1.44257,1.44257,0,0,0-.72021.17969,1.30616,1.30616,0,0,0-.50488.50976,1.823,1.823,0,0,0,0,1.60059,1.3061,1.3061,0,0,0,.50488.50976,1.44257,1.44257,0,0,0,.72021.17969,1.382,1.382,0,0,0,.68506-.1748,1.35109,1.35109,0,0,0,.52491-.56543l1.21.66015a2.16974,2.16974,0,0,1-.93018,1.00489A2.95788,2.95788,0,0,1,121.65008,17.9502Z"/><path class="cls-1" d="M124.40008,13.81055v-1.2002h3.73v1.2002Zm2.83984,4.13965a2.1125,2.1125,0,0,1-1.48-.48536,1.86029,1.86029,0,0,1-.52978-1.44433V11.2998h1.56006V16a.72349.72349,0,0,0,.17968.52539.65306.65306,0,0,0,.49024.18457.99985.99985,0,0,0,.62988-.20019l.41992,1.10058a1.71571,1.71571,0,0,1-.5747.25488A2.81881,2.81881,0,0,1,127.23992,17.9502Z"/><path class="cls-1" d="M131.66033,17.9502a2.6651,2.6651,0,0,1-1.19531-.25977,1.84365,1.84365,0,0,1-.81494-.79492,2.84894,2.84894,0,0,1-.29-1.36524v-3.04h1.56006V15.2998a1.43678,1.43678,0,0,0,.28516.98536,1.02958,1.02958,0,0,0,.80468.31543,1.29691,1.29691,0,0,0,.64014-.15528,1.06778,1.06778,0,0,0,.43994-.48047,1.83883,1.83883,0,0,0,.16016-.81445V12.49023h1.56006v5.37989h-1.48V16.38965l.27.43066a1.8447,1.8447,0,0,1-.79541.84473A2.35463,2.35463,0,0,1,131.66033,17.9502Z"/><path class="cls-1" d="M136.26043,17.87012V12.49023h1.48975v1.51954l-.21-.43946a1.7279,1.7279,0,0,1,.77-.86523,2.62029,2.62029,0,0,1,1.29-.29492v1.44043c-.0669-.00684-.127-.01172-.18018-.01563-.05322-.00293-.10986-.00488-.16992-.00488a1.32647,1.32647,0,0,0-1.43018,1.5v2.54Z"/><path class="cls-1" d="M143.15057,17.9502a3.46048,3.46048,0,0,1-1.61524-.36036,2.64851,2.64851,0,0,1-1.0747-.98437,2.68889,2.68889,0,0,1-.38037-1.42578,2.73371,2.73371,0,0,1,.375-1.43457,2.66111,2.66111,0,0,1,1.02539-.98047,3.2121,3.2121,0,0,1,2.895-.01953,2.51326,2.51326,0,0,1,1.00488.96,2.88486,2.88486,0,0,1,.37012,1.49512c0,.05957-.00391.12793-.01026.20507-.00683.07618-.01318.14844-.02.21485h-4.37011V14.71h3.55029l-.6001.27051a1.49792,1.49792,0,0,0-.16992-.73047,1.25176,1.25176,0,0,0-.47022-.48535,1.36673,1.36673,0,0,0-.6997-.17481,1.39457,1.39457,0,0,0-.70508.17481,1.22451,1.22451,0,0,0-.4751.49023A1.54888,1.54888,0,0,0,141.61053,15v.24023a1.51046,1.51046,0,0,0,.19482.77442,1.27456,1.27456,0,0,0,.5503.51074,1.87213,1.87213,0,0,0,.835.17481,2.01861,2.01861,0,0,0,.75488-.12989,1.83627,1.83627,0,0,0,.59473-.39062l.83008.90039a2.42073,2.42073,0,0,1-.92969.64551A3.455,3.455,0,0,1,143.15057,17.9502Z"/><path class="cls-1" d="M146.79022,17.87012V12.49023H148.28v1.51954l-.21-.43946a1.728,1.728,0,0,1,.77-.86523,2.62031,2.62031,0,0,1,1.29-.29492v1.44043c-.06689-.00684-.12695-.01172-.18017-.01563-.05323-.00293-.10987-.00488-.16993-.00488a1.32647,1.32647,0,0,0-1.43017,1.5v2.54Z"/></g></g></svg>