<?xml version="1.0" encoding="utf-8"?>
<!-- Generator: Adobe Illustrator 24.1.3, SVG Export Plug-In . SVG Version: 6.00 Build 0)  -->
<svg version="1.1" id="Layer_1" xmlns="http://www.w3.org/2000/svg" xmlns:xlink="http://www.w3.org/1999/xlink" x="0px" y="0px"
	 viewBox="0 0 640 379" style="enable-background:new 0 0 640 379;" xml:space="preserve">
<style type="text/css">
	.st0{fill:#045789;}
	.st1{clip-path:url(#SVGID_2_);}
	.st2{fill-rule:evenodd;clip-rule:evenodd;fill:#FFC856;}
	.st3{fill-rule:evenodd;clip-rule:evenodd;fill:#F3B339;}
	.st4{fill-rule:evenodd;clip-rule:evenodd;fill:#FFFFFF;}
	.st5{fill:none;stroke:#24282A;stroke-width:0.216;stroke-miterlimit:2.6131;}
	.st6{fill-rule:evenodd;clip-rule:evenodd;fill:#24282A;}
	.st7{fill-rule:evenodd;clip-rule:evenodd;fill:#E1DFE0;}
	.st8{fill-rule:evenodd;clip-rule:evenodd;fill:#F2F3F2;}
	.st9{fill-rule:evenodd;clip-rule:evenodd;fill:#B02927;}
	.st10{fill-rule:evenodd;clip-rule:evenodd;fill:#E2426C;}
	.st11{fill-rule:evenodd;clip-rule:evenodd;fill:#A0CCDF;}
	.st12{fill-rule:evenodd;clip-rule:evenodd;fill:#E1F2FC;}
	.st13{fill-rule:evenodd;clip-rule:evenodd;fill:#931A1D;}
	.st14{fill-rule:evenodd;clip-rule:evenodd;fill:#1F4E84;}
	.st15{fill-rule:evenodd;clip-rule:evenodd;fill:#EF426A;}
	.st16{fill-rule:evenodd;clip-rule:evenodd;fill:#2D5875;}
	.st17{fill-rule:evenodd;clip-rule:evenodd;fill:#D0D2D3;}
	.st18{fill-rule:evenodd;clip-rule:evenodd;fill:#231F20;}
</style>
<rect class="st0" width="640" height="379"/>
<g>
	<g>
		<g>
			<defs>
				<rect id="SVGID_1_" y="0" width="640" height="379"/>
			</defs>
			<clipPath id="SVGID_2_">
				<use xlink:href="#SVGID_1_"  style="overflow:visible;"/>
			</clipPath>
			<g class="st1">
				<path class="st2" d="M-61.7,303.6h264.8L80.6,218.7c-7.2-4.3-14.6-5.3-22.2,0L-61.7,303.6z"/>
				<path class="st3" d="M128.9,303.6h74.2L80.6,218.7c-7.2-4.3-14.6-5.3-22.2,0L128.9,303.6z"/>
				<rect x="-458.4" y="289.8" class="st4" width="655.7" height="2"/>
				<rect x="-458.4" y="289.8" class="st5" width="655.7" height="2"/>
				<rect x="-458.7" y="296.7" class="st6" width="655.7" height="2"/>
				<rect x="10.3" y="291.9" class="st6" width="2.2" height="11.7"/>
				<rect x="25.5" y="291.9" class="st6" width="2.2" height="11.7"/>
				<rect x="40.7" y="291.9" class="st6" width="2.2" height="11.7"/>
				<rect x="55.9" y="291.9" class="st6" width="2.2" height="11.7"/>
				<rect x="71" y="291.9" class="st6" width="2.2" height="11.7"/>
				<rect x="86.2" y="291.9" class="st6" width="2.2" height="11.7"/>
				<rect x="101.4" y="291.9" class="st6" width="2.2" height="11.7"/>
				<rect x="116.6" y="291.9" class="st6" width="2.2" height="11.7"/>
				<rect x="131.7" y="291.9" class="st6" width="2.2" height="11.7"/>
				<rect x="146.9" y="291.9" class="st6" width="2.2" height="11.7"/>
				<rect x="162.1" y="291.9" class="st6" width="2.2" height="11.7"/>
				<path class="st7" d="M538.1,294.6v28.7H434.8v-7.4C485.8,316.6,517.8,308.3,538.1,294.6"/>
				<path class="st7" d="M500.3,262.5v9h-46.1v-2.3C476.9,269.4,491.2,266.8,500.3,262.5"/>
				<path class="st7" d="M360.4,305.3v9h-46.1V312C337,312.2,351.3,309.6,360.4,305.3"/>
				<path class="st8" d="M434.8,277.4h103.3v17.2c-20.3,13.7-52.3,22-103.3,21.3V277.4z"/>
				<path class="st8" d="M454.2,257.2h46.1v5.4c-9,4.3-23.3,6.9-46.1,6.7V257.2z"/>
				<path class="st8" d="M314.3,299.9h46.1v5.4c-9,4.3-23.3,6.9-46.1,6.7V299.9z"/>
				<path class="st9" d="M434.5,277.4h103.1c1.6,0,2.9-1.3,2.9-2.9l0,0c0-1.6-1.3-2.9-2.9-2.9H434.5c-1.6,0-2.9,1.3-2.9,2.9l0,0
					C431.6,276.1,432.9,277.4,434.5,277.4"/>
				<path class="st9" d="M452.5,257.2h48.7c1.2,0,2.3-1,2.3-2.3c0-1.2-1-2.3-2.3-2.3h-48.7c-1.3,0-2.3,1-2.3,2.3
					C450.2,256.1,451.3,257.2,452.5,257.2"/>
				<path class="st9" d="M312.6,299.9h48.7c1.3,0,2.3-1,2.3-2.3c0-1.2-1-2.3-2.3-2.3h-48.7c-1.2,0-2.3,1-2.3,2.3
					C310.3,298.9,311.3,299.9,312.6,299.9"/>
				<rect x="470.7" y="230" class="st10" width="1" height="22.6"/>
				<rect x="330.8" y="272.8" class="st10" width="1" height="22.6"/>
				<rect x="465.9" y="233.9" class="st10" width="10.9" height="0.9"/>
				<rect x="326" y="276.7" class="st10" width="10.9" height="0.9"/>
				<rect x="464.9" y="237.2" class="st10" width="12.6" height="0.9"/>
				<rect x="325" y="279.9" class="st10" width="12.6" height="0.9"/>
				<rect x="463.3" y="240.2" class="st10" width="15.8" height="0.9"/>
				<rect x="323.4" y="282.9" class="st10" width="15.8" height="0.9"/>
				<rect x="481.8" y="237.2" class="st10" width="2.3" height="15.4"/>
				<rect x="341.9" y="280" class="st10" width="2.3" height="15.4"/>
				<path class="st11" d="M471.2,285.2h-22.1c-2.1,0-3.8,1.7-3.8,3.8v9.2c0,2.1,1.7,3.8,3.8,3.8h22.1c2.1,0,3.8-1.7,3.8-3.8V289
					C475,286.9,473.3,285.2,471.2,285.2"/>
				<path class="st12" d="M453.1,302h2.6l17.9-15.9c-0.5-0.4-1-0.7-1.7-0.8L453.1,302z"/>
				<path class="st12" d="M470.5,285.2h-8.1L445.7,300c0.6,1.2,1.9,2,3.4,2h2.5L470.5,285.2z"/>
				<path class="st13" d="M570.8,310.9h-3c-5.8,12.8-23,21.9-53.6,26.8H309.3c2.3,6.4,6.4,11.9,13.7,15.8h227.7
					C562.5,350.4,577.1,315.5,570.8,310.9"/>
				<path class="st4" d="M567.8,310.9h-62c-9.6,5-20,8.2-31.4,9.6H369.1l-16.4-14.1H311c-1.8,0-3.2,1.4-3.2,3.2v22.7
					c0.4,1.9,0.9,3.7,1.5,5.4h204.9C544.8,332.8,562,323.6,567.8,310.9"/>
				<path class="st14" d="M571.4,301.8H505c-0.4,0-0.7,0.3-0.7,0.7s0.3,0.7,0.7,0.7h66.4c0.4,0,0.7-0.3,0.7-0.7
					S571.9,301.8,571.4,301.8"/>
				<rect x="566.8" y="303.2" class="st14" width="1.9" height="7.6"/>
				<rect x="558.3" y="303.2" class="st14" width="1.9" height="7.6"/>
				<rect x="549.8" y="303.2" class="st14" width="1.9" height="7.6"/>
				<rect x="541.3" y="303.2" class="st14" width="1.9" height="7.6"/>
				<rect x="532.7" y="303.2" class="st14" width="1.9" height="7.6"/>
				<rect x="524.2" y="303.2" class="st14" width="1.9" height="7.6"/>
				<rect x="515.7" y="303.2" class="st14" width="1.9" height="7.6"/>
				<rect x="507.2" y="303.2" class="st14" width="1.9" height="7.6"/>
				<path class="st15" d="M478.3,332.1c-2.4,0-4.4,2-4.4,4.4s2,4.4,4.4,4.4s4.4-2,4.4-4.4C482.6,334,480.7,332.1,478.3,332.1
					 M478.3,329.1c-4,0-7.3,3.3-7.3,7.3s3.3,7.3,7.3,7.3s7.3-3.3,7.3-7.3C485.6,332.4,482.3,329.1,478.3,329.1z"/>
				<path class="st15" d="M453.9,332.1c-2.4,0-4.4,2-4.4,4.4s2,4.4,4.4,4.4s4.4-2,4.4-4.4C458.3,334,456.3,332.1,453.9,332.1
					 M453.9,329.1c-4,0-7.3,3.3-7.3,7.3s3.3,7.3,7.3,7.3s7.3-3.3,7.3-7.3C461.2,332.4,457.9,329.1,453.9,329.1z"/>
				<path class="st15" d="M426.6,332.1c-2.4,0-4.4,2-4.4,4.4s2,4.4,4.4,4.4s4.4-2,4.4-4.4C431,334,429,332.1,426.6,332.1
					 M426.6,329.1c-4,0-7.3,3.3-7.3,7.3s3.3,7.3,7.3,7.3s7.3-3.3,7.3-7.3S430.6,329.1,426.6,329.1z"/>
				<path class="st15" d="M402.2,332.1c-2.4,0-4.4,2-4.4,4.4s2,4.4,4.4,4.4s4.4-2,4.4-4.4C406.6,334,404.6,332.1,402.2,332.1
					 M402.2,329.1c-4,0-7.3,3.3-7.3,7.3s3.3,7.3,7.3,7.3s7.3-3.3,7.3-7.3S406.3,329.1,402.2,329.1z"/>
				<path class="st16" d="M497.1,314.8l-0.9,0.4c-0.8,17.5-6.4,23.6-17.2,16.9c-8.7,7.4-16.8,7.8-24.3,0c-11.1,6.4-20.9,8.7-27.1,0
					c-11.3,3.8-20.5,4.4-25.7-1.6c-15.8,6.1-25.2-0.6-25.9-10.1h-1.3c0.4,10.7,11.1,17.3,26.9,11.6c4.7,5.7,13.8,5.6,25.9,1.6
					c5.7,7.8,15.4,6.2,27-0.1c9.1,8.1,17,6.6,24.2-0.3C491.2,339.8,497.1,332.2,497.1,314.8"/>
				<path class="st4" d="M-500.9,285.7h39.2l14.4,17.9h633.1l13.1-17.9H294c-6.9,32.8-19.6,61.2-61.3,67.9h-641.5l-92-12.4v-55.5
					H-500.9z"/>
				<path class="st13" d="M277.9,327.4c-9.3,13-23.2,22.6-45.2,26.1h-641.5l-92-12.4v-13.7H277.9z"/>
				<rect x="255.5" y="312.3" class="st17" width="10.1" height="10.8"/>
				<rect x="259.1" y="314.7" class="st18" width="3" height="11.6"/>
				<path class="st18" d="M264.3,324.7c0.1,0.2,0.1,0.4,0.1,0.6c0,1.2-1.7,2.2-3.9,2.2c-2.2,0-3.9-1-3.9-2.2c0-0.2,0-0.4,0.1-0.6
					c0.5,0.9,2,1.6,3.8,1.6C262.4,326.3,263.9,325.6,264.3,324.7"/>
				<rect x="217.8" y="291.9" class="st4" width="11.6" height="3.1"/>
				<rect x="232.2" y="291.1" class="st4" width="35.6" height="4.6"/>
				<rect x="177.3" y="291.9" class="st6" width="2.2" height="11.7"/>
			</g>
		</g>
	</g>
</g>
</svg>
