<?xml version="1.0" encoding="utf-8"?>
<!-- Generator: Adobe Illustrator 24.1.3, SVG Export Plug-In . SVG Version: 6.00 Build 0)  -->
<svg version="1.1" id="Layer_1" xmlns="http://www.w3.org/2000/svg" xmlns:xlink="http://www.w3.org/1999/xlink" x="0px" y="0px"
	 viewBox="0 0 310 379" style="enable-background:new 0 0 310 379;" xml:space="preserve">
<style type="text/css">
	.st0{fill:#045789;}
	.st1{clip-path:url(#SVGID_2_);}
	.st2{fill-rule:evenodd;clip-rule:evenodd;fill:#506081;}
	.st3{fill-rule:evenodd;clip-rule:evenodd;fill:#929497;}
	.st4{fill-rule:evenodd;clip-rule:evenodd;fill:#931A1D;}
	.st5{fill-rule:evenodd;clip-rule:evenodd;fill:#C1AEAF;}
</style>
<rect class="st0" width="311" height="380.8"/>
<g>
	<g>
		<defs>
			<rect id="SVGID_1_" y="0" width="310" height="379"/>
		</defs>
		<clipPath id="SVGID_2_">
			<use xlink:href="#SVGID_1_"  style="overflow:visible;"/>
		</clipPath>
		<g class="st1">
			<rect x="180.5" y="267.6" class="st2" width="5.8" height="17.6"/>
			<polygon class="st2" points="200.6,260.5 199.6,260.5 197.8,285.1 200.6,285.1 			"/>
			<polygon class="st2" points="209.9,223.5 207.8,223.5 206,283.7 209.9,283.7 			"/>
			<polygon class="st2" points="246.5,290.2 132.5,290.2 144.4,278.3 153.7,278.3 153.7,285.1 246.5,285.1 			"/>
			<rect x="264.4" y="272.1" class="st3" width="1.7" height="18.1"/>
			<rect x="248.9" y="272.1" class="st3" width="1.7" height="18.1"/>
			<rect x="233.4" y="272.1" class="st3" width="1.7" height="18.1"/>
			<rect x="217.9" y="272.1" class="st3" width="1.7" height="18.1"/>
			<rect x="202.4" y="272.1" class="st3" width="1.7" height="18.1"/>
			<rect x="186.9" y="272.1" class="st3" width="1.7" height="18.1"/>
			<rect x="171.5" y="272.1" class="st3" width="1.7" height="18.1"/>
			<rect x="156" y="272.1" class="st3" width="1.7" height="18.1"/>
			<rect x="140.5" y="272.1" class="st3" width="1.7" height="18.1"/>
			<rect x="125" y="272.1" class="st3" width="1.7" height="18.1"/>
			<rect x="109.5" y="272.1" class="st3" width="1.7" height="18.1"/>
			<rect x="94.1" y="272.1" class="st3" width="1.7" height="18.1"/>
			<rect x="78.6" y="272.1" class="st3" width="1.7" height="18.1"/>
			<rect x="63.1" y="272.1" class="st3" width="1.7" height="18.1"/>
			<rect x="47.6" y="272.1" class="st3" width="1.7" height="18.1"/>
			<rect x="32.1" y="272.1" class="st3" width="1.7" height="18.1"/>
			<rect x="32.1" y="275" class="st3" width="233.9" height="1.5"/>
			<rect x="32.1" y="283.7" class="st3" width="233.9" height="1.5"/>
			<polygon class="st4" points="271.4,290.2 25.6,290.2 9.5,307.5 -328.8,307.5 -345.4,290.2 -416,290.2 -416,329.3 -391.4,353.8 
				207.5,353.8 271.4,303.4 			"/>
			<polygon class="st5" points="117.3,301.7 27.7,301.7 17.6,312.6 17.6,327 99,327 			"/>
			<rect x="-29.8" y="312.4" class="st5" width="40.3" height="14.3"/>
		</g>
	</g>
</g>
</svg>
