<?xml version="1.0" encoding="utf-8"?>
<!-- Generator: Adobe Illustrator 24.1.3, SVG Export Plug-In . SVG Version: 6.00 Build 0)  -->
<svg version="1.1" id="Layer_1" xmlns="http://www.w3.org/2000/svg" xmlns:xlink="http://www.w3.org/1999/xlink" x="0px" y="0px"
	 viewBox="0 0 310 180" style="enable-background:new 0 0 310 180;" xml:space="preserve">
<style type="text/css">
	.st0{fill:#045789;}
	.st1{clip-path:url(#SVGID_2_);}
	.st2{fill-rule:evenodd;clip-rule:evenodd;fill:#931A1D;}
	.st3{fill-rule:evenodd;clip-rule:evenodd;fill:#EB7F2B;}
	.st4{fill-rule:evenodd;clip-rule:evenodd;fill:#AFADB8;}
	.st5{fill-rule:evenodd;clip-rule:evenodd;fill:#313131;}
	.st6{fill-rule:evenodd;clip-rule:evenodd;}
</style>
<rect y="0" class="st0" width="311" height="180.8"/>
<g>
	<g>
		<g>
			<g>
				<defs>
					<rect id="SVGID_1_" y="0" width="310" height="180"/>
				</defs>
				<clipPath id="SVGID_2_">
					<use xlink:href="#SVGID_1_"  style="overflow:visible;"/>
				</clipPath>
				<g class="st1">
					<path class="st2" d="M258.9,130.7c0.5,1.6,1.8,2.8,3.9,3.7c18.4,1.2,12.7,26.9-3.9,28.6h-458.7c-4.8-0.8-4.6-7.7-0.2-8.5
						c6.6,0,1.4-11.2-7.3-12.7c-11-1.7-20.2-4-20.1-9v-2.1H258.9z"/>
					<polygon class="st3" points="238.7,102.4 253,102.4 251.8,97.6 240.4,97.6 					"/>
					<path class="st3" d="M218.7,112H66.8h-0.7c-0.7,0-1.2,0.6-1.2,1.2v2.6h1.9v-1.5h151.9L218.7,112L218.7,112z"/>
					<path class="st3" d="M-143.8,112H57.9h0.7c0.7,0,1.2,0.6,1.2,1.2v2.6h-1.9v-1.5h-201.7h-1.5c-0.8,0-1.5-0.7-1.5-1.5v-2h2.7v1.2
						L-143.8,112z"/>
					<rect x="60.7" y="111.9" class="st3" width="0.8" height="3.8"/>
					<rect x="61.9" y="111.9" class="st3" width="0.8" height="3.8"/>
					<rect x="63.1" y="111.9" class="st3" width="0.8" height="3.8"/>
					<rect x="17.7" y="112" class="st4" width="4.4" height="3.7"/>
					<rect x="47.6" y="112" class="st4" width="4.4" height="3.7"/>
					<rect x="77.6" y="112" class="st4" width="4.4" height="3.7"/>
					<rect x="107.5" y="112" class="st4" width="4.4" height="3.7"/>
					<rect x="137.4" y="112.1" class="st4" width="4.4" height="3.7"/>
					<rect x="167.4" y="112.1" class="st4" width="4.4" height="3.7"/>
					<rect x="197.3" y="112.1" class="st4" width="4.4" height="3.7"/>
					<rect x="47.6" y="110.9" class="st5" width="4.4" height="1.1"/>
					<rect x="-177.2" y="108.8" class="st4" width="398.4" height="2"/>
					<rect x="-16.5" y="106.3" class="st4" width="31.4" height="0.5"/>
					<rect x="15.6" y="106.3" class="st4" width="31.4" height="0.5"/>
					<rect x="47.7" y="106.3" class="st4" width="31.4" height="0.5"/>
					<rect x="79.7" y="106.3" class="st4" width="31.4" height="0.5"/>
					<rect x="111.8" y="106.3" class="st4" width="31.4" height="0.5"/>
					<rect x="143.9" y="106.3" class="st4" width="31.4" height="0.5"/>
					<rect x="176" y="106.3" class="st4" width="31.4" height="0.5"/>
					<rect x="208" y="106.3" class="st4" width="31.4" height="0.5"/>
					<rect x="-16.5" y="107.5" class="st4" width="31.4" height="0.5"/>
					<rect x="15.6" y="107.5" class="st4" width="31.4" height="0.5"/>
					<rect x="47.7" y="107.5" class="st4" width="31.4" height="0.5"/>
					<rect x="79.7" y="107.5" class="st4" width="31.4" height="0.5"/>
					<rect x="111.8" y="107.5" class="st4" width="31.4" height="0.5"/>
					<rect x="143.9" y="107.5" class="st4" width="31.4" height="0.5"/>
					<rect x="176" y="107.5" class="st4" width="31.4" height="0.5"/>
					<rect x="208" y="107.5" class="st4" width="31.4" height="0.5"/>
					<rect x="15.6" y="106.3" class="st4" width="0.3" height="2.6"/>
					<rect x="47.7" y="106.3" class="st4" width="0.3" height="2.6"/>
					<rect x="79.7" y="106.3" class="st4" width="0.3" height="2.6"/>
					<rect x="111.8" y="106.3" class="st4" width="0.3" height="2.6"/>
					<rect x="143.9" y="106.3" class="st4" width="0.3" height="2.6"/>
					<rect x="176" y="106.3" class="st4" width="0.3" height="2.6"/>
					<rect x="208" y="106.3" class="st4" width="0.3" height="2.6"/>
					<rect x="18.7" y="106.3" class="st4" width="0.3" height="2.6"/>
					<rect x="50.8" y="106.3" class="st4" width="0.3" height="2.6"/>
					<rect x="82.9" y="106.3" class="st4" width="0.3" height="2.6"/>
					<rect x="114.9" y="106.3" class="st4" width="0.3" height="2.6"/>
					<rect x="147" y="106.3" class="st4" width="0.3" height="2.6"/>
					<rect x="179.1" y="106.3" class="st4" width="0.3" height="2.6"/>
					<rect x="211.2" y="106.3" class="st4" width="0.3" height="2.6"/>
					<rect x="21.8" y="106.3" class="st4" width="0.3" height="2.6"/>
					<rect x="53.9" y="106.3" class="st4" width="0.3" height="2.6"/>
					<rect x="86" y="106.3" class="st4" width="0.3" height="2.6"/>
					<rect x="118" y="106.3" class="st4" width="0.3" height="2.6"/>
					<rect x="150.1" y="106.3" class="st4" width="0.3" height="2.6"/>
					<rect x="182.2" y="106.3" class="st4" width="0.3" height="2.6"/>
					<rect x="214.3" y="106.3" class="st4" width="0.3" height="2.6"/>
					<rect x="24.9" y="106.3" class="st4" width="0.3" height="2.6"/>
					<rect x="57" y="106.3" class="st4" width="0.3" height="2.6"/>
					<rect x="89.1" y="106.3" class="st4" width="0.3" height="2.6"/>
					<rect x="121.2" y="106.3" class="st4" width="0.3" height="2.6"/>
					<rect x="153.2" y="106.3" class="st4" width="0.3" height="2.6"/>
					<rect x="185.3" y="106.3" class="st4" width="0.3" height="2.6"/>
					<rect x="217.4" y="106.3" class="st4" width="0.3" height="2.6"/>
					<rect x="28" y="106.3" class="st4" width="0.3" height="2.6"/>
					<rect x="60.1" y="106.3" class="st4" width="0.3" height="2.6"/>
					<rect x="92.2" y="106.3" class="st4" width="0.3" height="2.6"/>
					<rect x="124.3" y="106.3" class="st4" width="0.3" height="2.6"/>
					<rect x="156.3" y="106.3" class="st4" width="0.3" height="2.6"/>
					<rect x="188.4" y="106.3" class="st4" width="0.3" height="2.6"/>
					<rect x="220.5" y="106.3" class="st4" width="0.3" height="2.6"/>
					<rect x="31.2" y="106.3" class="st4" width="0.3" height="2.6"/>
					<rect x="63.2" y="106.3" class="st4" width="0.3" height="2.6"/>
					<rect x="95.3" y="106.3" class="st4" width="0.3" height="2.6"/>
					<rect x="127.4" y="106.3" class="st4" width="0.3" height="2.6"/>
					<rect x="159.5" y="106.3" class="st4" width="0.3" height="2.6"/>
					<rect x="191.5" y="106.3" class="st4" width="0.3" height="2.6"/>
					<rect x="223.6" y="106.3" class="st4" width="0.3" height="2.6"/>
					<rect x="2.2" y="106.3" class="st4" width="0.3" height="2.6"/>
					<rect x="34.3" y="106.3" class="st4" width="0.3" height="2.6"/>
					<rect x="66.3" y="106.3" class="st4" width="0.3" height="2.6"/>
					<rect x="98.4" y="106.3" class="st4" width="0.3" height="2.6"/>
					<rect x="130.5" y="106.3" class="st4" width="0.3" height="2.6"/>
					<rect x="162.6" y="106.3" class="st4" width="0.3" height="2.6"/>
					<rect x="194.7" y="106.3" class="st4" width="0.3" height="2.6"/>
					<rect x="226.7" y="106.3" class="st4" width="0.3" height="2.6"/>
					<rect x="5.3" y="106.3" class="st4" width="0.3" height="2.6"/>
					<rect x="37.4" y="106.3" class="st4" width="0.3" height="2.6"/>
					<rect x="69.5" y="106.3" class="st4" width="0.3" height="2.6"/>
					<rect x="101.5" y="106.3" class="st4" width="0.3" height="2.6"/>
					<rect x="133.6" y="106.3" class="st4" width="0.3" height="2.6"/>
					<rect x="165.7" y="106.3" class="st4" width="0.3" height="2.6"/>
					<rect x="197.8" y="106.3" class="st4" width="0.3" height="2.6"/>
					<rect x="229.8" y="106.3" class="st4" width="0.3" height="2.6"/>
					<rect x="8.4" y="106.3" class="st4" width="0.3" height="2.6"/>
					<rect x="40.5" y="106.3" class="st4" width="0.3" height="2.6"/>
					<rect x="72.6" y="106.3" class="st4" width="0.3" height="2.6"/>
					<rect x="104.7" y="106.3" class="st4" width="0.3" height="2.6"/>
					<rect x="136.7" y="106.3" class="st4" width="0.3" height="2.6"/>
					<rect x="168.8" y="106.3" class="st4" width="0.3" height="2.6"/>
					<rect x="200.9" y="106.3" class="st4" width="0.3" height="2.6"/>
					<rect x="233" y="106.3" class="st4" width="0.3" height="2.6"/>
					<rect x="11.5" y="106.3" class="st4" width="0.3" height="2.6"/>
					<rect x="43.6" y="106.3" class="st4" width="0.3" height="2.6"/>
					<rect x="75.7" y="106.3" class="st4" width="0.3" height="2.6"/>
					<rect x="107.8" y="106.3" class="st4" width="0.3" height="2.6"/>
					<rect x="139.8" y="106.3" class="st4" width="0.3" height="2.6"/>
					<rect x="171.9" y="106.3" class="st4" width="0.3" height="2.6"/>
					<rect x="204" y="106.3" class="st4" width="0.3" height="2.6"/>
					<rect x="236.1" y="106.3" class="st3" width="0.3" height="2.6"/>
					<rect x="14.7" y="106.3" class="st4" width="0.3" height="2.6"/>
					<rect x="46.7" y="106.3" class="st4" width="0.3" height="2.6"/>
					<rect x="78.8" y="106.3" class="st4" width="0.3" height="2.6"/>
					<rect x="110.9" y="106.3" class="st4" width="0.3" height="2.6"/>
					<rect x="143" y="106.3" class="st4" width="0.3" height="2.6"/>
					<rect x="175" y="106.3" class="st4" width="0.3" height="2.6"/>
					<rect x="207.1" y="106.3" class="st4" width="0.3" height="2.6"/>
					<rect x="239.2" y="106.3" class="st3" width="0.3" height="2.6"/>
					<path class="st6" d="M257,103.4h1.9v1.1H257V103.4z M244.3,103.5H256v1h-11.7V103.5z M-227.4,112.6h69.8l4,3.1l367.9,0.1
						l9.7-13.4h48.3c1.7,0.8-8.3,15.3-12.5,23c-1.1,2.2-1.4,3.9-1,5.3h-486.3v-18.1H-227.4z"/>
					<path class="st3" d="M245.9,96.2c2.7,0,4.9,2.2,4.9,4.9c0,0.5-0.1,0.9-0.2,1.3h-9.4c-0.1-0.4-0.2-0.9-0.2-1.3
						C241,98.4,243.2,96.2,245.9,96.2"/>
					<path class="st3" d="M245.9,95.3c3.2,0,5.8,2.6,5.8,5.8c0,0.5-0.1,0.9-0.2,1.3h-11.3c-0.1-0.4-0.2-0.9-0.2-1.3
						C240.1,97.9,242.7,95.3,245.9,95.3"/>
					<path class="st3" d="M245.9,98.9c1.2,0,2.2,1,2.2,2.2c0,0.5-0.2,0.9-0.4,1.3h-3.5c-0.3-0.4-0.4-0.8-0.4-1.3
						C243.7,99.9,244.7,98.9,245.9,98.9"/>
				</g>
			</g>
		</g>
	</g>
</g>
</svg>
