<?xml version="1.0" encoding="utf-8"?>
<!-- Generator: Adobe Illustrator 24.1.3, SVG Export Plug-In . SVG Version: 6.00 Build 0)  -->
<svg version="1.1" id="Layer_1" xmlns="http://www.w3.org/2000/svg" xmlns:xlink="http://www.w3.org/1999/xlink" x="0px" y="0px"
	 viewBox="0 0 640 379" style="enable-background:new 0 0 640 379;" xml:space="preserve">
<style type="text/css">
	.st0{fill:#045789;}
	.st1{clip-path:url(#SVGID_2_);}
	.st2{fill-rule:evenodd;clip-rule:evenodd;fill:#931A1D;}
	.st3{fill-rule:evenodd;clip-rule:evenodd;fill:#010101;}
	.st4{fill-rule:evenodd;clip-rule:evenodd;fill:#FFFFFF;}
	.st5{fill-rule:evenodd;clip-rule:evenodd;}
	.st6{fill-rule:evenodd;clip-rule:evenodd;fill:#746E6E;}
	.st7{fill-rule:evenodd;clip-rule:evenodd;fill:#645C5A;}
	.st8{fill-rule:evenodd;clip-rule:evenodd;fill:#2C7CC0;}
	.st9{fill-rule:evenodd;clip-rule:evenodd;fill:#E5E5E5;}
	.st10{fill-rule:evenodd;clip-rule:evenodd;fill:#1A3460;}
	.st11{fill-rule:evenodd;clip-rule:evenodd;fill:#343233;}
	.st12{fill-rule:evenodd;clip-rule:evenodd;fill:#505B33;}
	.st13{fill-rule:evenodd;clip-rule:evenodd;fill:#293333;}
	.st14{fill-rule:evenodd;clip-rule:evenodd;fill:#5E6B61;}
	.st15{fill-rule:evenodd;clip-rule:evenodd;fill:#524720;}
	.st16{fill-rule:evenodd;clip-rule:evenodd;fill:#F5C023;}
	.st17{fill-rule:evenodd;clip-rule:evenodd;fill:#1D3766;}
	.st18{fill-rule:evenodd;clip-rule:evenodd;fill:#082033;}
	.st19{fill-rule:evenodd;clip-rule:evenodd;fill:#133155;}
	.st20{fill-rule:evenodd;clip-rule:evenodd;fill:#3484C6;}
	.st21{fill-rule:evenodd;clip-rule:evenodd;fill:#1B447E;}
	.st22{fill-rule:evenodd;clip-rule:evenodd;fill:#D6D0D0;}
	.st23{fill-rule:evenodd;clip-rule:evenodd;fill:#1C1814;}
	.st24{fill-rule:evenodd;clip-rule:evenodd;fill:#E6E4E5;}
	.st25{fill-rule:evenodd;clip-rule:evenodd;fill:#81B0C1;}
	.st26{fill-rule:evenodd;clip-rule:evenodd;fill:#005EA2;}
	.st27{fill-rule:evenodd;clip-rule:evenodd;fill:#B5B285;}
	.st28{fill-rule:evenodd;clip-rule:evenodd;fill:#766D6D;}
	.st29{fill-rule:evenodd;clip-rule:evenodd;fill:#48403E;}
	.st30{fill-rule:evenodd;clip-rule:evenodd;fill:#EFEBEA;}
	.st31{fill-rule:evenodd;clip-rule:evenodd;fill:#988989;}
	.st32{fill-rule:evenodd;clip-rule:evenodd;fill:#403738;}
	.st33{fill-rule:evenodd;clip-rule:evenodd;fill:#C7CDCC;}
	.st34{fill-rule:evenodd;clip-rule:evenodd;fill:#959492;}
	.st35{fill-rule:evenodd;clip-rule:evenodd;fill:#3D3031;}
	.st36{fill-rule:evenodd;clip-rule:evenodd;fill:#015D9F;}
	.st37{fill-rule:evenodd;clip-rule:evenodd;fill:#E8E8E6;}
	.st38{fill-rule:evenodd;clip-rule:evenodd;fill:#A9A3A3;}
	.st39{fill-rule:evenodd;clip-rule:evenodd;fill:#FBCA0D;}
	.st40{fill:#010101;}
	.st41{fill-rule:evenodd;clip-rule:evenodd;fill:#113A5F;}
	.st42{fill-rule:evenodd;clip-rule:evenodd;fill:#444139;}
	.st43{fill-rule:evenodd;clip-rule:evenodd;fill:#FBFCFE;}
	.st44{fill-rule:evenodd;clip-rule:evenodd;fill:#18345E;}
	.st45{fill-rule:evenodd;clip-rule:evenodd;fill:#A0BAC8;}
	.st46{fill-rule:evenodd;clip-rule:evenodd;fill:#191919;}
	.st47{fill-rule:evenodd;clip-rule:evenodd;fill:#0D202C;}
	.st48{fill-rule:evenodd;clip-rule:evenodd;fill:#073A55;}
</style>
<rect y="0" class="st0" width="640" height="379"/>
<g>
	<g>
		<g>
			<defs>
				<rect id="SVGID_1_" y="0" width="640" height="379"/>
			</defs>
			<clipPath id="SVGID_2_">
				<use xlink:href="#SVGID_1_"  style="overflow:visible;"/>
			</clipPath>
			<g class="st1">
				<path class="st2" d="M-109.7,318.5l537.1,0.2c-3.2,27.3-5.2,37-27.7,40h-422l-8.2-16.5c-25-4.2-48.9-9.5-72.3-15.2
					C-105.5,325.1-107.8,322.1-109.7,318.5"/>
				<path class="st3" d="M369,338.5c3.3,0,6.1,2.7,6.1,6.1c0,3.3-2.7,6.1-6.1,6.1c-3.3,0-6.1-2.7-6.1-6.1
					C363,341.2,365.7,338.5,369,338.5"/>
				<path class="st3" d="M382.8,338.6c3.3,0,6.1,2.7,6.1,6.1c0,3.3-2.7,6.1-6.1,6.1c-3.3,0-6.1-2.7-6.1-6.1
					C376.7,341.3,379.4,338.6,382.8,338.6"/>
				<path class="st3" d="M396.5,338.8c3.3,0,6.1,2.7,6.1,6.1c0,3.3-2.7,6.1-6.1,6.1c-3.3,0-6.1-2.7-6.1-6.1
					C390.5,341.5,393.2,338.8,396.5,338.8"/>
				<path class="st4" d="M368.2,342.5c0.1,0.3,0.1,0.6,0.1,1c0,0.2,0,0.3,0.1,0.5s0.2,0,0.2,0.4c-0.1,0.3-0.1,0.4-0.3,0.6
					c-0.1,0.1-0.5,0.2-0.6,0.2c-0.2-0.3-0.3-0.5-0.6-0.6c-0.3-0.1-0.8-0.1-1.1,0c-1.3,0.4-1.8,1.9-1.2,3.2c0.2,0.3,0.5,0.7,0.8,1
					c0.1,0.1,0.2,0.2,0.4,0.2c0.1-0.2,0-0.3,0.1-0.6c0-0.1,0.1-0.4,0.1-0.5c0.2-0.6,0.6-1,1.1-1.3c0.1-0.1,0.3-0.1,0.4-0.2
					c0.3-0.3,0-0.4,0.3-0.5c0.1,0,0.1,0,0.2-0.1c0.1,0,0.3-0.1,0.4,0c0.2,0,0.4,0.3,0.6,0.4c-0.1,0.2-0.6,0.7,0.3,1.6
					s2.7,0.8,3.4-0.1c0.2-0.2,0.3-0.4,0.4-0.7c0.1-0.3,0.5-1.4-0.2-1s-1.7,0.4-2.5,0c-0.1-0.1-0.3-0.2-0.4-0.2c-0.3-0.1-0.3,0-0.5,0
					c-0.1-0.1-0.4-0.4-0.5-0.5c-0.1-0.2,0-0.7,0.1-0.8c0.5,0,0.9-0.1,1.1-0.5c0.8-1,0.4-2.5-0.6-3.2c-0.8-0.5-1.6-0.4-2.5-0.1
					c-0.2,0.1-0.4,0.2-0.4,0.3c0,0.2,0.3,0.3,0.4,0.4c0.2,0.1,0.3,0.2,0.4,0.4c0.1,0.1,0.2,0.3,0.3,0.4c0,0.1,0.1,0.1,0.1,0.2
					C368.2,342.3,368.2,342.4,368.2,342.5"/>
				<path class="st4" d="M382,342.6c0.1,0.3,0.1,0.6,0.1,1c0,0.2,0,0.3,0.1,0.5s0.2,0,0.2,0.4c-0.1,0.3-0.1,0.4-0.3,0.6
					c-0.1,0.1-0.5,0.2-0.6,0.2c-0.2-0.3-0.3-0.5-0.6-0.6c-0.3-0.1-0.8-0.1-1.1,0c-1.3,0.4-1.8,1.9-1.2,3.2c0.2,0.3,0.5,0.7,0.8,1
					c0.1,0.1,0.2,0.2,0.4,0.2c0.1-0.2,0-0.3,0.1-0.6c0-0.1,0.1-0.4,0.1-0.5c0.2-0.6,0.6-1,1.1-1.3c0.1-0.1,0.3-0.1,0.4-0.2
					c0.3-0.3,0-0.4,0.3-0.5c0.1,0,0.1,0,0.2-0.1c0.1,0,0.3-0.1,0.4,0c0.2,0,0.4,0.3,0.6,0.4c-0.1,0.2-0.6,0.7,0.3,1.6
					s2.7,0.8,3.4-0.1c0.2-0.2,0.3-0.4,0.4-0.7c0.1-0.3,0.5-1.4-0.2-1s-1.7,0.4-2.5,0c-0.1-0.1-0.3-0.2-0.4-0.2c-0.3-0.1-0.3,0-0.5,0
					c-0.1-0.1-0.4-0.4-0.5-0.5c-0.1-0.2,0-0.7,0.1-0.8c0.5,0,0.9-0.1,1.1-0.5c0.8-1,0.4-2.5-0.6-3.2c-0.8-0.5-1.6-0.4-2.5-0.1
					c-0.2,0.1-0.4,0.2-0.4,0.3c0,0.2,0.3,0.3,0.4,0.4c0.2,0.1,0.3,0.2,0.4,0.4c0.1,0.1,0.2,0.3,0.3,0.4c0,0.1,0.1,0.1,0.1,0.2
					C381.9,342.5,381.9,342.6,382,342.6"/>
				<path class="st4" d="M395.7,342.8c0.1,0.3,0.1,0.6,0.1,1c0,0.2,0,0.3,0.1,0.5s0.2,0,0.2,0.4c-0.1,0.3-0.1,0.4-0.3,0.6
					c-0.1,0.1-0.5,0.2-0.6,0.2c-0.2-0.3-0.3-0.5-0.6-0.6c-0.3-0.1-0.8-0.1-1.1,0c-1.3,0.4-1.8,1.9-1.2,3.2c0.2,0.3,0.5,0.7,0.8,1
					c0.1,0.1,0.2,0.2,0.4,0.2c0.1-0.2,0-0.3,0.1-0.6c0-0.1,0.1-0.4,0.1-0.5c0.2-0.6,0.6-1,1.1-1.3c0.1-0.1,0.3-0.1,0.4-0.2
					c0.3-0.3,0-0.4,0.3-0.5c0.1,0,0.1,0,0.2-0.1c0.1,0,0.3-0.1,0.4,0c0.2,0,0.4,0.3,0.6,0.4c-0.1,0.2-0.6,0.7,0.3,1.6
					s2.7,0.8,3.4-0.1c0.2-0.2,0.3-0.4,0.4-0.7c0.1-0.3,0.5-1.4-0.2-1s-1.7,0.4-2.5,0c-0.1-0.1-0.3-0.2-0.4-0.2c-0.3-0.1-0.3,0-0.5,0
					c-0.1-0.1-0.4-0.4-0.5-0.5c-0.1-0.2,0-0.7,0.1-0.8c0.5,0,0.9-0.1,1.1-0.5c0.8-1,0.4-2.5-0.6-3.2c-0.8-0.5-1.6-0.4-2.5-0.1
					c-0.2,0.1-0.4,0.2-0.4,0.3c0,0.2,0.3,0.3,0.4,0.4c0.2,0.1,0.3,0.2,0.4,0.4c0.1,0.1,0.2,0.3,0.3,0.4c0,0.1,0.1,0.1,0.1,0.2
					C395.6,342.6,395.7,342.7,395.7,342.8"/>
				<path class="st5" d="M427.4,318.8l-537.1-0.2c-3.2-4.3-1.8-7,2.2-8.7l297.1-0.3v-51.5h21.5l0.1,21.1h59.1l2.8-2.4l-2.6-19.2
					l166.8-0.2L427.4,318.8z"/>
				<polygon class="st6" points="104.2,278.1 105.9,278.1 120.6,278.1 122.3,278.1 122.3,289.4 120.6,298.9 120.6,309.5 
					105.9,309.5 105.9,298.9 104.2,289.4 				"/>
				<path class="st7" d="M104.4,278.1h17.8c1.1,0,1.9-0.9,1.9-1.9l0,0c0-1.1-0.9-1.9-1.9-1.9h-17.8c-1.1,0-1.9,0.9-1.9,1.9l0,0
					C102.4,277.3,103.3,278.1,104.4,278.1"/>
				<path class="st7" d="M103.4,243.8h19.7c0.5,0,1-0.4,1-1l0,0c0-0.5-0.4-1-1-1h-19.7c-0.5,0-1,0.4-1,1l0,0
					C102.4,243.4,102.9,243.8,103.4,243.8"/>
				<rect x="104.4" y="243.8" class="st6" width="17.7" height="30.4"/>
				<rect x="85" y="296.8" class="st3" width="4.3" height="6.5"/>
				<rect x="91.8" y="296.7" class="st3" width="4.4" height="6.5"/>
				<path class="st3" d="M82.5,299.1H85v0.6h-2.6c-0.2,0-0.3-0.1-0.3-0.3l0,0C82.2,299.2,82.3,299.1,82.5,299.1"/>
				<path class="st3" d="M98.7,299h-2.6v0.6h2.6c0.2,0,0.3-0.1,0.3-0.3C99,299.2,98.9,299,98.7,299"/>
				<path class="st8" d="M119.5,300.2h2.3c1.3,0,2.3,1.1,2.3,2.3c0,1.3-1.1,2.3-2.3,2.3h-2.3c-1.3,0-2.3-1.1-2.3-2.3
					C117.2,301.3,118.2,300.2,119.5,300.2 M-80.3,300.4h2.3c1.3,0,2.3,1.1,2.3,2.3c0,1.3-1.1,2.3-2.3,2.3h-2.3
					c-1.3,0-2.3-1.1-2.3-2.3C-82.7,301.5-81.6,300.4-80.3,300.4z M-95.9,305.6h9.2c0.6,0,1.2,0.5,1.2,1.2c0,0.6-0.5,1.1-1.2,1.1
					h-9.2c-0.6,0-1.1-0.5-1.1-1.1C-97,306.1-96.5,305.6-95.9,305.6z M-71.8,305.6h9.2c0.6,0,1.1,0.5,1.1,1.2c0,0.6-0.5,1.1-1.1,1.1
					h-9.2c-0.6,0-1.2-0.5-1.2-1.1C-72.9,306.1-72.4,305.6-71.8,305.6z M-26.9,305.6h9.2c0.6,0,1.1,0.5,1.1,1.2
					c0,0.6-0.5,1.1-1.1,1.1h-9.2c-0.6,0-1.2-0.5-1.2-1.1C-28,306.1-27.5,305.6-26.9,305.6z M-4.8,305.6h9.2c0.6,0,1.2,0.5,1.2,1.2
					c0,0.6-0.5,1.1-1.2,1.1h-9.2c-0.6,0-1.1-0.5-1.1-1.1C-5.9,306.1-5.4,305.6-4.8,305.6z M17.4,305.6h9.2c0.6,0,1.2,0.5,1.2,1.2
					c0,0.6-0.5,1.1-1.2,1.1h-9.2c-0.6,0-1.2-0.5-1.2-1.1C16.2,306.1,16.7,305.6,17.4,305.6z M39.5,305.6h9.2c0.6,0,1.2,0.5,1.2,1.2
					c0,0.6-0.5,1.1-1.2,1.1h-9.2c-0.6,0-1.2-0.5-1.2-1.1C38.3,306.1,38.8,305.6,39.5,305.6z M61.8,305.6H71c0.6,0,1.1,0.5,1.1,1.2
					c0,0.6-0.5,1.1-1.1,1.1h-9.2c-0.6,0-1.2-0.5-1.2-1.1C60.7,306.1,61.2,305.6,61.8,305.6z M104.9,305.7h9.6c0.6,0,1.2,0.5,1.2,1.1
					s-0.5,1.1-1.2,1.1h-9.6c-0.6,0-1.2-0.5-1.2-1.1C103.7,306.2,104.2,305.7,104.9,305.7z M127.4,305.6h9.6c0.6,0,1.2,0.5,1.2,1.2
					c0,0.6-0.5,1.1-1.2,1.1h-9.6c-0.6,0-1.2-0.5-1.2-1.1C126.2,306.1,126.7,305.6,127.4,305.6z M149,305.6h9.6
					c0.6,0,1.2,0.5,1.2,1.2c0,0.6-0.5,1.1-1.2,1.1H149c-0.6,0-1.1-0.5-1.1-1.1C147.9,306.1,148.4,305.6,149,305.6z M170.7,305.6h9.6
					c0.6,0,1.2,0.5,1.2,1.2c0,0.6-0.5,1.1-1.2,1.1h-9.6c-0.6,0-1.1-0.5-1.1-1.1C169.6,306.1,170.1,305.6,170.7,305.6z M-107.5,309.8
					h297.1V303h-44.7l-5.4-7.2l-36,0.2l-4.1,7.3L81,303.4l-4.2-7.4l-108.2,0.3l-3.7,6.7l-18.5,0.2l-3.7-6.9l-45.6-0.4L-107.5,309.8z
					"/>
				<rect x="99.2" y="257.6" class="st9" width="28.5" height="1.5"/>
				<rect x="99.2" y="255" class="st9" width="28.5" height="0.7"/>
				<rect x="99.2" y="251.7" class="st9" width="28.5" height="0.7"/>
				<rect x="99.2" y="248.5" class="st9" width="28.5" height="0.7"/>
				<rect x="99.2" y="248.5" class="st9" width="1" height="9.1"/>
				<rect x="103.5" y="248.5" class="st9" width="1" height="9.1"/>
				<rect x="109.8" y="248.5" class="st9" width="1" height="9.1"/>
				<rect x="116.1" y="248.5" class="st9" width="1" height="9.1"/>
				<rect x="122.3" y="248.5" class="st9" width="1" height="9.1"/>
				<rect x="126.7" y="248.5" class="st9" width="1" height="9.1"/>
				<path class="st10" d="M120.4,241.9h-15.2v-2.2h5.9l0.1-18.8c3.3-5.7,6-10.3,9.2-5.6V241.9z"/>
				<path class="st11" d="M117.5,215.2c0.7,0,1.2,0.5,1.2,1.2s-0.5,1.2-1.2,1.2s-1.2-0.5-1.2-1.2
					C116.3,215.8,116.8,215.2,117.5,215.2"/>
				<path class="st6" d="M147.7,244.9h17.9v56.5h-17.9V244.9z M146.4,243.5h20.5v59.4h-20.5V243.5z"/>
				<path class="st6" d="M169.5,244.9h17.9v56.5h-17.9V244.9z M168.2,243.5h20.5v59.4h-20.5V243.5z"/>
				<rect x="147.8" y="280.5" class="st12" width="1.3" height="21"/>
				<rect x="164.2" y="280.5" class="st12" width="1.3" height="21"/>
				<rect x="149" y="281.8" class="st13" width="15.2" height="18.4"/>
				<rect x="169.6" y="280.5" class="st12" width="1.3" height="21"/>
				<rect x="186" y="280.5" class="st12" width="1.3" height="21"/>
				<rect x="170.8" y="281.8" class="st13" width="15.2" height="18.4"/>
				<rect x="157" y="244.9" class="st14" width="0.6" height="3.3"/>
				<rect x="178.8" y="244.9" class="st14" width="0.6" height="3.3"/>
				<polygon class="st15" points="155.5,247.2 158.9,247.2 158.9,254.2 158.4,254.2 158.4,248 156,248 156,254.2 155.5,254.2 				
					"/>
				<polygon class="st15" points="177.3,247.2 180.7,247.2 180.7,254.2 180.2,254.2 180.2,248 177.8,248 177.8,254.2 177.3,254.2 
									"/>
				<rect x="156" y="249.1" class="st16" width="2.3" height="6.6"/>
				<rect x="177.8" y="249.1" class="st16" width="2.3" height="6.6"/>
				<rect x="189.6" y="256.8" class="st17" width="21.5" height="1.1"/>
				<rect x="189.6" y="252.9" class="st18" width="21.5" height="3.9"/>
				<polygon class="st6" points="191.5,252.9 209.7,252.9 209.4,222.3 193.5,222.3 				"/>
				<polygon class="st19" points="191.5,252.9 209.7,252.9 209.7,249 191.7,249 				"/>
				<polygon class="st20" points="209.5,224.6 209.4,222.3 193.5,222.3 193.3,224.6 				"/>
				<polygon class="st4" points="199.4,216.1 199.4,221.4 197.5,221.4 197.5,216.1 194.9,212.6 194.9,209.3 				"/>
				<polygon class="st4" points="202,211.9 202,220.5 200.2,220.5 200.2,211.9 195.1,203.2 195.1,199.8 				"/>
				<path class="st21" d="M209.3,222.3h-15.8c5.5-1.1,9.5-2.9,10.7-5.9l5.2-0.5L209.3,222.3L209.3,222.3z"/>
				<polygon class="st10" points="117.8,212.7 28.6,213.1 37.7,232.3 40.8,231.1 80,239.2 80.8,234.8 40.9,222.9 36.1,217.8 
					54.3,222.2 54.2,224.6 80.8,224.6 80.7,222.5 117.8,217.2 				"/>
				<path class="st4" d="M412.8,287.9v3.1h-15.1v-3.1H412.8z M397.7,273.6h15.1v11.3h-15.1V273.6z"/>
				<path class="st4" d="M270.4,290.3c0.6,0,1.2,0.5,1.2,1.2c0,0.6-0.5,1.2-1.2,1.2c-0.6,0-1.2-0.5-1.2-1.2
					C269.3,290.9,269.8,290.3,270.4,290.3"/>
				<path class="st4" d="M320.4,290.5c0.6,0,1.2,0.5,1.2,1.2c0,0.6-0.5,1.2-1.2,1.2c-0.6,0-1.2-0.5-1.2-1.2
					C319.3,291,319.8,290.5,320.4,290.5"/>
				<path class="st4" d="M349.8,290.5c0.6,0,1.2,0.5,1.2,1.2c0,0.6-0.5,1.2-1.2,1.2c-0.6,0-1.2-0.5-1.2-1.2
					C348.6,291,349.1,290.5,349.8,290.5"/>
				<polygon class="st4" points="241.4,209.1 336.1,209.1 328.2,223.3 439.4,241.5 437.3,257.3 270.4,257.5 273.1,276.6 270.3,279 
					243.8,279 243.8,225.8 248,225.6 				"/>
				<path class="st22" d="M284.1,240.5h-0.4l-1.7-1.8v-0.5h2v2.3H284.1z M286.8,240.5H285v-2.2h1.8V240.5z M289.5,240.5h-1.8v-2.2
					h1.8V240.5z M292.2,240.5h-1.8v-2.2h1.8V240.5z M294.9,240.5h-1.8v-2.2h1.8V240.5z M297.7,240.5h-1.8v-2.2h1.8V240.5z
					 M300.4,240.5h-1.8v-2.2h1.8V240.5z M303.1,240.5h-1.8v-2.2h1.8V240.5z M305.8,240.5H304v-2.2h1.8V240.5z M308.5,240.5h-1.8
					v-2.2h1.8V240.5z M311.2,240.5h-1.8v-2.2h1.8V240.5z M313.9,240.5h-1.8v-2.2h1.8V240.5z M316.7,240.5h-1.8v-2.2h1.8V240.5z
					 M318.6,238.3l1.5,2.2h-2.6v-2.2H318.6z M317.5,236.6l0.8,1.1h-0.8V236.6z M271.9,228h39.7l5.3,7.7h-0.3v2h-1.8v-2h-0.9v2h-1.8
					v-2h-0.9v2h-1.8v-2h-0.9v2h-1.8v-2h-0.9v2H304v-2h-0.9v2h-1.8v-2h-0.9v2h-1.8v-2h-0.9v2h-1.8v-2H295v2h-1.8v-2h-0.9v2h-1.8v-2
					h-0.9v2h-1.8v-2h-0.9v2H285v-2h-0.9v2h-2v-2h-0.9v2h-0.1L271.9,228z"/>
				<polygon class="st23" points="276.4,230.7 280,230.7 280,235.2 278.7,235.2 276.4,232.8 				"/>
				<rect x="287.6" y="230.7" class="st23" width="3.6" height="4.5"/>
				<rect x="298.8" y="230.7" class="st23" width="3.6" height="4.5"/>
				<rect x="310" y="230.7" class="st23" width="3.6" height="4.5"/>
				<path class="st24" d="M252.4,243.5h186.7l-1.9,13.9l-166.8,0.2c-1.6-3.1-0.3-9.1-4.9-9.4l-11.6-0.1L252.4,243.5z"/>
				<polygon class="st25" points="386.7,247.8 419.4,247.8 418.7,252.8 387.4,252.8 				"/>
				<polygon class="st25" points="349.1,247.8 381.8,247.8 381,252.8 349.7,252.8 				"/>
				<rect x="317.3" y="248.5" class="st23" width="2.2" height="2.7"/>
				<rect x="324.1" y="248.5" class="st23" width="2.2" height="2.7"/>
				<rect x="330.9" y="248.5" class="st23" width="2.2" height="2.7"/>
				<rect x="337.7" y="248.5" class="st23" width="2.2" height="2.7"/>
				<rect x="280.1" y="248.5" class="st23" width="2.2" height="2.7"/>
				<rect x="256.4" y="249" class="st23" width="2.2" height="2.7"/>
				<rect x="265" y="249" class="st23" width="2.2" height="2.7"/>
				<rect x="286.9" y="248.5" class="st23" width="2.2" height="2.7"/>
				<rect x="293.7" y="248.5" class="st23" width="2.2" height="2.7"/>
				<rect x="300.5" y="248.5" class="st23" width="2.2" height="2.7"/>
				<path class="st23" d="M255.8,264.2v1.9h1.7v-1.9H255.8z M252.9,266.2h1.6v-1.9h-1.6V266.2z M252.9,273.8h4.6V267h-4.6V273.8z
					 M257.5,276.8h-4.6v1.9h4.6V276.8z M252.9,276.4h4.6v-2.2h-4.6V276.4z M252.4,263.9h5.5V279h-5.5V263.9z"/>
				<path class="st23" d="M265.4,264.2v1.9h1.7v-1.9H265.4z M262.5,266.2h1.6v-1.9h-1.6V266.2z M262.5,273.8h4.6V267h-4.6V273.8z
					 M267.1,276.8h-4.6v1.9h4.6V276.8z M262.5,276.4h4.6v-2.2h-4.6V276.4z M262,263.9h5.5V279H262V263.9z"/>
				<path class="st4" d="M280.5,261.6c0.6,0,1.2,0.5,1.2,1.2c0,0.6-0.5,1.2-1.2,1.2c-0.6,0-1.2-0.5-1.2-1.2
					C279.4,262.1,279.9,261.6,280.5,261.6"/>
				<path class="st4" d="M290.6,276.8c0.6,0,1.2,0.5,1.2,1.2c0,0.6-0.5,1.2-1.2,1.2s-1.2-0.5-1.2-1.2S289.9,276.8,290.6,276.8"/>
				<path class="st4" d="M300.4,261.6c0.6,0,1.2,0.5,1.2,1.2c0,0.6-0.5,1.2-1.2,1.2c-0.6,0-1.2-0.5-1.2-1.2
					C299.2,262.1,299.7,261.6,300.4,261.6"/>
				<path class="st4" d="M310.4,276.8c0.6,0,1.2,0.5,1.2,1.2c0,0.6-0.5,1.2-1.2,1.2c-0.6,0-1.2-0.5-1.2-1.2
					C309.2,277.3,309.8,276.8,310.4,276.8"/>
				<path class="st4" d="M320.2,261.6c0.6,0,1.2,0.5,1.2,1.2c0,0.6-0.5,1.2-1.2,1.2c-0.6,0-1.2-0.5-1.2-1.2S319.5,261.6,320.2,261.6
					"/>
				<path class="st4" d="M330.2,276.8c0.6,0,1.2,0.5,1.2,1.2c0,0.6-0.5,1.2-1.2,1.2c-0.6,0-1.2-0.5-1.2-1.2S329.6,276.8,330.2,276.8
					"/>
				<path class="st4" d="M369.5,276.8c0.6,0,1.2,0.5,1.2,1.2c0,0.6-0.5,1.2-1.2,1.2c-0.6,0-1.2-0.5-1.2-1.2S368.9,276.8,369.5,276.8
					"/>
				<path class="st4" d="M340,261.6c0.6,0,1.2,0.5,1.2,1.2c0,0.6-0.5,1.2-1.2,1.2c-0.6,0-1.2-0.5-1.2-1.2S339.3,261.6,340,261.6"/>
				<path class="st4" d="M350,276.8c0.6,0,1.2,0.5,1.2,1.2c0,0.6-0.5,1.2-1.2,1.2c-0.6,0-1.2-0.5-1.2-1.2
					C348.9,277.3,349.4,276.8,350,276.8"/>
				<rect x="242.4" y="215.9" class="st4" width="0.5" height="9.2"/>
				<rect x="239.4" y="215.9" class="st4" width="0.5" height="9.2"/>
				<rect x="236.5" y="215.9" class="st4" width="0.5" height="9.2"/>
				<rect x="229.1" y="215.9" class="st4" width="17.1" height="0.5"/>
				<rect x="231.1" y="218.2" class="st4" width="15.4" height="0.5"/>
				<rect x="232.7" y="220.5" class="st4" width="14.1" height="0.5"/>
				<rect x="234.5" y="222.8" class="st4" width="12.7" height="0.5"/>
				<polygon class="st4" points="229.1,215.9 229.6,215.9 235.7,224.4 235.3,224.4 				"/>
				<rect x="245.3" y="215.9" class="st4" width="0.5" height="9.2"/>
				<polygon class="st26" points="272.4,228.5 240.4,228.5 234.9,224.1 239.4,225 269,225.1 				"/>
				<polygon class="st6" points="243.1,209.1 269.9,209.1 269.9,224.6 249.2,224.6 				"/>
				<polygon class="st6" points="333.7,209.1 302.7,209.1 295.9,222.8 326.7,222.8 				"/>
				<polygon class="st27" points="262.7,209.1 263.2,209.1 268.2,224.6 267.7,224.6 				"/>
				<polygon class="st27" points="311.1,209.1 310.5,209.1 304.6,222.8 305.2,222.8 				"/>
				<polygon class="st27" points="249.7,209.1 254.8,224.6 254.3,224.6 249.2,209.1 				"/>
				<polygon class="st27" points="326,209.1 320.1,222.8 320.7,222.8 326.6,209.1 				"/>
				<polygon class="st27" points="256.4,209.1 261.5,224.6 261,224.6 256,209.1 				"/>
				<polygon class="st27" points="318.3,209.1 312.4,222.8 313,222.8 318.9,209.1 				"/>
				<rect x="272.2" y="210.5" class="st28" width="4.9" height="6.3"/>
				<rect x="277.8" y="210.5" class="st28" width="4.9" height="15.4"/>
				<rect x="284" y="210.5" class="st28" width="4.9" height="15.4"/>
				<polygon class="st28" points="290.3,210.5 300.1,210.5 292.1,225.8 290.3,225.8 				"/>
				<polygon class="st4" points="260.8,162.7 261.7,162.7 263.3,183.3 275.3,203.6 269.3,203.3 260.7,183.3 				"/>
				<rect x="297.6" y="198.3" class="st29" width="2.6" height="6.7"/>
				<path class="st30" d="M298.9,183.7L298.9,183.7c3.6,0,6.5,2.9,6.5,6.5v1.6c0,3.6-2.9,6.5-6.5,6.5l0,0c-3.6,0-6.5-2.9-6.5-6.5
					v-1.6C292.4,186.6,295.4,183.7,298.9,183.7"/>
				<path class="st31" d="M304.8,194.6c-1.1,2.2-3.3,3.7-5.9,3.7s-4.8-1.5-5.9-3.7H304.8z"/>
				<rect x="313.8" y="176.7" class="st32" width="1.2" height="24.6"/>
				<rect x="248.8" y="183.6" class="st32" width="1.2" height="19.3"/>
				<rect x="314" y="147.2" class="st33" width="0.8" height="29.6"/>
				<rect x="249" y="163.3" class="st33" width="0.8" height="20.3"/>
				<rect x="313.5" y="201.3" class="st34" width="1.7" height="5"/>
				<rect x="327.5" y="201.6" class="st35" width="2.5" height="5"/>
				<rect x="332.7" y="201.3" class="st4" width="0.4" height="5.3"/>
				<rect x="248.7" y="201.3" class="st4" width="84.3" height="0.4"/>
				<rect x="248.7" y="204" class="st4" width="84.3" height="0.4"/>
				<rect x="248.7" y="206.3" class="st4" width="84.3" height="0.4"/>
				<rect x="328.7" y="201.3" class="st4" width="0.4" height="5.3"/>
				<rect x="324.7" y="201.3" class="st4" width="0.4" height="5.3"/>
				<rect x="320.7" y="201.3" class="st4" width="0.4" height="5.3"/>
				<rect x="316.7" y="201.3" class="st4" width="0.4" height="5.3"/>
				<rect x="312.7" y="201.3" class="st4" width="0.4" height="5.3"/>
				<rect x="308.7" y="201.3" class="st4" width="0.4" height="5.3"/>
				<rect x="304.7" y="201.3" class="st4" width="0.4" height="5.3"/>
				<rect x="300.7" y="201.3" class="st4" width="0.4" height="5.3"/>
				<rect x="296.7" y="201.3" class="st4" width="0.4" height="5.3"/>
				<rect x="292.7" y="201.3" class="st4" width="0.4" height="5.3"/>
				<rect x="288.7" y="201.3" class="st4" width="0.4" height="5.3"/>
				<rect x="284.7" y="201.3" class="st4" width="0.4" height="5.3"/>
				<rect x="280.7" y="201.3" class="st4" width="0.4" height="5.3"/>
				<rect x="276.7" y="201.3" class="st4" width="0.4" height="5.3"/>
				<rect x="272.7" y="201.3" class="st4" width="0.4" height="5.3"/>
				<rect x="268.7" y="201.3" class="st4" width="0.4" height="5.3"/>
				<rect x="264.7" y="201.3" class="st4" width="0.4" height="5.3"/>
				<rect x="260.7" y="201.3" class="st4" width="0.4" height="5.3"/>
				<rect x="256.7" y="201.3" class="st4" width="0.4" height="5.3"/>
				<rect x="252.7" y="201.3" class="st4" width="0.4" height="5.3"/>
				<rect x="248.7" y="201.3" class="st4" width="0.4" height="5.3"/>
				<polygon class="st36" points="246.9,202.1 333.1,206.6 336.1,209.1 241.4,209.1 				"/>
				<path class="st37" d="M327.3,192.6h5.4v5.4h-5.5c-0.9,0-1.6-0.7-1.6-1.6v-2.2C325.6,193.3,326.4,192.6,327.3,192.6"/>
				<rect x="331.6" y="192.6" class="st38" width="1.1" height="5.4"/>
				<rect x="328.3" y="198" class="st38" width="1" height="3.7"/>
				<polygon class="st38" points="327.3,192.6 328.3,192.6 330.1,198 329.1,198 				"/>
				<rect x="116.6" y="207.9" class="st3" width="0.4" height="4.8"/>
				<rect x="111.4" y="207.9" class="st3" width="0.4" height="4.8"/>
				<rect x="106.3" y="208" class="st3" width="0.4" height="4.8"/>
				<rect x="101.1" y="208" class="st3" width="0.4" height="4.8"/>
				<rect x="96" y="208" class="st3" width="0.4" height="4.8"/>
				<rect x="90.8" y="208" class="st3" width="0.4" height="4.8"/>
				<rect x="85.6" y="208.1" class="st3" width="0.4" height="4.8"/>
				<rect x="80.5" y="208.1" class="st3" width="0.4" height="4.8"/>
				<rect x="75.3" y="208.1" class="st3" width="0.4" height="4.8"/>
				<rect x="70.2" y="208.1" class="st3" width="0.4" height="4.8"/>
				<rect x="65" y="208.2" class="st3" width="0.4" height="4.8"/>
				<rect x="59.8" y="208.2" class="st3" width="0.4" height="4.8"/>
				<rect x="54.7" y="208.2" class="st3" width="0.4" height="4.8"/>
				<rect x="49.5" y="208.2" class="st3" width="0.4" height="4.8"/>
				<rect x="44.4" y="208.2" class="st3" width="0.4" height="4.8"/>
				<rect x="39.2" y="208.3" class="st3" width="0.4" height="4.8"/>
				<rect x="34" y="208.3" class="st3" width="0.4" height="4.8"/>
				<rect x="34" y="207.9" class="st3" width="83" height="0.4"/>
				<rect x="34" y="209.3" class="st3" width="83" height="0.4"/>
				<rect x="34" y="210.7" class="st3" width="83" height="0.4"/>
				<polygon class="st7" points="35.9,233.9 35.1,234.4 24.8,208.2 25.6,207.6 				"/>
				<polygon class="st7" points="84,242.1 83.2,242.6 36.3,235 37.1,234.4 				"/>
				<rect x="84.7" y="254.2" class="st39" width="3.8" height="6.1"/>
				<rect x="86.1" y="242.9" class="st7" width="0.9" height="11.3"/>
				<path class="st40" d="M86.7,260.2c0,0.1,0,0.1,0,0.1c0,0.2,0,0.3-0.1,0.5c0,0.1-0.1,0.2-0.2,0.3c-0.1,0.1-0.2,0.2-0.3,0.3
					c-0.2,0.1-0.3,0.2-0.3,0.3c0,0.1-0.1,0.2-0.1,0.3c0,0.2,0.1,0.3,0.2,0.5c0.1,0.1,0.3,0.2,0.5,0.2s0.4-0.1,0.5-0.2
					s0.2-0.3,0.3-0.6l0.5,0.1c0,0.3-0.2,0.6-0.4,0.8c-0.2,0.2-0.5,0.3-0.8,0.3c-0.4,0-0.6-0.1-0.9-0.3c-0.2-0.2-0.3-0.4-0.3-0.7
					c0-0.2,0-0.3,0.1-0.4s0.2-0.3,0.4-0.5c0.1-0.1,0.2-0.2,0.3-0.3c0-0.1,0.1-0.1,0.1-0.2s0-0.2,0-0.4L86.7,260.2L86.7,260.2z"/>
				<path class="st41" d="M87.1,239.1c0.4,0.6,0.7,1.3,0.7,2c0,1.8-1.5,3.3-3.3,3.3c-1.4,0-2.7-0.9-3.1-2.2l-1.4-3.1l0.8-4.3
					l2.9-0.8c0.6-0.9,1.6-1.4,2.8-1.4c1.8,0,3.3,1.5,3.3,3.3C89.8,237.5,88.6,238.8,87.1,239.1z"/>
				<polygon class="st39" points="87.7,225.5 101.6,233.2 100.6,235 86.8,227.3 				"/>
				<polygon class="st42" points="82,222.3 87.2,221.5 85.9,224.9 84.3,225.4 				"/>
				<polygon class="st43" points="87.6,225.8 85.9,224.9 84.6,225.3 86.9,227 				"/>
				<polygon class="st39" points="96.2,222.2 98.1,237.9 105.1,234.4 105.1,222.2 				"/>
				<polygon class="st7" points="129,193.5 129.1,194.5 27.3,204.3 27.3,203.4 				"/>
				<path class="st21" d="M133.8,192.6c8.2,0,14.8,6.6,14.8,14.8s-6.6,14.8-14.8,14.8s-14.8-6.6-14.8-14.8
					C119,199.3,125.6,192.6,133.8,192.6"/>
				<path class="st44" d="M133.8,199.2c4.5,0,8.2,3.7,8.2,8.2s-3.7,8.2-8.2,8.2s-8.2-3.7-8.2-8.2
					C125.6,202.9,129.2,199.2,133.8,199.2"/>
				<path class="st45" d="M127.2,212.3h13.5v-5c0-2.4-2-4.4-4.4-4.4h-5.1c-2.2,0-4,1.8-4,4V212.3z"/>
				<path class="st46" d="M133.8,205.8c0.9,0,1.6,0.7,1.6,1.6c0,0.9-0.7,1.6-1.6,1.6c-0.9,0-1.6-0.7-1.6-1.6
					C132.1,206.5,132.9,205.8,133.8,205.8"/>
				<rect x="118.6" y="207.5" class="st4" width="0.7" height="5.2"/>
				<rect x="125.6" y="207.5" class="st4" width="0.7" height="5.2"/>
				<rect x="133.2" y="207.5" class="st4" width="0.7" height="5.2"/>
				<rect x="140.7" y="207.5" class="st4" width="0.7" height="5.2"/>
				<rect x="148.3" y="207.5" class="st4" width="0.7" height="5.2"/>
				<rect x="118.6" y="207.5" class="st4" width="30.3" height="0.4"/>
				<rect x="118.6" y="208.8" class="st4" width="30.3" height="0.4"/>
				<rect x="118.6" y="212.3" class="st4" width="30.3" height="0.4"/>
				<path class="st47" d="M27.7,203.4c1.8,0,3.3,1.5,3.3,3.2c0,1.8-1.5,3.2-3.3,3.2s-3.3-1.5-3.3-3.2
					C24.5,204.9,25.9,203.4,27.7,203.4"/>
				<path class="st48" d="M29.4,213.1h4.8v-1.9l-5.8-5.1c-0.8-0.6-2.1,0.1-1.5,1.1l2.5,3.5C29.4,210.7,29.4,213.1,29.4,213.1z"/>
				<path class="st47" d="M34.5,231.6c1.6,0,2.9,1.3,2.9,2.8c0,1.6-1.3,2.8-2.9,2.8c-1.6,0-2.9-1.3-2.9-2.8
					C31.7,232.9,33,231.6,34.5,231.6"/>
				<path class="st48" d="M37.6,229.7l3.3,1.5l-0.6,1.3l-5.6,1.7c-0.8,0.1-1.4-0.8-0.7-1.2l2.9-1.6L37.6,229.7z"/>
			</g>
		</g>
	</g>
</g>
</svg>
