<?xml version="1.0" encoding="utf-8"?>
<!-- Generator: Adobe Illustrator 24.1.3, SVG Export Plug-In . SVG Version: 6.00 Build 0)  -->
<svg version="1.1" id="Layer_1" xmlns="http://www.w3.org/2000/svg" xmlns:xlink="http://www.w3.org/1999/xlink" x="0px" y="0px"
	 viewBox="0 0 310 180" style="enable-background:new 0 0 310 180;" xml:space="preserve">
<style type="text/css">
	.st0{fill:#045789;}
	.st1{clip-path:url(#SVGID_2_);}
	.st2{fill-rule:evenodd;clip-rule:evenodd;fill:#181818;}
	.st3{fill-rule:evenodd;clip-rule:evenodd;fill:#931A1D;}
	.st4{fill:none;stroke:#931A1D;stroke-width:0.216;stroke-miterlimit:2.6131;}
	.st5{fill-rule:evenodd;clip-rule:evenodd;fill:#DE3C28;}
	.st6{fill-rule:evenodd;clip-rule:evenodd;fill:#FFFFFF;}
</style>
<rect class="st0" width="311" height="180.8"/>
<g>
	<g>
		<g>
			<defs>
				<rect id="SVGID_1_" y="0" width="310" height="180"/>
			</defs>
			<clipPath id="SVGID_2_">
				<use xlink:href="#SVGID_1_"  style="overflow:visible;"/>
			</clipPath>
			<g class="st1">
				<path class="st2" d="M-84.5,119.8h245.3l20-13.3h82.8L243,139.4c-0.1,0-0.2,0-0.3,0H-73.8l11,20.2L-84.5,119.8z"/>
				<path class="st3" d="M-73.8,139.4h316.5c5.6,0,10.1,4.5,10.1,10.1s-4.5,10.1-10.1,10.1H65.8c0.1,0.3,0.1,0.5,0.1,0.8l0,0
					c0,2.2-1.8,3.9-3.9,3.9H4.5c-2.2,0-3.9-1.8-3.9-3.9l0,0c0-0.3,0-0.5,0.1-0.8h-36.1h-27.4L-73.8,139.4z"/>
				<path class="st3" d="M252.8,149.5L252.8,149.5H-68.3l5.5,10.1h27.4H0.7c-0.1,0.3-0.1,0.5-0.1,0.8l0,0c0,2.2,1.8,3.9,3.9,3.9H62
					c2.2,0,3.9-1.8,3.9-3.9l0,0c0-0.3,0-0.5-0.1-0.8h176.9C248.2,159.6,252.8,155.1,252.8,149.5z"/>
				<path class="st4" d="M252.8,149.5L252.8,149.5H-68.3l5.5,10.1h27.4H0.7c-0.1,0.3-0.1,0.5-0.1,0.8l0,0c0,2.2,1.8,3.9,3.9,3.9H62
					c2.2,0,3.9-1.8,3.9-3.9l0,0c0-0.3,0-0.5-0.1-0.8h176.9C248.2,159.6,252.8,155.1,252.8,149.5z"/>
				<polygon class="st5" points="-84.5,119.8 160.7,119.8 164.8,117.1 -84.5,117.1 				"/>
				<rect x="-5.2" y="112.6" class="st3" width="28.5" height="7.2"/>
				<rect x="32" y="112.6" class="st3" width="28.5" height="7.2"/>
				<rect x="69.3" y="112.6" class="st3" width="28.5" height="7.2"/>
				<rect x="106.6" y="112.6" class="st3" width="28.5" height="7.2"/>
				<rect x="143.8" y="112.6" class="st3" width="28.5" height="7.2"/>
				<path class="st6" d="M22.2,100.7L34,95.5l11.9,5.2H22.2z M31.6,94.4l-14.3,6.3V88.2L31.6,94.4z M36.4,94.4l14.3,6.3V88.2
					L36.4,94.4z M13.5,102.8h1.3V86.1h2.6L34,93.4l16.7-7.3h2.6v16.8h-2.6H18.6v17h-5.1V102.8z"/>
				<path class="st6" d="M113.2,94.4l-14.3-6.3v12.6L113.2,94.4z M118,94.4l14.3,6.3V88.2L118,94.4z M95,102.8h1.3V86.1h2.6
					l16.7,7.3l16.7-7.3h2.6v16.8h1.3v17H131v-17h1.3l-16.7-7.3l-16.7,7.3h1.3v17H95V102.8z"/>
				<path class="st6" d="M31,94.4l-14.3-6.3v12.6L31,94.4z M35.8,94.4l14.3,6.3V88.2L35.8,94.4z M12.9,102.8h1.3V86.1h2.6l16.7,7.3
					l16.7-7.3h2.6v16.8H54v17h-5.1v-17h1.3l-16.7-7.3l-16.7,7.3H18v17h-5.1V102.8z"/>
				<polygon class="st6" points="178.1,97.8 180.7,97.8 180.7,106.6 178.1,108.3 				"/>
				<rect x="223.6" y="77.6" class="st6" width="2.7" height="28.9"/>
				<rect x="222.2" y="81.1" class="st6" width="5.5" height="10.3"/>
			</g>
		</g>
	</g>
</g>
</svg>
