<?xml version="1.0" encoding="utf-8"?>
<!-- Generator: Adobe Illustrator 24.1.3, SVG Export Plug-In . SVG Version: 6.00 Build 0)  -->
<svg version="1.1" id="Layer_1" xmlns="http://www.w3.org/2000/svg" xmlns:xlink="http://www.w3.org/1999/xlink" x="0px" y="0px"
	 viewBox="0 0 310 379" style="enable-background:new 0 0 310 379;" xml:space="preserve">
<style type="text/css">
	.st0{fill:#045789;}
	.st1{clip-path:url(#SVGID_2_);}
	.st2{fill-rule:evenodd;clip-rule:evenodd;}
	.st3{fill-rule:evenodd;clip-rule:evenodd;fill:#931A1D;}
	.st4{fill-rule:evenodd;clip-rule:evenodd;fill:#9AA6B1;}
	.st5{fill-rule:evenodd;clip-rule:evenodd;fill:#8C99A2;}
	.st6{fill-rule:evenodd;clip-rule:evenodd;fill:#8EACC6;}
	.st7{fill-rule:evenodd;clip-rule:evenodd;fill:#B7CCDE;}
	.st8{fill-rule:evenodd;clip-rule:evenodd;fill:#A2BAD2;}
	.st9{fill-rule:evenodd;clip-rule:evenodd;fill:#94ADC4;}
	.st10{fill-rule:evenodd;clip-rule:evenodd;fill:#B4CBE5;}
	.st11{fill-rule:evenodd;clip-rule:evenodd;fill:#8EA6BE;}
	.st12{fill-rule:evenodd;clip-rule:evenodd;fill:#94ABBB;}
	.st13{fill-rule:evenodd;clip-rule:evenodd;fill:#231F20;}
	.st14{fill-rule:evenodd;clip-rule:evenodd;fill:#C2A16C;}
	.st15{fill:#231F20;}
</style>
<rect y="0" class="st0" width="311" height="380.8"/>
<g>
	<g>
		<g>
			<defs>
				<rect id="SVGID_1_" y="0" width="310" height="379"/>
			</defs>
			<clipPath id="SVGID_2_">
				<use xlink:href="#SVGID_1_"  style="overflow:visible;"/>
			</clipPath>
			<g class="st1">
				<path class="st2" d="M243.8,284.8h-48.9c-7.2,4.9-18,7.7-35,6.8h-552.3c-0.7,12.3,1.5,24.1,6.5,34H220L243.8,284.8z"/>
				<path class="st3" d="M-385.9,325.6c7.7,15.4,22.2,26.5,42.8,28.2h565.6c8.8-0.8,9.8-16.5-0.3-18.1c-3.5,0.2-6-0.4-6.5-2.9
					l4.2-7.3L-385.9,325.6L-385.9,325.6z"/>
				<rect x="216.4" y="267.9" class="st4" width="1.3" height="16.9"/>
				<rect x="216.1" y="262.7" class="st5" width="2" height="5.2"/>
				<rect x="216.8" y="248.2" class="st4" width="0.5" height="14.5"/>
				<rect x="92.4" y="287.4" class="st6" width="73.1" height="4.2"/>
				<rect x="-6.1" y="287.4" class="st6" width="73.1" height="4.2"/>
				<rect x="91.1" y="285.9" class="st7" width="76.7" height="1.5"/>
				<rect x="-7.4" y="285.9" class="st7" width="76.7" height="1.5"/>
				<rect x="74.4" y="257.4" class="st8" width="9.9" height="34.2"/>
				<rect x="70.8" y="251.5" class="st9" width="17.1" height="5.9"/>
				<rect x="75.8" y="217" class="st10" width="7.2" height="34.5"/>
				<polygon class="st11" points="84.5,248.1 21.2,248.1 21.2,249.7 29.8,251.5 84.5,251.5 				"/>
				<polygon class="st12" points="80.3,212 78.4,212 77.4,217 81.3,217 				"/>
				<polygon class="st13" points="78.3,212.8 21.2,248.4 21.2,249.2 78.3,213.6 				"/>
				<rect x="21.2" y="249.7" class="st13" width="0.7" height="23.7"/>
				<rect x="20.6" y="273.5" class="st14" width="2" height="2.2"/>
				<path class="st15" d="M21.7,275.6C21.7,275.7,21.7,275.7,21.7,275.6c0,0.2,0,0.3,0,0.4s-0.1,0.1-0.1,0.2c0,0-0.1,0.1-0.2,0.2
					s-0.2,0.2-0.2,0.2c0,0.1,0,0.1,0,0.2s0,0.2,0.1,0.3c0.1,0.1,0.2,0.1,0.3,0.1c0.1,0,0.2,0,0.3-0.1c0.1-0.1,0.1-0.2,0.2-0.4h0.3
					c0,0.2-0.1,0.4-0.2,0.5s-0.3,0.2-0.5,0.2s-0.4-0.1-0.6-0.2c-0.1-0.1-0.2-0.3-0.2-0.5c0-0.1,0-0.2,0.1-0.3c0-0.1,0.1-0.2,0.3-0.3
					c0.1-0.1,0.2-0.1,0.2-0.2l0.1-0.1c0-0.1,0-0.1,0-0.3L21.7,275.6L21.7,275.6z"/>
			</g>
		</g>
	</g>
</g>
</svg>
