<?xml version="1.0" encoding="utf-8"?>
<!-- Generator: Adobe Illustrator 24.1.3, SVG Export Plug-In . SVG Version: 6.00 Build 0)  -->
<svg version="1.1" id="Layer_1" xmlns="http://www.w3.org/2000/svg" xmlns:xlink="http://www.w3.org/1999/xlink" x="0px" y="0px"
	 viewBox="0 0 310 180" style="enable-background:new 0 0 310 180;" xml:space="preserve">
<style type="text/css">
	.st0{fill:#045789;}
	.st1{clip-path:url(#SVGID_2_);}
	.st2{fill-rule:evenodd;clip-rule:evenodd;fill:#931A1D;}
	.st3{fill-rule:evenodd;clip-rule:evenodd;fill:#A3A6AF;}
	.st4{fill-rule:evenodd;clip-rule:evenodd;fill:#C0282B;}
	.st5{fill-rule:evenodd;clip-rule:evenodd;fill:#535258;}
	.st6{fill-rule:evenodd;clip-rule:evenodd;}
</style>
<rect y="0" class="st0" width="311" height="180.8"/>
<g>
	<g>
		<g>
			<defs>
				<rect id="SVGID_1_" y="0" width="310" height="180"/>
			</defs>
			<clipPath id="SVGID_2_">
				<use xlink:href="#SVGID_1_"  style="overflow:visible;"/>
			</clipPath>
			<g class="st1">
				<path class="st2" d="M264.3,134.7c-3.7,5.7-3.1,9,1.2,14.7c8,6.7,3.7,14.5-4.9,14.4h-364.7V153c-1.6-6.9-15.3-6.5-18.7-18.3
					H264.3L264.3,134.7z"/>
				<path class="st3" d="M4.9,92.5c12.3,0,22.4,9.5,23.4,21.5h-46.9C-17.5,102-7.4,92.5,4.9,92.5"/>
				<path class="st3" d="M60.4,92.6c12.3,0,22.4,9.5,23.4,21.5H36.9C38,102,48.1,92.6,60.4,92.6"/>
				<path class="st3" d="M115.8,92.6c12.3,0,22.4,9.5,23.4,21.5H92.3C93.4,102,103.5,92.6,115.8,92.6"/>
				<path class="st3" d="M171.3,92.6c12.3,0,22.4,9.5,23.4,21.5h-46.9C148.9,102.1,159,92.6,171.3,92.6"/>
				<path class="st4" d="M21.1,99c2,1.9,3.7,4.2,4.9,6.7h-42.2c1.2-2.5,2.9-4.8,4.9-6.7H21.1z"/>
				<path class="st4" d="M76.5,99c2,1.9,3.7,4.2,4.9,6.7H39.3c1.2-2.5,2.9-4.8,4.9-6.7H76.5z"/>
				<path class="st4" d="M132,99c2,1.9,3.7,4.2,4.9,6.7H94.7c1.2-2.5,2.9-4.8,4.9-6.7H132z"/>
				<path class="st4" d="M187.5,99.1c2,1.9,3.7,4.2,4.9,6.7h-42.2c1.2-2.5,2.9-4.8,4.9-6.7H187.5z"/>
				<rect x="2.2" y="90.6" class="st5" width="6.8" height="2.3"/>
				<rect x="57.7" y="90.7" class="st5" width="6.8" height="2.3"/>
				<rect x="113.1" y="90.7" class="st5" width="6.8" height="2.3"/>
				<rect x="168.6" y="90.7" class="st5" width="6.8" height="2.3"/>
				<polygon class="st5" points="235.2,108.3 233.9,108.3 234.2,68 235,68 				"/>
				<rect x="234.5" y="68.6" class="st5" width="2.4" height="1.4"/>
				<rect x="231.4" y="71.6" class="st5" width="6.3" height="0.9"/>
				<rect x="230" y="74" class="st5" width="9.1" height="2.2"/>
				<path class="st6" d="M-95.5,107.1h3v3h-3V107.1z M-90.3,107.1h3v3h-3V107.1z M-85.1,107.1h3v3h-3V107.1z M-79.9,107.1h3v3h-3
					V107.1z M-74.7,107.1h3v3h-3V107.1z M-69.5,107.1h3v3h-3V107.1z M-123.5,104.5l58.6,0.3c2.9,3.1,2.4,7.3,8.7,9.2l257.8,0.2
					c3.5-0.3,7.5-3.3,11.7-7.4l76.8-2.2c-13.6,15.9-22,24.3-25.8,30.1h-387.1c-0.4-1.3-0.6-2.8-0.7-4.5L-123.5,104.5L-123.5,104.5z"
					/>
			</g>
		</g>
	</g>
</g>
</svg>
