<?xml version="1.0" encoding="utf-8"?>
<!-- Generator: Adobe Illustrator 24.1.3, SVG Export Plug-In . SVG Version: 6.00 Build 0)  -->
<svg version="1.1" id="Layer_1" xmlns="http://www.w3.org/2000/svg" xmlns:xlink="http://www.w3.org/1999/xlink" x="0px" y="0px"
	 viewBox="0 0 310 180" style="enable-background:new 0 0 310 180;" xml:space="preserve">
<style type="text/css">
	.st0{fill:#045789;}
	.st1{clip-path:url(#SVGID_2_);}
	.st2{fill-rule:evenodd;clip-rule:evenodd;}
	.st3{fill-rule:evenodd;clip-rule:evenodd;fill:#931A1D;}
	.st4{fill-rule:evenodd;clip-rule:evenodd;fill:#FFFFFF;}
	.st5{fill-rule:evenodd;clip-rule:evenodd;fill:#E1E3EC;}
	.st6{fill-rule:evenodd;clip-rule:evenodd;fill:#8D261C;}
	.st7{fill-rule:evenodd;clip-rule:evenodd;fill:#00527D;}
	.st8{fill-rule:evenodd;clip-rule:evenodd;fill:#055180;}
	.st9{fill-rule:evenodd;clip-rule:evenodd;fill:#8C261C;}
	.st10{fill-rule:evenodd;clip-rule:evenodd;fill:#D7E2E5;}
	.st11{fill-rule:evenodd;clip-rule:evenodd;fill:#789496;}
	.st12{fill-rule:evenodd;clip-rule:evenodd;fill:#D5DBE3;}
	.st13{fill-rule:evenodd;clip-rule:evenodd;fill:#DDF1F6;}
	.st14{fill-rule:evenodd;clip-rule:evenodd;fill:#879C9A;}
</style>
<rect y="0" class="st0" width="311" height="180.8"/>
<g>
	<g>
		<g>
			<g>
				<defs>
					<rect id="SVGID_1_" y="0" width="310" height="180"/>
				</defs>
				<clipPath id="SVGID_2_">
					<use xlink:href="#SVGID_1_"  style="overflow:visible;"/>
				</clipPath>
				<g class="st1">
					<path class="st2" d="M-130.3,127H222l4.9-5.3h55.5c-9.8,6.8-18.7,13.9-21.2,22.4h-361l-30.4-7.5L-130.3,127z"/>
					<path class="st3" d="M261.2,144.1h-361l79.2,17.3l282.8-0.5C274.5,160.8,273.4,150.6,261.2,144.1"/>
					<rect x="253.9" y="93.6" class="st4" width="4.1" height="28.1"/>
					<rect x="258" y="102.8" class="st4" width="4.4" height="3.3"/>
					<rect x="254.9" y="82.9" class="st4" width="1" height="10.7"/>
					<rect x="252.8" y="92.5" class="st4" width="3.1" height="6.2"/>
					<rect x="215.4" y="102.6" class="st5" width="15.8" height="8.2"/>
					<rect x="197.7" y="102.6" class="st6" width="15.8" height="8.2"/>
					<rect x="197.7" y="94.4" class="st5" width="15.8" height="8.2"/>
					<rect x="180" y="102.6" class="st6" width="15.8" height="8.2"/>
					<rect x="180" y="94.4" class="st5" width="15.8" height="8.2"/>
					<rect x="162.4" y="102.6" class="st6" width="15.8" height="8.2"/>
					<rect x="162.4" y="94.4" class="st6" width="15.8" height="8.2"/>
					<rect x="144.7" y="102.6" class="st5" width="15.8" height="8.2"/>
					<rect x="144.7" y="94.4" class="st5" width="15.8" height="8.2"/>
					<rect x="127" y="102.6" class="st6" width="15.8" height="8.2"/>
					<rect x="127" y="94.4" class="st7" width="15.8" height="8.2"/>
					<rect x="109.3" y="102.6" class="st6" width="15.8" height="8.2"/>
					<rect x="58.8" y="102.6" class="st8" width="15.8" height="8.2"/>
					<rect x="40.9" y="102.6" class="st9" width="15.8" height="8.2"/>
					<rect x="23" y="102.6" class="st9" width="15.8" height="8.2"/>
					<rect x="5.1" y="102.6" class="st9" width="15.8" height="8.2"/>
					<rect x="-12.9" y="102.6" class="st10" width="15.8" height="8.2"/>
					<rect x="109.3" y="94.4" class="st7" width="15.8" height="8.2"/>
					<rect x="58.8" y="94.4" class="st8" width="15.8" height="8.2"/>
					<rect x="40.9" y="94.4" class="st9" width="15.8" height="8.2"/>
					<rect x="23" y="94.4" class="st9" width="15.8" height="8.2"/>
					<rect x="5.1" y="94.4" class="st9" width="15.8" height="8.2"/>
					<rect x="-12.9" y="94.4" class="st10" width="15.8" height="8.2"/>
					<rect x="215.4" y="110.7" class="st6" width="15.8" height="8.2"/>
					<rect x="197.7" y="110.7" class="st5" width="15.8" height="8.2"/>
					<rect x="180" y="110.7" class="st7" width="15.8" height="8.2"/>
					<rect x="162.4" y="110.7" class="st7" width="15.8" height="8.2"/>
					<rect x="144.7" y="110.7" class="st7" width="15.8" height="8.2"/>
					<rect x="127" y="110.7" class="st6" width="15.8" height="8.2"/>
					<rect x="109.3" y="110.7" class="st6" width="15.8" height="8.2"/>
					<rect x="58.8" y="110.7" class="st8" width="15.8" height="8.2"/>
					<rect x="40.9" y="110.7" class="st9" width="15.8" height="8.2"/>
					<rect x="23" y="110.7" class="st8" width="15.8" height="8.2"/>
					<rect x="5.1" y="110.7" class="st8" width="15.8" height="8.2"/>
					<rect x="-12.9" y="110.7" class="st8" width="15.8" height="8.2"/>
					<rect x="215.4" y="118.9" class="st5" width="15.8" height="8.2"/>
					<rect x="197.7" y="118.9" class="st7" width="15.8" height="8.2"/>
					<rect x="180" y="118.9" class="st7" width="15.8" height="8.2"/>
					<rect x="162.4" y="118.9" class="st7" width="15.8" height="8.2"/>
					<rect x="144.7" y="118.9" class="st7" width="15.8" height="8.2"/>
					<rect x="127" y="118.9" class="st7" width="15.8" height="8.2"/>
					<rect x="109.3" y="118.9" class="st7" width="15.8" height="8.2"/>
					<rect x="58.8" y="118.9" class="st8" width="15.8" height="8.2"/>
					<rect x="40.9" y="118.9" class="st8" width="15.8" height="8.2"/>
					<rect x="23" y="118.9" class="st8" width="15.8" height="8.2"/>
					<rect x="5.1" y="118.9" class="st8" width="15.8" height="8.2"/>
					<rect x="-12.9" y="118.9" class="st8" width="15.8" height="8.2"/>
					<rect x="82.9" y="89.8" class="st4" width="21.3" height="37.3"/>
					<rect x="97.3" y="86.8" class="st4" width="9.3" height="6.3"/>
					<rect x="99.5" y="88.5" class="st11" width="7.1" height="1.6"/>
					<rect x="99.2" y="83.6" class="st12" width="3.1" height="3.3"/>
					<rect x="92.4" y="72.2" class="st4" width="1.7" height="17.6"/>
					<rect x="92.6" y="73.9" class="st12" width="2.9" height="1.2"/>
					<rect x="93" y="76.6" class="st12" width="2.9" height="1.2"/>
					<rect x="93.1" y="78.8" class="st12" width="4" height="2.5"/>
					<rect x="86.2" y="85.3" class="st4" width="3.3" height="4.4"/>
					<rect x="78.9" y="107" class="st13" width="25.3" height="4.6"/>
					<rect x="78.9" y="115.6" class="st13" width="25.3" height="4.6"/>
					<rect x="86.2" y="98.5" class="st14" width="2" height="2.4"/>
					<rect x="89.2" y="98.5" class="st14" width="2" height="2.4"/>
					<rect x="92.2" y="98.5" class="st14" width="2" height="2.4"/>
					<rect x="95.2" y="98.5" class="st14" width="2" height="2.4"/>
					<rect x="98.2" y="98.5" class="st14" width="2" height="2.4"/>
					<rect x="86.2" y="101.9" class="st14" width="2" height="2.4"/>
					<rect x="89.2" y="101.9" class="st14" width="2" height="2.4"/>
					<rect x="92.2" y="101.9" class="st14" width="2" height="2.4"/>
					<rect x="95.2" y="101.9" class="st14" width="2" height="2.4"/>
					<rect x="98.2" y="101.9" class="st14" width="2" height="2.4"/>
				</g>
			</g>
		</g>
	</g>
</g>
</svg>
