<?xml version="1.0" encoding="utf-8"?>
<!-- Generator: Adobe Illustrator 24.1.3, SVG Export Plug-In . SVG Version: 6.00 Build 0)  -->
<svg version="1.1" id="Layer_1" xmlns="http://www.w3.org/2000/svg" xmlns:xlink="http://www.w3.org/1999/xlink" x="0px" y="0px"
	 viewBox="0 0 244 244" style="enable-background:new 0 0 244 244;" xml:space="preserve">
<style type="text/css">
	.st0{fill:none;stroke:#FDC852;stroke-width:3;stroke-linecap:round;stroke-linejoin:round;}
</style>
<polyline class="st0" points="108,132.4 102.3,132.4 102.3,161.3 170.4,161.3 170.4,184.6 73.6,184.6 73.6,59.4 168.1,59.4 
	168.1,82.7 102.3,82.7 102.3,109.8 117.8,109.8 "/>
<path class="st0" d="M150.7,131.7c0-0.6-0.1-1.2-0.1-1.8l3.2-3l-3.9-6.8l-4.2,1.3c-1-0.8-2-1.4-3.2-1.8l-1-4.3h-7.9l-1,4.3
	c-1.1,0.5-2.2,1.1-3.2,1.8l-4.2-1.3l-3.9,6.8l3.2,3c-0.2,1.2-0.2,2.4,0,3.6l-3.2,3l3.9,6.8l4.2-1.3c1,0.8,2,1.4,3.2,1.8l1,4.3h7.9
	l1-4.3c1.1-0.5,2.2-1.1,3.2-1.8l4.2,1.3l3.9-6.8l-3.2-3C150.6,132.9,150.7,132.3,150.7,131.7z"/>
<circle class="st0" cx="137.5" cy="131.7" r="4.9"/>
<circle class="st0" cx="137.5" cy="93.9" r="4.9"/>
<path class="st0" d="M129.3,108.7v-4.9c0-2.7,3.7-4.9,8.2-4.9s8.2,2.2,8.2,4.9v4.9"/>
<circle class="st0" cx="111.2" cy="146.5" r="4.9"/>
<path class="st0" d="M104.7,161.3v-4.9c0-2.7,2.9-4.9,6.6-4.9s6.6,2.2,6.6,4.9v4.9"/>
<circle class="st0" cx="163.9" cy="146.5" r="4.9"/>
<path class="st0" d="M157.3,161.3v-4.9c0-2.7,2.9-4.9,6.6-4.9s6.6,2.2,6.6,4.9v4.9"/>
<path class="st0" d="M108.1,135.1c-0.1-1.1-0.2-2.3-0.2-3.4c0-10.6,5.7-20.4,14.9-25.7"/>
<path class="st0" d="M166.9,135.1c0.1-1.1,0.2-2.3,0.2-3.4c0-10.6-5.7-20.4-14.9-25.7"/>
</svg>
