<?xml version="1.0" encoding="utf-8"?>
<!-- Generator: Adobe Illustrator 24.1.3, SVG Export Plug-In . SVG Version: 6.00 Build 0)  -->
<svg version="1.1" id="Layer_1" xmlns="http://www.w3.org/2000/svg" xmlns:xlink="http://www.w3.org/1999/xlink" x="0px" y="0px"
	 viewBox="0 0 244 244" style="enable-background:new 0 0 244 244;" xml:space="preserve">
<style type="text/css">
	.st0{fill:none;stroke:#FDC852;stroke-width:3;stroke-linecap:round;stroke-linejoin:round;}
</style>
<path class="st0" d="M114.5,186.5c-2.3-0.2-4.6-0.4-6.9-0.8c-4.7-0.8-9.4-2-13.8-3.7c-16.1-6-29-18.3-35.7-34
	c-3.5-8.2-5.2-17-5.1-25.9c-0.1-8.9,1.6-17.7,5.1-25.9c3.3-7.8,8.2-14.7,14.3-20.6c6.2-5.9,13.5-10.5,21.5-13.5
	c8.6-3.2,17.8-4.8,27-4.7c10.1-0.1,20.1,1.8,29.4,5.6c8.6,3.6,16.2,9.3,22.1,16.5l-18.6,17.2c-3.9-4.6-8.8-8.4-14.3-11
	c-5.4-2.5-11.2-3.7-17.2-3.7c-5.5-0.1-10.9,0.9-16.1,2.9c-4.8,1.8-9.1,4.6-12.7,8.2c-3.6,3.6-6.4,7.9-8.3,12.7
	c-3.9,10.5-3.9,22,0,32.5c1.9,4.8,4.7,9.1,8.3,12.7c3.6,3.6,7.9,6.4,12.7,8.2c0.5,0.2,0.9,0.4,1.4,0.5c2.2,0.8,4.5,1.3,6.9,1.7"/>
<path class="st0" d="M151.8,135.6c3.8-5.1,5.6-7.8,11.8-7.8h9.8c4.9,0,11.8,1.9,11.8,9.8v11.8"/>
<polyline class="st0" points="161.6,149.3 161.6,141.5 159.6,141.5 155.7,143.4 "/>
<line class="st0" x1="177.3" y1="139.5" x2="177.3" y2="149.3"/>
<path class="st0" d="M132.2,186.6v-47.1h2.1c0,0,4.5,3.4,7.7,5.9c5,3.8,10.6-1,10.6-1s-7.3-7.7-10.6-10.7c-3.5-3.2-7.4-5.9-13.7-5.9
	h-9.8c-4.9,0-11.8,2.7-11.8,11.8v7.8c0,4.3,4.3,7.8,7.8,7.8"/>
<line class="st0" x1="114.5" y1="137.6" x2="114.5" y2="186.6"/>
<line class="st0" x1="122.4" y1="159.1" x2="122.4" y2="186.6"/>
<path class="st0" d="M123.3,106.2c-3.6,0-6.9,2.6-6.9,6.3v3.1c0,3.7,3.2,6.3,6.9,6.3s6.9-2.6,6.9-6.3v-3.1
	C130.2,108.8,127,106.2,123.3,106.2z"/>
<path class="st0" d="M170.4,106.2c-3.6,0-6.9,2.6-6.9,6.3v3.1c0,3.7,3.2,6.3,6.9,6.3s6.9-2.6,6.9-6.3v-3.1
	C177.3,108.8,174.1,106.2,170.4,106.2z"/>
<polyline class="st0" points="171.4,163.1 191,163.1 191,155.2 138.1,155.2 "/>
<line class="st0" x1="185.1" y1="163.1" x2="185.1" y2="186.6"/>
<line class="st0" x1="185.1" y1="178.8" x2="138.1" y2="178.8"/>
<line class="st0" x1="157.7" y1="163.1" x2="138.1" y2="163.1"/>
</svg>
