<?xml version="1.0" encoding="utf-8"?>
<!-- Generator: Adobe Illustrator 24.1.3, SVG Export Plug-In . SVG Version: 6.00 Build 0)  -->
<svg version="1.1" id="Layer_1" xmlns="http://www.w3.org/2000/svg" xmlns:xlink="http://www.w3.org/1999/xlink" x="0px" y="0px"
	 viewBox="0 0 244 244" style="enable-background:new 0 0 244 244;" xml:space="preserve">
<style type="text/css">
	.st0{fill:none;stroke:#FDC852;stroke-width:3;stroke-linecap:round;stroke-linejoin:round;}
</style>
<path class="st0" d="M146.5,161h21.3v23.6H76.2v-79.1"/>
<path class="st0" d="M144.3,153.9v-4.7c0-2.7,6.5-7,11.8-7s11.8,4.4,11.8,7v14.1"/>
<path class="st0" d="M156.1,142c-4.2,0-7.1-3.6-7.1-8v-2.7c0-4.4,2.8-8,7.1-8s7.1,3.6,7.1,8v2.7C163.1,138.4,160.3,142,156.1,142z"
	/>
<path class="st0" d="M116,135.1v-4.7c0-2.7,6.5-7,11.8-7s11.8,4.4,11.8,7v9.4"/>
<path class="st0" d="M127.8,123.2c-4.2,0-7.1-3.6-7.1-8v-2.7c0-4.4,2.8-8,7.1-8s7.1,3.6,7.1,8v2.7
	C134.9,119.6,132.1,123.2,127.8,123.2z"/>
<path class="st0" d="M101.9,102.1V95c0-2.7,6.5-7,11.8-7s11.8,4.4,11.8,7v2.4"/>
<path class="st0" d="M113.7,87.9c-4.2,0-7.1-3.6-7.1-8v-2.7c0-4.4,2.8-8,7.1-8s7.1,3.6,7.1,8v2.7C120.7,84.3,117.9,87.9,113.7,87.9z
	"/>
<path class="st0" d="M76,120.9v-40h-7.1l13.2-21.2l12.7,21.2h-7.1v40c0,24.3,20.3,40,42.4,40h21.2"/>
<path class="st0" d="M117.2,146.3c-12.3-6.1-13.3-18.1-13.7-22.5c-0.3-3.5-0.4-4.7-0.4-4.7"/>
</svg>
