<?xml version="1.0" encoding="utf-8"?>
<!-- Generator: Adobe Illustrator 24.1.3, SVG Export Plug-In . SVG Version: 6.00 Build 0)  -->
<svg version="1.1" id="Layer_1" xmlns="http://www.w3.org/2000/svg" xmlns:xlink="http://www.w3.org/1999/xlink" x="0px" y="0px"
	 viewBox="0 0 244 244" style="enable-background:new 0 0 244 244;" xml:space="preserve">
<style type="text/css">
	.st0{fill:none;stroke:#FDC852;stroke-width:3;stroke-linecap:round;stroke-linejoin:round;}
</style>
<path class="st0" d="M157.7,174.6l4.1,9.9h30.4L136.2,59.5h-28.6L51.9,184.5h29.7l4.1-9.9 M110.7,114.3l11-26.4l11.2,26.9"/>
<path class="st0" d="M138.5,133.3c8.3,0,14.9,4.5,14.9,9.9v18.2"/>
<path class="st0" d="M138.5,128.4c-3.5,0.2-6.5-2.6-6.6-6.1c0-0.2,0-0.4,0-0.6v-3.3c0-3.7,3-6.6,6.6-6.6c3.6,0,6.6,3,6.6,6.6v3.3
	c0.2,3.5-2.6,6.5-6.1,6.6C138.9,128.4,138.7,128.4,138.5,128.4z"/>
<line class="st0" x1="146.8" y1="144.9" x2="146.8" y2="161.4"/>
<path class="st0" d="M138.5,133.3c-5.7,0-10.7,2.2-13.2,5.3"/>
<line class="st0" x1="130.3" y1="159.8" x2="130.3" y2="184.5"/>
<line class="st0" x1="146.8" y1="174.6" x2="146.8" y2="184.5"/>
<line class="st0" x1="136.9" y1="161.4" x2="136.9" y2="184.5"/>
<rect x="143.5" y="161.4" class="st0" width="16.5" height="13.2"/>
<path class="st0" d="M105.5,133.3c-8.3,0-14.9,4.5-14.9,9.9v18.2"/>
<path class="st0" d="M105.5,128.4c3.5,0.2,6.5-2.6,6.6-6.1c0-0.2,0-0.4,0-0.6v-3.3c0-3.7-3-6.6-6.6-6.6c-3.7,0-6.6,3-6.6,6.6v3.3
	c-0.2,3.5,2.6,6.5,6.1,6.6C105.1,128.4,105.3,128.4,105.5,128.4z"/>
<line class="st0" x1="97.2" y1="144.9" x2="97.2" y2="161.4"/>
<path class="st0" d="M105.5,133.3c5.7,0,10.7,2.2,13.2,5.3"/>
<line class="st0" x1="113.7" y1="159.8" x2="113.7" y2="184.5"/>
<line class="st0" x1="97.2" y1="174.6" x2="97.2" y2="184.5"/>
<line class="st0" x1="107.1" y1="161.4" x2="107.1" y2="184.5"/>
<rect x="84" y="161.4" class="st0" width="16.5" height="13.2"/>
<polyline class="st0" points="110.4,143.2 103.8,149.8 110.4,156.5 "/>
<line class="st0" x1="103.8" y1="149.8" x2="117" y2="149.8"/>
<polyline class="st0" points="133.6,143.2 140.2,149.8 133.6,156.5 "/>
<line class="st0" x1="140.2" y1="149.8" x2="127" y2="149.8"/>
<line class="st0" x1="120.3" y1="149.8" x2="123.7" y2="149.8"/>
</svg>
