<?xml version="1.0" encoding="utf-8"?>
<!-- Generator: Adobe Illustrator 24.1.3, SVG Export Plug-In . SVG Version: 6.00 Build 0)  -->
<svg version="1.1" id="Layer_1" xmlns="http://www.w3.org/2000/svg" xmlns:xlink="http://www.w3.org/1999/xlink" x="0px" y="0px"
	 viewBox="0 0 244 244" style="enable-background:new 0 0 244 244;" xml:space="preserve">
<style type="text/css">
	.st0{fill:none;stroke:#FDC852;stroke-width:3;stroke-linecap:round;stroke-linejoin:round;}
</style>
<path class="st0" d="M66.6,98.8v85.8h29v-34.8h25.2c0.5,0,0.9,0,1.3,0l24,34.9h31.3l-28-40.1c0.1,0,0.2-0.1,0.2-0.1
	c7.6-3.2,14.2-8.6,18.8-15.5c4.4-6.7,6.6-14.7,6.6-24c0-9.4-2.2-17.5-6.6-24.3c-4.6-6.9-11.1-12.4-18.8-15.6
	c-8.1-3.6-17.8-5.5-29-5.5 M130.8,84.5c3.1,0.8,5.9,2.3,8.3,4.3c4.4,3.8,6.6,9.2,6.6,16.1c0,6.8-2.2,12.1-6.6,16"/>
<path class="st0" d="M145.2,98.8h-12.5c-1.8,0-3.5-0.5-5-1.5l-0.9-0.6c-1.5-1-3.2-1.5-5-1.5h-13.5c-1.3,0-2.5,0.5-3.5,1.3l-5.1,5.2
	c0,0-2.6,2.7-5.3,5.5c2,2.3,5.3,3.1,8.2,2c2.1-0.9,4-1.9,5.8-3.2h4.5l6.7,6.2"/>
<path class="st0" d="M131.7,124.1c1.7-1.7,3.7-2.2,6.4-2.2"/>
<path class="st0" d="M119.7,112.1c0,0,9.3,9.7,11.9,12s-1,8.4-5.3,5.1c-2.6-2.2-10.8-10.1-10.8-10.1"/>
<path class="st0" d="M127.6,129.9c-0.8,1.9-4,6.3-8,3.2c-2.6-2.2-7.9-7.3-7.9-7.3"/>
<path class="st0" d="M121.1,134c-1.8,3.7-5.1,5.2-8,2.9c-2-1.6-5.2-4.8-5.2-4.8"/>
<path class="st0" d="M114.1,137.5c-1.1,2.8-4.3,4.5-6.8,2.9c-1.5-0.9-4.1-2.9-4.1-2.9"/>
<path class="st0" d="M66.6,98.8h15.7c1.4,0,2.8-0.4,4-1.2l1.8-1.2c1.2-0.8,2.6-1.2,4-1.2h8.6c0.8,0,1.6,0.3,2.2,0.7l1.5,1"/>
<path class="st0" d="M86.8,126.7c1.1-1.1,1.1-3,0-4.1c-0.1-0.1-0.1-0.1-0.2-0.2l0,0c-1.2-1.3-3.3-1.3-4.6-0.1c0,0,0,0,0,0l-1.8,1.8
	c-1.3,1.3-1.3,3.3-0.1,4.6c1.3,1.3,3.3,1.3,4.6,0.1"/>
<path class="st0" d="M94.2,124L94.2,124c-1.3-1.3-3.3-1.3-4.6-0.1c0,0,0,0,0,0l-5.3,5.2c-1.3,1.3-1.3,3.3-0.1,4.6
	c1.3,1.3,3.3,1.3,4.6,0.1l0,0l5.3-5.2C95.4,127.3,95.4,125.3,94.2,124z"/>
<path class="st0" d="M89.7,132.9c-1.3,1.2-1.3,3.3-0.1,4.6c1.2,1.3,3.3,1.3,4.6,0.1l4.9-4.7c1.3-1.2,1.3-3.3,0.1-4.6l0,0
	c-1.2-1.3-3.3-1.3-4.6-0.1c0,0,0,0,0,0"/>
<path class="st0" d="M96.5,135.3c-1.3,1.3-1.3,3.3,0,4.6c1.3,1.3,3.3,1.3,4.6,0l1.2-1.2c1.3-1.3,1.3-3.3,0.1-4.6l0,0
	c-1.2-1.3-3.3-1.3-4.6-0.1c0,0,0,0,0,0"/>
<path class="st0" d="M127.3,113.7c-4.3,0.9-5.3-0.2-7.6-1.6"/>
<path class="st0" d="M80,124.2c-1.8-1.5-4-2.2-6.3-2.1"/>
<polyline class="st0" points="130.9,91.6 130.9,59.4 84.5,59.4 77.3,66.6 77.3,93.4 "/>
<polyline class="st0" points="88,64.8 88,70.2 82.7,70.2 "/>
<line class="st0" x1="93.4" y1="79.1" x2="118.4" y2="79.1"/>
<line class="st0" x1="93.4" y1="86.3" x2="107.7" y2="86.3"/>
<line class="st0" x1="89.8" y1="95.2" x2="109.5" y2="95.2"/>
</svg>
