<?xml version="1.0" encoding="utf-8"?>
<!-- Generator: Adobe Illustrator 24.1.3, SVG Export Plug-In . SVG Version: 6.00 Build 0)  -->
<svg version="1.1" id="Layer_1" xmlns="http://www.w3.org/2000/svg" xmlns:xlink="http://www.w3.org/1999/xlink" x="0px" y="0px"
	 viewBox="0 0 244 244" style="enable-background:new 0 0 244 244;" xml:space="preserve">
<style type="text/css">
	.st0{fill:#468AC9;}
	.st1{fill:none;stroke:#468AC9;stroke-width:8;stroke-miterlimit:10;}
</style>
<g>
	<path class="st0" d="M104.7,109.2c-1.8-0.9-4.1-0.2-5,1.6c-4.5,8.6-9.1,23.6-5.8,45.7c0.3,1.8,1.8,3.2,3.7,3.2l0.5,0
		c2-0.3,3.4-2.2,3.1-4.2c-2.9-20.2,1.1-33.6,5.1-41.3C107.2,112.3,106.5,110.1,104.7,109.2z M79.1,153.8c-2,0.3-3.5,2.1-3.3,4.1
		c0.3,2,2.1,3.5,4.1,3.2c0.3,0,1.5,0.5,2.2,1.5c0.6,0.8,0.5,1.5,0.4,1.9c-0.2,0.7-1.7,1.2-3.9,2c-5.1,1.7-13.7,4.6-13,18.7
		c0.9,18.6,16.2,35.3,29.8,40.1l1.2,0.2c1.5,0,2.9-0.9,3.5-2.5c0.7-1.9-0.3-4-2.3-4.7c-11.4-4-24.2-18.5-24.9-33.5
		c-0.4-8.6,3.1-9.7,7.9-11.3c3.4-1.1,7.6-2.5,8.8-7.2c0.8-3.1-0.1-6.3-2.4-8.9C85.1,154.9,81.8,153.4,79.1,153.8z M109.1,229.4
		l1.1,0.2c1.6,0,3-1,3.5-2.6c0.6-1.9-0.5-3.9-2.3-4.6c-1.8-0.7-3.6,0.2-4.4,2C106.1,226.3,107.2,228.6,109.1,229.4z M187.2,96.5
		c-1.8-1-4-0.5-5.1,1.3c-1.5,2.6-6.1,1.3-6.1-1.7c0-1.8,1.5-3.3,3.3-3.3c2,0,3.7-1.7,3.7-3.7c0-2-1.7-3.7-3.7-3.7
		c-5.9,0-10.7,4.8-10.7,10.7c0,5.9,4.8,10.7,10.7,10.7c3.8,0,7.3-2,9.2-5.3C189.6,99.8,189,97.6,187.2,96.5z M204.5,68.6
		c-2-0.4-4,0.9-4.4,2.9c-0.5,2.4-2.6,4.1-5,4.1c-2.8,0-5.1-2.3-5.1-5.1c0-2.8,2.3-5.1,5.1-5.1c2,0,3.7-1.7,3.7-3.7
		c0-2-1.7-3.7-3.7-3.7c-6.9,0-12.5,5.6-12.5,12.5c0,6.9,5.6,12.5,12.5,12.5c5.9,0,11.1-4.2,12.3-10C207.8,71,206.5,69.1,204.5,68.6z
		 M57.7,101.5l-0.7-0.3c-2-0.6-4.2,0.4-4.8,2.4c-0.6,1.9,0.3,3.9,2.2,4.5l1.6,0.4c1.4,0,2.7-0.8,3.3-2
		C60.2,104.6,59.5,102.4,57.7,101.5z M110.2,104.3c1.4,0,2.7-0.8,3.4-2.1c0.9-1.9,0-4.1-1.8-4.9l-0.6-0.2c-2-0.6-4.2,0.4-4.8,2.4
		c-0.6,1.9,0.3,4,2.3,4.6L110.2,104.3z M122,0C54.6,0,0,54.6,0,122c0,67.4,54.6,122,122,122c67.4,0,122-54.6,122-122
		C244,54.6,189.4,0,122,0z M41,203c-14.3-14.3-24.7-32.5-29.9-52.7c14.5-10.2,35.5-16.4,54.5-11.7c2.9,0.7,4.7,2.1,4.6,3.5
		c-0.1,1.5-2.1,3.2-5.5,3.6c-8.3,0.9-14.6,3.9-18.7,9.1c-4.9,6.2-6.6,15.3-5.1,27.2c1.5,12,8.4,24.9,17.9,35.6
		C52.5,213.4,46.4,208.5,41,203z M179.8,220.9c-27.3,2.3-75.8-16.7-87.3-39.2c-0.9-1.8-3.2-2.6-5-1.6c-1.8,0.9-2.5,3.1-1.6,5
		c10.9,21.5,50,39.6,80,42.9c-13.5,5.6-28.3,8.7-43.9,8.7c-10.1,0-19.9-1.4-29.2-3.9c-20.9-7.1-41.9-31.3-44.5-51.6
		c-1.3-9.8-0.1-17.1,3.5-21.7c2.9-3.6,7.3-5.7,13.6-6.4c6.7-0.7,11.7-5,12.1-10.4c0.3-4.1-2.2-9.2-10.2-11.2c-1.7-0.4-3.3-0.7-5-1
		c2.4-0.7,5.3-1.2,7.9-1.7c5.4-0.9,10.6-1.8,13.8-4.6c4.7-4,5.2-9.3,4.4-13.4c4-1.9,8.2-5.9,7.7-13.2c-0.2-2.9,0.7-3.6,6.5-4.8
		c4.4-0.9,9.8-2.1,11.8-7.5c1.2-3.1,0.7-6.3-1.3-8.9c-3.3-4.3-10.2-6.2-18.8-5.3C80.3,72.6,66.1,81,60,91.4c-1,1.8-0.4,4,1.3,5.1
		c1.8,1,4,0.4,5.1-1.3c4.9-8.4,17.1-15.5,28.9-16.7c6.6-0.7,10.9,0.7,12.2,2.4c0.3,0.4,0.5,0.9,0.2,1.7c-0.6,1.5-2.9,2.1-6.5,2.9
		c-4.9,1.1-13,2.8-12.4,12.6c0.4,5.3-4.1,6.4-5.5,6.6c-1.2,0.2-2.2,0.9-2.8,1.9c-0.6,1-0.6,2.3-0.1,3.4c0.3,0.5,2.5,5.4-1.3,8.5
		c-1.7,1.5-6.3,2.2-10.3,2.9c-7,1.2-14.9,2.6-18.5,8.2c-15,0.3-29.6,5.4-41.2,12.9c-0.9-5.1-1.5-10.3-1.7-15.5
		c6.4-4.2,13.4-10.3,20.5-19.5c21.7-28.1,27.2-33.4,41.9-40.8c0.7-0.4,1.5-0.7,2.3-1.1c6.2-2.9,16.5-7.6,17.4-20.7
		c0.1-1.2,0.5-5.1,2.9-5.1c1.8,0,3.2,1.3,3.3,3.2c0.1,1.5,1.1,2.7,2.5,3.2c1.4,0.5,2.9,0,3.9-1.1c7.2-8.1,21.3-14.1,33-14.1l0.5,0
		c5.3,0.1,9.3,1.4,11.3,3.8c0.4,0.4,0.9,1.2,0.5,2.1c-0.4,0.7-1.6,1.4-3.7,1.3c-4.4-0.3-8.7,1.6-11.2,5.1c-2.4,3.4-2.7,7.6-0.9,11.7
		c0.6,1.3,0.5,2.6-0.1,3.3c-0.8,0.9-2.7,0.8-4.8-0.1c-7-3-16.5-5.8-28,0.1c-1.8,0.9-2.5,3.2-1.6,5c0.9,1.8,3.2,2.5,5,1.6
		c8.6-4.4,15.5-2.6,21.6,0.1c5,2.2,9.9,1.6,13-1.5c1.4-1.4,2.2-3.1,2.5-5c5.6-1.6,10-1.2,12.3-0.1c1.2,0.6,2,1.4,2.3,2.4
		c0.5,1.7,0,2.4-1.5,4.3c-1.7,2.1-4.5,5.6-2.1,11c0.8,1.7,1.9,5.1,0.2,8.3c-1.4,2.7-4.6,4.7-9.3,5.8c-3.5-2.4-8.6-3-14.6-1.6
		c-2,0.5-3.2,2.5-2.7,4.5c0.5,2,2.5,3.2,4.5,2.7c5.2-1.2,8.3-0.3,9.4,0.8c0.7,0.8,0.8,2,0.3,3.6c-0.4,1.5-2.1,2.2-6,3.7
		c-5.8,2.2-13.7,5.2-19.2,15.6c-4.7,9-10.5,36.4,3.2,59.6c12.6,21.2,37.2,33,72.9,35.3C186.3,216.8,183.1,218.9,179.8,220.9z
		 M212.9,191.6c-19.7-0.8-66.9-15.6-79.8-40.1c-1-1.8-3.2-2.5-5-1.5c-1.8,1-2.5,3.2-1.5,5c13.2,24.8,55.6,40.7,80.6,43.6
		c-1.4,1.5-2.7,3.1-4.1,4.5c-1.6,1.6-3.3,3.1-5,4.6c-37.7-0.8-63-11.6-75.2-32.1c-12.2-20.5-7.2-44.6-3-52.4
		c2.2-4.2,4.8-6.7,7.6-8.5c3.4,23.8,29.4,59.1,91,69.3C216.7,186.5,214.9,189.1,212.9,191.6z M134.5,111.1c0.2-0.1,0.4-0.1,0.6-0.2
		c4.4-1.7,8.9-3.4,10.5-8.5c0.6-2,0.7-3.9,0.4-5.7c6.7-2.2,9.9-5.9,11.5-8.9c2.3-4.4,2.2-9.8-0.1-14.8c-0.5-1.1-0.5-1.3,1.1-3.3
		c1.7-2.2,4.4-5.5,2.9-10.9c-0.8-3-2.9-5.5-6.1-7.1c-4.4-2.2-10.4-2.3-16.7-0.7c-0.3-1.3-0.3-2.5,0.4-3.5c1-1.4,2.7-2.3,4.6-2
		c4.9,0.3,9-1.7,10.8-5.3c1.7-3.3,1.1-7.2-1.4-10.2c-3.4-4.1-9.3-6.3-16.9-6.4l-0.6,0c-11.9,0-25.5,5.1-34.6,12.7
		c-2-2.5-4.8-3.8-8.3-4c-4.3,0.1-9.6,3.2-10.2,12c-0.6,8.7-7.2,11.8-13.1,14.5c-0.9,0.4-1.8,0.8-2.6,1.2
		c-16.7,8.4-23.3,15.6-44.4,42.9c-5.1,6.5-10.1,11.4-14.7,15C8.7,88,21.1,60.9,41,41C61.7,20.2,90.4,7.4,122,7.4
		c31.7,0,60.3,12.8,81,33.6c20.7,20.7,33.6,49.4,33.6,81c0,19.9-5.1,38.7-14.1,55C158.2,167.4,135.9,129.9,134.5,111.1z"/>
</g>
<circle class="st1" cx="122.1" cy="122" r="116.4"/>
</svg>
