<svg xmlns="http://www.w3.org/2000/svg" viewBox="0 0 156.2874 70.76944"><defs><style>.cls-1{fill:none;stroke:#fbb03b;stroke-miterlimit:10;stroke-width:0.5px;}.cls-2{fill:#fbb03b;}</style></defs><g id="Layer_2" data-name="Layer 2"><g id="Layer_3" data-name="Layer 3"><polyline class="cls-1" points="10.268 55.213 31.588 33.893 156.252 33.893"/><path class="cls-2" d="M6.20422,53.94079a6.20319,6.20319,0,0,0-2.99559,11.6357l1.46282,2.54083,1.53277,2.65212L7.737,68.11732l1.466-2.54083a6.20429,6.20429,0,0,0-2.99875-11.6357Zm0,9.53687A3.33424,3.33424,0,1,1,9.54005,60.145,3.33182,3.33182,0,0,1,6.20422,63.47766Z"/><path class="cls-2" d="M40.32011,26.41016V21.50977h2.01563a2.70815,2.70815,0,0,1,1.1167.21,1.62232,1.62232,0,0,1,.71728.60254,1.84657,1.84657,0,0,1,0,1.8623,1.62045,1.62045,0,0,1-.71728.60156,2.70815,2.70815,0,0,1-1.1167.21H40.824l.40576-.42675v1.84082Zm.90967-1.74317-.40576-.44043h1.46973a1.38492,1.38492,0,0,0,.90674-.25586,1.00238,1.00238,0,0,0,0-1.43847,1.39646,1.39646,0,0,0-.90674-.252H40.824l.40576-.44824Z"/><path class="cls-2" d="M46.18584,26.41016V22.28027h-1.624v-.7705H48.72v.7705H47.096v4.12989Z"/><path class="cls-2" d="M51.33818,26.41016V21.50977h.749l2.14161,3.57714H53.8372l2.10694-3.57714h.749L56.7,26.41016h-.86084l-.00733-3.54883H56.014l-1.792,2.98926h-.40576L51.9959,22.86133h.21v3.54883Z"/><path class="cls-2" d="M58.93242,26.41016h-.90967V21.50977h.90967Zm2.604-2.09961H58.85576V23.5332h2.68066Zm-.06982-2.80078h.91015v4.90039H61.4666Z"/><path class="cls-2" d="M64.60234,25.64746h2.76514v.7627H63.69267V21.50977h3.57666v.76367h-2.667Zm-.06982-2.10058h2.436v.749h-2.436Z"/><path class="cls-2" d="M69.90117,26.48047a3.66331,3.66331,0,0,1-1.09863-.165,2.40424,2.40424,0,0,1-.833-.42285l.31494-.707a2.55747,2.55747,0,0,0,.728.38476,2.64073,2.64073,0,0,0,.88867.1543,1.92076,1.92076,0,0,0,.62305-.084.74934.74934,0,0,0,.35009-.22754.51559.51559,0,0,0,.11231-.32618.44854.44854,0,0,0-.16113-.36035,1.19263,1.19263,0,0,0-.41651-.21679q-.25562-.08058-.56689-.15039-.312-.07032-.623-.165a2.54737,2.54737,0,0,1-.56689-.24512,1.21608,1.21608,0,0,1-.41651-.40234,1.1733,1.1733,0,0,1-.16113-.64356,1.32277,1.32277,0,0,1,.21338-.73144,1.469,1.469,0,0,1,.65088-.53223,2.68535,2.68535,0,0,1,1.10986-.19922,3.50991,3.50991,0,0,1,.875.11133,2.55876,2.55876,0,0,1,.75586.32226l-.28711.707a2.66959,2.66959,0,0,0-.6792-.29,2.55536,2.55536,0,0,0-.67187-.09473,1.723,1.723,0,0,0-.61231.09082.74225.74225,0,0,0-.34326.23828.55059.55059,0,0,0-.1084.33594.45322.45322,0,0,0,.15772.36035,1.12114,1.12114,0,0,0,.41308.21387c.16992.05078.36035.10156.57031.15039s.419.10351.62647.16406a2.60216,2.60216,0,0,1,.56689.23828,1.16139,1.16139,0,0,1,.41309.39844,1.18478,1.18478,0,0,1,.15771.63769,1.315,1.315,0,0,1-.21386.72461,1.46422,1.46422,0,0,1-.6543.53125A2.69344,2.69344,0,0,1,69.90117,26.48047Z"/><path class="cls-2" d="M74.71757,26.41016V21.50977h.90967v4.90039Z"/><path class="cls-2" d="M76.95049,26.41016V21.50977h.749l3.07275,3.77343h-.37109V21.50977h.90332v4.90039h-.749l-3.07325-3.77344h.3711v3.77344Z"/><path class="cls-2" d="M83.61406,26.41016V22.28027H81.99v-.7705h4.1582v.7705h-1.624v4.12989Z"/><path class="cls-2" d="M87.74394,25.64746h2.76514v.7627H86.83427V21.50977h3.57666v.76367h-2.667Zm-.06982-2.10058h2.436v.749h-2.436Z"/><path class="cls-2" d="M91.5247,26.41016V21.50977h2.01563a2.70815,2.70815,0,0,1,1.1167.21,1.62232,1.62232,0,0,1,.71728.60254,1.684,1.684,0,0,1,.252.93066,1.66723,1.66723,0,0,1-.252.92773,1.607,1.607,0,0,1-.71728.59473,2.74162,2.74162,0,0,1-1.1167.207H92.02861l.40576-.41308v1.84082Zm.90967-1.74317-.40576-.43359h1.46973a1.37382,1.37382,0,0,0,.90673-.25879.89571.89571,0,0,0,.3042-.72168.88184.88184,0,0,0-.3042-.7207,1.39641,1.39641,0,0,0-.90673-.252H92.02861l.40576-.44824Zm2.2959,1.74317L93.4915,24.63184h.97315l1.24609,1.77832Z"/><path class="cls-2" d="M97.55107,26.41016H96.6414V21.50977h.90967Zm2.604-2.09961H97.47441V23.5332h2.68066Zm-.06982-2.80078h.91016v4.90039h-.91016Z"/><path class="cls-2" d="M104.41826,26.48047a2.14114,2.14114,0,0,1-1.57861-.56738,2.20871,2.20871,0,0,1-.57032-1.6377V21.50977h.90967v2.73046a1.55606,1.55606,0,0,0,.32568,1.09864,1.39954,1.39954,0,0,0,1.83741,0,1.568,1.568,0,0,0,.32226-1.09864V21.50977h.896v2.76562a2.20894,2.20894,0,0,1-.5708,1.6377A2.13178,2.13178,0,0,1,104.41826,26.48047Z"/><path class="cls-2" d="M107.83427,26.41016V21.50977h2.2959a2.21679,2.21679,0,0,1,1.34375.34668,1.10112,1.10112,0,0,1,.46192.92773,1.19176,1.19176,0,0,1-.18164.669,1.22434,1.22434,0,0,1-.48682.42675,1.46686,1.46686,0,0,1-.66113.15039l.126-.252a1.75987,1.75987,0,0,1,.7417.15039,1.231,1.231,0,0,1,.52149.4375,1.25419,1.25419,0,0,1,.19287.71387,1.14153,1.14153,0,0,1-.4834.98047,2.4361,2.4361,0,0,1-1.43457.34961Zm.90967-.71387h1.47022a1.50157,1.50157,0,0,0,.78369-.168.66423.66423,0,0,0,0-1.07422,1.47984,1.47984,0,0,0-.78369-.17187h-1.54v-.707H110.032a1.328,1.328,0,0,0,.73144-.168.6316.6316,0,0,0,0-1.01465,1.32787,1.32787,0,0,0-.73144-.168h-1.28809Z"/><path class="cls-2" d="M115.09306,26.41016V21.50977h.90967v4.90039Z"/><path class="cls-2" d="M117.326,26.41016V21.50977h.749l3.07275,3.77343h-.37109V21.50977H121.68v4.90039h-.749l-3.07324-3.77344h.3711v3.77344Z"/><path class="cls-2" d="M122.9959,26.41016V21.50977h2.1416a3.03786,3.03786,0,0,1,1.40039.30859,2.3157,2.3157,0,0,1,.938.85352,2.63186,2.63186,0,0,1,0,2.57324,2.3112,2.3112,0,0,1-.938.85742,3.03768,3.03768,0,0,1-1.40039.30762Zm.90966-.76953h1.18994a2.03214,2.03214,0,0,0,.95557-.21094,1.51214,1.51214,0,0,0,.62305-.58789,1.8799,1.8799,0,0,0,0-1.76758,1.52209,1.52209,0,0,0-.62305-.584,2.044,2.044,0,0,0-.95557-.21h-1.18994Z"/><path class="cls-2" d="M131.074,26.48047a2.87818,2.87818,0,0,1-1.05713-.18945,2.55091,2.55091,0,0,1-.83984-.52832,2.38135,2.38135,0,0,1-.55323-.79786,2.674,2.674,0,0,1,0-2.00879,2.38522,2.38522,0,0,1,.55323-.79882,2.56664,2.56664,0,0,1,.83984-.52832,3.02876,3.02876,0,0,1,2.10352,0,2.57175,2.57175,0,0,1,.83642.52832,2.38522,2.38522,0,0,1,.55323.79882,2.53035,2.53035,0,0,1,.1958,1.00391,2.55638,2.55638,0,0,1-.1958,1.00781,2.33744,2.33744,0,0,1-.55323.79883,2.59529,2.59529,0,0,1-.83642.52442A2.83012,2.83012,0,0,1,131.074,26.48047Zm-.00732-.79785a1.8298,1.8298,0,0,0,.686-.126,1.58906,1.58906,0,0,0,.54639-.36133,1.69868,1.69868,0,0,0,.36035-.5459,1.90155,1.90155,0,0,0,0-1.3789,1.70939,1.70939,0,0,0-.36035-.5459,1.58661,1.58661,0,0,0-.54639-.36035,1.8298,1.8298,0,0,0-.686-.126,1.80225,1.80225,0,0,0-.68213.126,1.62907,1.62907,0,0,0-.54639.36035,1.67907,1.67907,0,0,0-.36377.5459,1.89374,1.89374,0,0,0,0,1.376,1.69048,1.69048,0,0,0,.36035.54883,1.58445,1.58445,0,0,0,.54639.36133A1.82907,1.82907,0,0,0,131.0667,25.68262Z"/><path class="cls-2" d="M134.67168,26.41016V21.50977h.749l3.07275,3.77343h-.37109V21.50977h.90332v4.90039h-.749l-3.07325-3.77344h.3711v3.77344Z"/><path class="cls-2" d="M141.25175,25.64746h2.76514v.7627h-3.6748V21.50977h3.57666v.76367h-2.667Zm-.06982-2.10058h2.436v.749h-2.436Z"/><path class="cls-2" d="M146.55058,26.48047a3.6634,3.6634,0,0,1-1.09863-.165,2.40424,2.40424,0,0,1-.833-.42285l.31494-.707a2.55747,2.55747,0,0,0,.728.38476,2.64073,2.64073,0,0,0,.88867.1543,1.92068,1.92068,0,0,0,.62305-.084.74943.74943,0,0,0,.3501-.22754.51564.51564,0,0,0,.1123-.32618.44854.44854,0,0,0-.16113-.36035,1.19249,1.19249,0,0,0-.4165-.21679q-.25562-.08058-.5669-.15039-.312-.07032-.62305-.165a2.54757,2.54757,0,0,1-.56689-.24512,1.21605,1.21605,0,0,1-.4165-.40234,1.17321,1.17321,0,0,1-.16114-.64356,1.32277,1.32277,0,0,1,.21338-.73144,1.469,1.469,0,0,1,.65088-.53223,2.68535,2.68535,0,0,1,1.10986-.19922,3.50985,3.50985,0,0,1,.875.11133,2.55865,2.55865,0,0,1,.75586.32226l-.28711.707a2.66944,2.66944,0,0,0-.6792-.29,2.55531,2.55531,0,0,0-.67187-.09473,1.723,1.723,0,0,0-.61231.09082.74236.74236,0,0,0-.34326.23828.55065.55065,0,0,0-.1084.33594.45325.45325,0,0,0,.15772.36035,1.12119,1.12119,0,0,0,.41309.21387c.16992.05078.36035.10156.57031.15039s.41894.10351.62646.16406a2.60225,2.60225,0,0,1,.5669.23828,1.16136,1.16136,0,0,1,.41308.39844,1.18478,1.18478,0,0,1,.15772.63769,1.315,1.315,0,0,1-.21387.72461,1.46422,1.46422,0,0,1-.6543.53125A2.69341,2.69341,0,0,1,146.55058,26.48047Z"/><path class="cls-2" d="M149.43486,26.41016V21.50977h.90967v4.90039Z"/><path class="cls-2" d="M150.97441,26.41016l2.20508-4.90039h.896l2.21191,4.90039h-.95166l-1.897-4.417h.36377l-1.89014,4.417Zm1.01514-1.13379.24511-.71387h2.646l.24512.71387Z"/><path class="cls-2" d="M86.99345,7.87012H85.37334v-7h1.62011ZM90.29326,5H86.87334V3.62988h3.41992ZM90.17314.87012h1.62012v7H90.17314Z"/><path class="cls-2" d="M96.01347,7.9502a3.46044,3.46044,0,0,1-1.61523-.36036,2.64847,2.64847,0,0,1-1.07471-.98437,2.68889,2.68889,0,0,1-.38037-1.42578,2.73371,2.73371,0,0,1,.375-1.43457,2.66118,2.66118,0,0,1,1.02539-.98047,3.2121,3.2121,0,0,1,2.895-.01953,2.51326,2.51326,0,0,1,1.00488.96,2.88477,2.88477,0,0,1,.37012,1.49512c0,.05957-.00391.12793-.01025.20507-.00684.07618-.01319.14844-.02.21485H94.21318V4.71h3.55029l-.60009.27051A1.49782,1.49782,0,0,0,96.99345,4.25a1.2518,1.2518,0,0,0-.47021-.48535,1.36679,1.36679,0,0,0-.69971-.17481,1.3946,1.3946,0,0,0-.70508.17481,1.22449,1.22449,0,0,0-.47509.49023A1.54877,1.54877,0,0,0,94.47343,5v.24023a1.51046,1.51046,0,0,0,.19483.77442,1.27454,1.27454,0,0,0,.55029.51074,1.87216,1.87216,0,0,0,.835.17481,2.01866,2.01866,0,0,0,.75489-.12989,1.83633,1.83633,0,0,0,.59472-.39062l.83008.90039a2.42058,2.42058,0,0,1-.92969.64551A3.455,3.455,0,0,1,96.01347,7.9502Z"/><path class="cls-2" d="M101.16289,7.9502a2.49891,2.49891,0,0,1-1.08008-.21485,1.64817,1.64817,0,0,1-.68994-.585A1.58744,1.58744,0,0,1,99.388,5.48047a1.53733,1.53733,0,0,1,.74511-.56543A3.61618,3.61618,0,0,1,101.46318,4.71h1.42969v.91016H101.6331a1.17092,1.17092,0,0,0-.75488.17968.575.575,0,0,0-.20508.4502.56221.56221,0,0,0,.23486.47559,1.06164,1.06164,0,0,0,.645.1748,1.33562,1.33562,0,0,0,.7002-.18555,1.05737,1.05737,0,0,0,.44971-.54492l.24023.71973a1.39137,1.39137,0,0,1-.62012.79A2.22256,2.22256,0,0,1,101.16289,7.9502Zm1.64013-.08008V6.82031l-.10009-.23047V4.71a1.00865,1.00865,0,0,0-.30469-.78027,1.34711,1.34711,0,0,0-.93506-.2793,2.71739,2.71739,0,0,0-.84521.13477,2.23153,2.23153,0,0,0-.70508.36523l-.56006-1.08984a3.36874,3.36874,0,0,1,1.06006-.48047,4.74864,4.74864,0,0,1,1.26025-.16992,2.85435,2.85435,0,0,1,1.90967.58007A2.25013,2.25013,0,0,1,104.263,4.7998V7.87012Z"/><path class="cls-2" d="M108.02275,7.9502a2.73721,2.73721,0,0,1-1.36963-.34473,2.53336,2.53336,0,0,1-.96533-.96582,2.8896,2.8896,0,0,1-.355-1.46,2.91421,2.91421,0,0,1,.355-1.46973,2.498,2.498,0,0,1,.96533-.96,2.76488,2.76488,0,0,1,1.36963-.33984,2.30344,2.30344,0,0,1,1.19043.2998,1.97412,1.97412,0,0,1,.78955.91016,3.74661,3.74661,0,0,1,.28027,1.55957,3.88411,3.88411,0,0,1-.27,1.55566,1.9253,1.9253,0,0,1-.77491.915A2.33656,2.33656,0,0,1,108.02275,7.9502Zm.27-1.28028a1.34987,1.34987,0,0,0,.69043-.17969,1.32166,1.32166,0,0,0,.49463-.51464,1.61969,1.61969,0,0,0,.18506-.7959,1.61434,1.61434,0,0,0-.18506-.79981,1.32824,1.32824,0,0,0-.49463-.50976,1.34987,1.34987,0,0,0-.69043-.17969,1.36611,1.36611,0,0,0-.69971.17969,1.32587,1.32587,0,0,0-.49511.50976,1.61423,1.61423,0,0,0-.18506.79981,1.61958,1.61958,0,0,0,.18506.7959,1.31932,1.31932,0,0,0,.49511.51464A1.36611,1.36611,0,0,0,108.29277,6.66992Zm1.41016,1.2002V6.77051l.03027-1.60059-.1001-1.58984V.4502h1.56006V7.87012Z"/><path class="cls-2" d="M118.973,7.99023a4.245,4.245,0,0,1-1.53516-.2705A3.61966,3.61966,0,0,1,116.21806,6.96a3.46712,3.46712,0,0,1-.80029-1.14941,3.59964,3.59964,0,0,1-.28467-1.44043,3.59964,3.59964,0,0,1,.28467-1.44043,3.43826,3.43826,0,0,1,.80518-1.14942,3.68537,3.68537,0,0,1,1.22021-.75976,4.41953,4.41953,0,0,1,3.04492,0,3.64465,3.64465,0,0,1,1.21.75976,3.48889,3.48889,0,0,1,1.09473,2.58985,3.578,3.578,0,0,1-.29,1.44531,3.459,3.459,0,0,1-.80469,1.14941,3.69626,3.69626,0,0,1-1.21.75489A4.13687,4.13687,0,0,1,118.973,7.99023Zm-.00977-1.37988a2.28682,2.28682,0,0,0,.86475-.16015,2.06568,2.06568,0,0,0,.69482-.46,2.10456,2.10456,0,0,0,.46533-.71,2.42187,2.42187,0,0,0,.165-.91015,2.422,2.422,0,0,0-.165-.91016,2.15139,2.15139,0,0,0-.46-.71,2.00669,2.00669,0,0,0-.69531-.46,2.32472,2.32472,0,0,0-.86963-.16016A2.28728,2.28728,0,0,0,118.098,2.29a2.06544,2.06544,0,0,0-.69483.46,2.10481,2.10481,0,0,0-.46533.71,2.42216,2.42216,0,0,0-.165.91016,2.4291,2.4291,0,0,0,.165.90527,2.143,2.143,0,0,0,.46.71484,2.00685,2.00685,0,0,0,.69531.46A2.32564,2.32564,0,0,0,118.96318,6.61035Z"/><path class="cls-2" d="M123.263,3.81055V2.61035h3.73v1.2002Zm.83007,4.05957v-5.5a1.97568,1.97568,0,0,1,.54-1.45508,2.0718,2.0718,0,0,1,1.54-.54492,2.9964,2.9964,0,0,1,.65479.07031,1.54413,1.54413,0,0,1,.53515.21973L126.95293,1.79a1.07764,1.07764,0,0,0-.29-.13965,1.13986,1.13986,0,0,0-.33985-.0498.68794.68794,0,0,0-.5249.19433.82057.82057,0,0,0-.18506.585v.5l.04.66992V7.87012Z"/><path class="cls-2" d="M127.13261,3.81055V2.61035h3.73v1.2002Zm.83008,4.05957v-5.5a1.97568,1.97568,0,0,1,.54-1.45508,2.07179,2.07179,0,0,1,1.54-.54492,2.99647,2.99647,0,0,1,.65479.07031,1.54413,1.54413,0,0,1,.53515.21973L130.82256,1.79a1.07764,1.07764,0,0,0-.29-.13965,1.13986,1.13986,0,0,0-.33985-.0498.68794.68794,0,0,0-.5249.19433.82057.82057,0,0,0-.18506.585v.5l.04.66992V7.87012Zm4.56006-6.12989a.988.988,0,0,1-.70019-.25.81033.81033,0,0,1-.27-.62011.8118.8118,0,0,1,.27-.62012.99234.99234,0,0,1,.70019-.25,1.0248,1.0248,0,0,1,.69971.23535.764.764,0,0,1,.27.60449.85666.85666,0,0,1-.26514.64551A.974.974,0,0,1,132.52275,1.74023Zm-.78027,6.12989V2.49023h1.56006V7.87012Z"/><path class="cls-2" d="M137.34257,7.9502a3.292,3.292,0,0,1-1.5498-.35547,2.659,2.659,0,0,1-1.06494-.98438,2.68569,2.68569,0,0,1-.38526-1.43066,2.63354,2.63354,0,0,1,1.4502-2.415,3.30327,3.30327,0,0,1,1.5498-.35449,2.96779,2.96779,0,0,1,1.48.35449,2.16646,2.16646,0,0,1,.93017,1.01562l-1.21.64942a1.40733,1.40733,0,0,0-.5249-.55957,1.356,1.356,0,0,0-.68506-.17969,1.44261,1.44261,0,0,0-.72022.17969,1.3063,1.3063,0,0,0-.50488.50976,1.61434,1.61434,0,0,0-.18506.79981,1.61559,1.61559,0,0,0,.18506.80078,1.30623,1.30623,0,0,0,.50488.50976,1.44261,1.44261,0,0,0,.72022.17969,1.382,1.382,0,0,0,.68506-.1748,1.35108,1.35108,0,0,0,.5249-.56543l1.21.66015a2.16966,2.16966,0,0,1-.93017,1.00489A2.95791,2.95791,0,0,1,137.34257,7.9502Z"/><path class="cls-2" d="M143.25273,7.9502a3.46044,3.46044,0,0,1-1.61523-.36036,2.64847,2.64847,0,0,1-1.07471-.98437,2.68889,2.68889,0,0,1-.38037-1.42578,2.73371,2.73371,0,0,1,.375-1.43457,2.66118,2.66118,0,0,1,1.02539-.98047,3.2121,3.2121,0,0,1,2.895-.01953,2.51326,2.51326,0,0,1,1.00488.96,2.88486,2.88486,0,0,1,.37012,1.49512c0,.05957-.00391.12793-.01026.20507-.00683.07618-.01318.14844-.02.21485h-4.37012V4.71h3.55029l-.6001.27051a1.49792,1.49792,0,0,0-.16992-.73047,1.2518,1.2518,0,0,0-.47021-.48535,1.36679,1.36679,0,0,0-.69971-.17481,1.3946,1.3946,0,0,0-.70508.17481,1.22458,1.22458,0,0,0-.4751.49023A1.54888,1.54888,0,0,0,141.71269,5v.24023a1.51036,1.51036,0,0,0,.19483.77442,1.27448,1.27448,0,0,0,.55029.51074,1.87216,1.87216,0,0,0,.835.17481,2.01857,2.01857,0,0,0,.75488-.12989,1.83627,1.83627,0,0,0,.59473-.39062l.83008.90039a2.42058,2.42058,0,0,1-.92969.64551A3.455,3.455,0,0,1,143.25273,7.9502Z"/><path class="cls-2" d="M152.03252,7.99023a3.54575,3.54575,0,0,1-1.36963-.25,2.37668,2.37668,0,0,1-.9502-.67968,1.52518,1.52518,0,0,1-.3501-.99024,1.9,1.9,0,0,1,.23-.93554,2.48211,2.48211,0,0,1,.73-.7793,7.3605,7.3605,0,0,1,1.27-.71582,8.25069,8.25069,0,0,0,.88038-.46,1.53439,1.53439,0,0,0,.4497-.38477.64713.64713,0,0,0,.12989-.375A.54217.54217,0,0,0,152.87773,2a.74066.74066,0,0,0-.51514-.16016.8079.8079,0,0,0-.56005.18067.59.59,0,0,0-.19971.46.76564.76564,0,0,0,.06006.29492,1.19367,1.19367,0,0,0,.23.33008q.16992.18458.48.47461L156.06279,7l-.8501.99023L151.14287,4.21a4.4574,4.4574,0,0,1-.56006-.59961,2.07544,2.07544,0,0,1-.30518-.5498A1.67725,1.67725,0,0,1,150.18291,2.5a1.53894,1.53894,0,0,1,.27-.89941,1.7494,1.7494,0,0,1,.75976-.60547,2.83921,2.83921,0,0,1,1.1499-.21485,2.601,2.601,0,0,1,1.05518.19532,1.6446,1.6446,0,0,1,.7002.55468,1.44891,1.44891,0,0,1,.25488.85938,1.532,1.532,0,0,1-.22022.80566,2.29514,2.29514,0,0,1-.68506.68457,7.44265,7.44265,0,0,1-1.21484.65039,4.60843,4.60843,0,0,0-.80517.44532,1.51058,1.51058,0,0,0-.42481.43457.94134.94134,0,0,0-.12988.49023.71744.71744,0,0,0,.15478.4502.99939.99939,0,0,0,.43506.30957,1.80259,1.80259,0,0,0,.66016.11035,2.26228,2.26228,0,0,0,1.11963-.28516,2.42265,2.42265,0,0,0,.86523-.85058,3.90077,3.90077,0,0,0,.50488-1.375l1.25.39062a4.55145,4.55145,0,0,1-.75,1.76953,3.695,3.695,0,0,1-3.10009,1.57031Z"/><path class="cls-2" d="M56.32353,17.87012v-7h3.17969a4.4376,4.4376,0,0,1,2.01025.43457,3.31853,3.31853,0,0,1,1.35987,1.21582,3.40426,3.40426,0,0,1,.49023,1.84961,3.41057,3.41057,0,0,1-.49023,1.84472,3.30928,3.30928,0,0,1-1.35987,1.22071,4.4376,4.4376,0,0,1-2.01025.43457ZM57.94365,16.54h1.48a2.62174,2.62174,0,0,0,1.21484-.26465,1.92494,1.92494,0,0,0,.79981-.75488,2.473,2.473,0,0,0,0-2.30567,1.93222,1.93222,0,0,0-.79981-.75,2.62186,2.62186,0,0,0-1.21484-.26464h-1.48Z"/><path class="cls-2" d="M65.25322,11.74023a.98884.98884,0,0,1-.7002-.25.84707.84707,0,0,1,0-1.24023.99321.99321,0,0,1,.7002-.25,1.026,1.026,0,0,1,.70019.23535.76553.76553,0,0,1,.27.60449.85844.85844,0,0,1-.26513.64551A.97437.97437,0,0,1,65.25322,11.74023Zm-.77979,6.12989V12.49023H66.033v5.37989Z"/><path class="cls-2" d="M69.29326,17.9502a5.22994,5.22994,0,0,1-1.32471-.165,3.27987,3.27987,0,0,1-1.00488-.415l.52-1.12012a3.45521,3.45521,0,0,0,.875.375,3.5903,3.5903,0,0,0,.99463.14551,1.62474,1.62474,0,0,0,.76513-.13086.3982.3982,0,0,0,.2251-.35938.30633.30633,0,0,0-.17529-.28515,1.52354,1.52354,0,0,0-.46485-.14453q-.29-.05127-.63476-.10059-.345-.0498-.69531-.13477a2.34909,2.34909,0,0,1-.63965-.25488,1.30424,1.30424,0,0,1-.46533-.46,1.43547,1.43547,0,0,1-.17481-.75,1.45154,1.45154,0,0,1,.29492-.90039,1.95606,1.95606,0,0,1,.855-.61523,3.60234,3.60234,0,0,1,1.33985-.22461,5.42249,5.42249,0,0,1,1.12011.12011,3.04663,3.04663,0,0,1,.9502.34961l-.52,1.11035a2.64321,2.64321,0,0,0-.78516-.31543,3.63569,3.63569,0,0,0-.76513-.085,1.56155,1.56155,0,0,0-.75977.14063.41078.41078,0,0,0-.24023.35937.32362.32362,0,0,0,.17529.29981,1.57491,1.57491,0,0,0,.46484.16015q.29.06006.63526.10547a5.94645,5.94645,0,0,1,.69482.13477,2.54615,2.54615,0,0,1,.63477.25488,1.33272,1.33272,0,0,1,.46533.4502,1.38212,1.38212,0,0,1,.17969.74511,1.39909,1.39909,0,0,1-.29981.88477,1.9683,1.9683,0,0,1-.86523.60547A3.80284,3.80284,0,0,1,69.29326,17.9502Z"/><path class="cls-2" d="M72.15312,13.81055v-1.2002h3.73v1.2002ZM74.993,17.9502a2.11246,2.11246,0,0,1-1.48-.48536,1.86026,1.86026,0,0,1-.52979-1.44433V11.2998h1.56006V16a.72345.72345,0,0,0,.17969.52539.653.653,0,0,0,.49023.18457.99985.99985,0,0,0,.62988-.20019l.41993,1.10058a1.71585,1.71585,0,0,1-.57471.25488A2.81873,2.81873,0,0,1,74.993,17.9502Z"/><path class="cls-2" d="M77.14336,17.87012V12.49023H78.6331v1.51954l-.21-.43946a1.728,1.728,0,0,1,.77-.86523,2.62031,2.62031,0,0,1,1.29-.29492v1.44043c-.06689-.00684-.12695-.01172-.18018-.01563-.05322-.00293-.10986-.00488-.16992-.00488a1.32647,1.32647,0,0,0-1.43017,1.5v2.54Z"/><path class="cls-2" d="M82.19316,11.74023a.98879.98879,0,0,1-.70019-.25.84707.84707,0,0,1,0-1.24023.99317.99317,0,0,1,.70019-.25,1.0261,1.0261,0,0,1,.7002.23535.76556.76556,0,0,1,.27.60449.85845.85845,0,0,1-.26514.64551A.97437.97437,0,0,1,82.19316,11.74023Zm-.77978,6.12989V12.49023H82.973v5.37989Z"/><path class="cls-2" d="M84.42314,17.87012V10.4502h1.55957v3.12988l-.09961,1.58984.02979,1.60059v1.09961Zm3.17969.08008a2.3616,2.3616,0,0,1-1.21973-.29981,1.91384,1.91384,0,0,1-.78027-.915,3.89247,3.89247,0,0,1-.27-1.55566,3.69526,3.69526,0,0,1,.28516-1.55957,2.00346,2.00346,0,0,1,.79492-.91016,2.3016,2.3016,0,0,1,1.18994-.2998,2.74026,2.74026,0,0,1,1.36523.33984,2.5077,2.5077,0,0,1,.96.96,3.19984,3.19984,0,0,1,0,2.92969,2.5435,2.5435,0,0,1-.96.96582A2.71289,2.71289,0,0,1,87.60283,17.9502Zm-.27-1.28028a1.29849,1.29849,0,0,0,1.18506-.69433,1.81243,1.81243,0,0,0,0-1.59571,1.30616,1.30616,0,0,0-1.18506-.68945,1.36611,1.36611,0,0,0-.69971.17969,1.29057,1.29057,0,0,0-.49023.50976,1.85657,1.85657,0,0,0,0,1.59571,1.28471,1.28471,0,0,0,.49023.51464A1.36611,1.36611,0,0,0,87.33281,16.66992Z"/><path class="cls-2" d="M93.59306,17.9502a2.6651,2.6651,0,0,1-1.19531-.25977,1.84365,1.84365,0,0,1-.81494-.79492,2.84894,2.84894,0,0,1-.29-1.36524v-3.04h1.56006V15.2998a1.43678,1.43678,0,0,0,.28516.98536,1.02958,1.02958,0,0,0,.80468.31543,1.29691,1.29691,0,0,0,.64014-.15528,1.06778,1.06778,0,0,0,.43994-.48047,1.83883,1.83883,0,0,0,.16016-.81445V12.49023H96.743v5.37989h-1.48V16.38965l.27.43066a1.8446,1.8446,0,0,1-.79541.84473A2.35457,2.35457,0,0,1,93.59306,17.9502Z"/><path class="cls-2" d="M97.553,13.81055v-1.2002h3.73v1.2002Zm2.83985,4.13965a2.11248,2.11248,0,0,1-1.48-.48536,1.86026,1.86026,0,0,1-.52979-1.44433V11.2998h1.56006V16a.72345.72345,0,0,0,.17969.52539.653.653,0,0,0,.49023.18457.99988.99988,0,0,0,.62989-.20019l.41992,1.10058a1.71585,1.71585,0,0,1-.57471.25488A2.81873,2.81873,0,0,1,100.39287,17.9502Z"/><path class="cls-2" d="M103.323,11.74023a.98879.98879,0,0,1-.70019-.25.84707.84707,0,0,1,0-1.24023A.99317.99317,0,0,1,103.323,10a1.0261,1.0261,0,0,1,.7002.23535.76553.76553,0,0,1,.27.60449.85845.85845,0,0,1-.26514.64551A.97437.97437,0,0,1,103.323,11.74023Zm-.77978,6.12989V12.49023h1.55957v5.37989Z"/><path class="cls-2" d="M108.11259,17.9502a3.1498,3.1498,0,0,1-1.5249-.36036,2.73568,2.73568,0,0,1-1.0498-.98437,2.84718,2.84718,0,0,1,0-2.86035,2.70434,2.70434,0,0,1,1.0498-.98047,3.44656,3.44656,0,0,1,3.04492,0,2.72864,2.72864,0,0,1,0,4.82519A3.15606,3.15606,0,0,1,108.11259,17.9502Zm0-1.28028a1.36662,1.36662,0,0,0,.7002-.17969,1.28791,1.28791,0,0,0,.49023-.51464,1.86114,1.86114,0,0,0,0-1.59571,1.29383,1.29383,0,0,0-.49023-.50976,1.45311,1.45311,0,0,0-1.3999,0,1.326,1.326,0,0,0-.49512.50976,1.81243,1.81243,0,0,0,0,1.59571,1.31941,1.31941,0,0,0,.49512.51464A1.36608,1.36608,0,0,0,108.11259,16.66992Z"/><path class="cls-2" d="M115.37334,12.41016a2.50439,2.50439,0,0,1,1.14453.25488,1.84845,1.84845,0,0,1,.79541.78027,2.766,2.766,0,0,1,.29,1.34473v3.08008h-1.56006V15.03027a1.38131,1.38131,0,0,0-.28516-.96,1.038,1.038,0,0,0-.80517-.31054,1.40639,1.40639,0,0,0-.665.15527,1.08177,1.08177,0,0,0-.46.47461,1.79071,1.79071,0,0,0-.165.82031v2.66016h-1.55957V12.49023h1.48974v1.49024l-.27978-.4502a1.9881,1.9881,0,0,1,.82959-.83007A2.55993,2.55993,0,0,1,115.37334,12.41016Z"/><path class="cls-2" d="M125.303,17.99023a4.21073,4.21073,0,0,1-1.50537-.26464,3.50467,3.50467,0,0,1-2-1.90528,3.83633,3.83633,0,0,1,0-2.90039,3.46715,3.46715,0,0,1,.8003-1.14941,3.59622,3.59622,0,0,1,1.20507-.75586,4.19474,4.19474,0,0,1,1.50977-.26465,4.13675,4.13675,0,0,1,1.645.31543,3.207,3.207,0,0,1,1.23486.9248l-1.04.96a2.42933,2.42933,0,0,0-.7998-.61524,2.24431,2.24431,0,0,0-.96-.20508,2.4578,2.4578,0,0,0-.8999.16016,2.03037,2.03037,0,0,0-.71.46,2.10481,2.10481,0,0,0-.46533.71,2.59216,2.59216,0,0,0,0,1.82031,2.10471,2.10471,0,0,0,.46533.71,2.03053,2.03053,0,0,0,.71.46,2.458,2.458,0,0,0,.8999.16015,2.24431,2.24431,0,0,0,.96-.20508,2.3739,2.3739,0,0,0,.7998-.625l1.04.96a3.24821,3.24821,0,0,1-1.23486.92969A4.0951,4.0951,0,0,1,125.303,17.99023Z"/><path class="cls-2" d="M131.65263,17.9502a3.46044,3.46044,0,0,1-1.61523-.36036,2.64847,2.64847,0,0,1-1.07471-.98437,2.68889,2.68889,0,0,1-.38037-1.42578,2.73371,2.73371,0,0,1,.375-1.43457,2.66118,2.66118,0,0,1,1.02539-.98047,3.2121,3.2121,0,0,1,2.895-.01953,2.51326,2.51326,0,0,1,1.00488.96,2.88477,2.88477,0,0,1,.37012,1.49512c0,.05957-.00391.12793-.01025.20507-.00684.07618-.01319.14844-.02.21485h-4.37012V14.71h3.55029l-.60009.27051a1.49782,1.49782,0,0,0-.16993-.73047,1.2518,1.2518,0,0,0-.47021-.48535,1.36679,1.36679,0,0,0-.69971-.17481,1.3946,1.3946,0,0,0-.70508.17481,1.22449,1.22449,0,0,0-.47509.49023A1.54889,1.54889,0,0,0,130.11259,15v.24023a1.51046,1.51046,0,0,0,.19483.77442,1.27454,1.27454,0,0,0,.55029.51074,1.87216,1.87216,0,0,0,.835.17481,2.01866,2.01866,0,0,0,.75489-.12989,1.83633,1.83633,0,0,0,.59472-.39062l.83008.90039a2.42058,2.42058,0,0,1-.92969.64551A3.455,3.455,0,0,1,131.65263,17.9502Z"/><path class="cls-2" d="M138.56279,12.41016a2.50436,2.50436,0,0,1,1.14453.25488,1.8484,1.8484,0,0,1,.79541.78027,2.766,2.766,0,0,1,.29,1.34473v3.08008h-1.56006V15.03027a1.38131,1.38131,0,0,0-.28515-.96,1.038,1.038,0,0,0-.80518-.31054,1.40644,1.40644,0,0,0-.665.15527,1.08177,1.08177,0,0,0-.46.47461,1.79084,1.79084,0,0,0-.165.82031v2.66016h-1.55957V12.49023h1.48975v1.49024l-.27979-.4502a1.98816,1.98816,0,0,1,.82959-.83007A2.55993,2.55993,0,0,1,138.56279,12.41016Z"/><path class="cls-2" d="M141.56279,13.81055v-1.2002h3.73v1.2002Zm2.83984,4.13965a2.1125,2.1125,0,0,1-1.48-.48536,1.86029,1.86029,0,0,1-.52978-1.44433V11.2998h1.56006V16a.72349.72349,0,0,0,.17968.52539.65306.65306,0,0,0,.49024.18457.99985.99985,0,0,0,.62988-.20019l.41992,1.10058a1.71571,1.71571,0,0,1-.5747.25488A2.81881,2.81881,0,0,1,144.40263,17.9502Z"/><path class="cls-2" d="M149.05254,17.9502a3.46048,3.46048,0,0,1-1.61524-.36036,2.64847,2.64847,0,0,1-1.07471-.98437,2.689,2.689,0,0,1-.38037-1.42578,2.73371,2.73371,0,0,1,.375-1.43457,2.66118,2.66118,0,0,1,1.02539-.98047,3.2121,3.2121,0,0,1,2.895-.01953,2.51322,2.51322,0,0,1,1.00489.96,2.88486,2.88486,0,0,1,.37011,1.49512c0,.05957-.0039.12793-.01025.20507-.00684.07618-.01318.14844-.02.21485h-4.37012V14.71h3.5503l-.6001.27051a1.49792,1.49792,0,0,0-.16992-.73047,1.25176,1.25176,0,0,0-.47022-.48535,1.36677,1.36677,0,0,0-.69971-.17481,1.39454,1.39454,0,0,0-.70507.17481,1.22445,1.22445,0,0,0-.4751.49023A1.54888,1.54888,0,0,0,147.5125,15v.24023a1.51046,1.51046,0,0,0,.19482.77442,1.27454,1.27454,0,0,0,.55029.51074,1.87216,1.87216,0,0,0,.835.17481,2.01862,2.01862,0,0,0,.75489-.12989,1.83612,1.83612,0,0,0,.59472-.39062l.83008.90039a2.42058,2.42058,0,0,1-.92969.64551A3.455,3.455,0,0,1,149.05254,17.9502Z"/><path class="cls-2" d="M152.69267,17.87012V12.49023h1.48975v1.51954l-.21-.43946a1.7279,1.7279,0,0,1,.77-.86523,2.62029,2.62029,0,0,1,1.29-.29492v1.44043c-.0669-.00684-.127-.01172-.18018-.01563-.05322-.00293-.10986-.00488-.16992-.00488a1.32647,1.32647,0,0,0-1.43018,1.5v2.54Z"/></g></g></svg>