<svg xmlns="http://www.w3.org/2000/svg" viewBox="0 0 162.77746 70.00497"><defs><style>.cls-1{fill:#fff;}.cls-2{fill:none;stroke:#fff;stroke-miterlimit:10;stroke-width:0.5px;}</style></defs><g id="Layer_2" data-name="Layer 2"><g id="Layer_3" data-name="Layer 3"><path class="cls-1" d="M156.57324,53.17633A6.20319,6.20319,0,0,0,153.57765,64.812l1.46282,2.54083,1.53277,2.65212,1.53277-2.65212,1.466-2.54083a6.20428,6.20428,0,0,0-2.99876-11.63569Zm0,9.53687a3.33425,3.33425,0,1,1,3.33584-3.33266A3.33183,3.33183,0,0,1,156.57324,62.7132Z"/><polyline class="cls-2" points="153.061 55.213 131.741 33.893 0 33.893"/><path class="cls-1" d="M.62746,26.41016V21.50977h2.2959a2.21681,2.21681,0,0,1,1.34375.34668,1.10114,1.10114,0,0,1,.46191.92773,1.19176,1.19176,0,0,1-.18164.669,1.2242,1.2242,0,0,1-.48682.42675,1.46683,1.46683,0,0,1-.66113.15039l.126-.252a1.75991,1.75991,0,0,1,.7417.15039,1.231,1.231,0,0,1,.52148.4375,1.25411,1.25411,0,0,1,.19287.71387,1.14153,1.14153,0,0,1-.4834.98047,2.4361,2.4361,0,0,1-1.43457.34961Zm.90966-.71387H3.00734a1.50157,1.50157,0,0,0,.78369-.168.66423.66423,0,0,0,0-1.07422,1.47984,1.47984,0,0,0-.78369-.17187h-1.54v-.707H2.82521a1.328,1.328,0,0,0,.73145-.168.6316.6316,0,0,0,0-1.01465,1.32791,1.32791,0,0,0-.73145-.168H1.53712Z"/><path class="cls-1" d="M5.26125,26.41016l2.20507-4.90039h.896l2.21191,4.90039H9.62257l-1.897-4.417h.36377l-1.89014,4.417Zm1.01513-1.13379.24512-.71387h2.646l.24511.71387Z"/><path class="cls-1" d="M11.19728,26.41016V21.50977h.749l3.07276,3.77343H14.648V21.50977h.90332v4.90039h-.749L11.729,22.63672h.37109v3.77344Z"/><path class="cls-1" d="M16.8672,26.41016V21.50977h2.1416a3.0378,3.0378,0,0,1,1.40039.30859,2.31564,2.31564,0,0,1,.938.85352,2.63179,2.63179,0,0,1,0,2.57324,2.31113,2.31113,0,0,1-.938.85742,3.03762,3.03762,0,0,1-1.40039.30762Zm.90967-.76953h1.18994a2.03216,2.03216,0,0,0,.95557-.21094,1.51226,1.51226,0,0,0,.623-.58789,1.8799,1.8799,0,0,0,0-1.76758,1.52221,1.52221,0,0,0-.623-.584,2.044,2.044,0,0,0-.95557-.21H17.77687Z"/><path class="cls-1" d="M23.5591,25.64746h2.76513v.7627h-3.6748V21.50977h3.57666v.76367h-2.667Zm-.06983-2.10058h2.436v.749h-2.436Z"/><path class="cls-1" d="M27.33937,26.41016V21.50977h.749l3.07276,3.77343h-.3711V21.50977h.90332v4.90039h-.749l-3.07324-3.77344h.37109v3.77344Z"/><path class="cls-1" d="M35.29787,26.48047a2.90819,2.90819,0,0,1-1.05323-.18555,2.51688,2.51688,0,0,1-.83642-.52539,2.368,2.368,0,0,1-.55322-.80176,2.69144,2.69144,0,0,1,0-2.01562,2.35913,2.35913,0,0,1,.55664-.80176,2.54961,2.54961,0,0,1,.84326-.52441,2.918,2.918,0,0,1,1.05713-.18555,2.95646,2.95646,0,0,1,1.12353.20312,2.19687,2.19687,0,0,1,.84375.59473l-.57422.55957a1.81743,1.81743,0,0,0-1.35107-.55957,1.97836,1.97836,0,0,0-.71387.126,1.65575,1.65575,0,0,0-.56689.35644,1.60733,1.60733,0,0,0-.36768.54688,1.90152,1.90152,0,0,0,0,1.3789,1.63941,1.63941,0,0,0,.92774.91016,1.94094,1.94094,0,0,0,.71386.126,2.16792,2.16792,0,0,0,.70362-.11621,1.899,1.899,0,0,0,.64746-.38868l.51806.67969a2.6837,2.6837,0,0,1-.89257.46485A3.429,3.429,0,0,1,35.29787,26.48047Zm1.05713-.74219v-1.834h.86132v1.95312Z"/><path class="cls-1" d="M37.71974,26.41016l2.20508-4.90039h.896l2.21191,4.90039h-.95166l-1.897-4.417h.36377l-1.89014,4.417Zm1.01514-1.13379L38.98,24.5625h2.646l.24512.71387Z"/><path class="cls-1" d="M43.65627,26.41016V21.50977h.749L47.478,25.2832H47.107V21.50977h.90332v4.90039h-.749L44.188,22.63672h.3711v3.77344Z"/><path class="cls-1" d="M50.59962,24.751v-.57422h3.5V24.751Z"/><path class="cls-1" d="M57.45265,26.48047a2.03165,2.03165,0,0,1-.86426-.18262,1.63712,1.63712,0,0,1-.64746-.52441l.51758-.623a1.48078,1.48078,0,0,0,.44483.41992,1.03981,1.03981,0,0,0,.52832.13965q.76317,0,.76318-.90234V22.27344H56.45168v-.76367H59.105v3.248a1.7688,1.7688,0,0,1-.42383,1.29492A1.65386,1.65386,0,0,1,57.45265,26.48047Z"/><path class="cls-1" d="M59.58058,26.41016l2.20508-4.90039h.896l2.21191,4.90039h-.95166l-1.897-4.417h.36377l-1.89014,4.417Zm1.01514-1.13379.24512-.71387h2.646l.24512.71387Z"/><path class="cls-1" d="M65.51662,26.41016V21.50977h.90966v4.90039Zm.812-1.15528-.04932-1.07812,2.56934-2.667h1.022l-2.13525,2.26855-.50391.55273Zm2.604,1.15528-1.876-2.2334.60156-.665,2.33838,2.89844Z"/><path class="cls-1" d="M69.71632,26.41016l2.20508-4.90039h.896l2.21191,4.90039h-.95166l-1.897-4.417h.36377l-1.89014,4.417Zm1.01514-1.13379.24512-.71387h2.646l.24512.71387Z"/><path class="cls-1" d="M75.65285,26.41016V21.50977h2.01562a2.70815,2.70815,0,0,1,1.1167.21,1.62235,1.62235,0,0,1,.71729.60254,1.684,1.684,0,0,1,.25195.93066,1.66723,1.66723,0,0,1-.25195.92773,1.607,1.607,0,0,1-.71729.59473,2.74162,2.74162,0,0,1-1.1167.207H76.15675l.40577-.41308v1.84082Zm.90967-1.74317-.40577-.43359h1.46973a1.37385,1.37385,0,0,0,.90674-.25879.89574.89574,0,0,0,.3042-.72168.88187.88187,0,0,0-.3042-.7207,1.39644,1.39644,0,0,0-.90674-.252H76.15675l.40577-.44824Zm2.29589,1.74317-1.23877-1.77832h.97315l1.24609,1.77832Z"/><path class="cls-1" d="M81.69337,26.41016V22.28027h-1.624v-.7705h4.1582v.7705h-1.624v4.12989Z"/><path class="cls-1" d="M83.97511,26.41016l2.20508-4.90039h.896l2.21191,4.90039h-.95166l-1.897-4.417h.36377l-1.89014,4.417Zm1.01514-1.13379.24512-.71387h2.646l.24512.71387Z"/><path class="cls-1" d="M91.84328,26.41016V21.50977h2.2959a2.21681,2.21681,0,0,1,1.34375.34668,1.10114,1.10114,0,0,1,.46191.92773,1.19176,1.19176,0,0,1-.18164.669,1.2242,1.2242,0,0,1-.48682.42675,1.46683,1.46683,0,0,1-.66113.15039l.126-.252a1.75991,1.75991,0,0,1,.7417.15039,1.231,1.231,0,0,1,.52148.4375,1.25411,1.25411,0,0,1,.19287.71387,1.14153,1.14153,0,0,1-.4834.98047,2.43608,2.43608,0,0,1-1.43457.34961Zm.90966-.71387h1.47022a1.50157,1.50157,0,0,0,.78369-.168.66423.66423,0,0,0,0-1.07422,1.47984,1.47984,0,0,0-.78369-.17187h-1.54v-.707H94.041a1.328,1.328,0,0,0,.73145-.168.6316.6316,0,0,0,0-1.01465,1.32791,1.32791,0,0,0-.73145-.168H92.75294Z"/><path class="cls-1" d="M96.47707,26.41016l2.20507-4.90039h.896L101.79,26.41016h-.95166l-1.897-4.417h.36377l-1.89014,4.417Zm1.01513-1.13379.24512-.71387h2.646l.24511.71387Z"/><path class="cls-1" d="M102.4131,26.41016V21.50977h2.01563a2.70815,2.70815,0,0,1,1.1167.21,1.62238,1.62238,0,0,1,.71728.60254,1.684,1.684,0,0,1,.252.93066,1.66723,1.66723,0,0,1-.252.92773,1.60706,1.60706,0,0,1-.71728.59473,2.74162,2.74162,0,0,1-1.1167.207H102.917l.40576-.41308v1.84082Zm.90967-1.74317-.40576-.43359h1.46972a1.37384,1.37384,0,0,0,.90674-.25879.89571.89571,0,0,0,.3042-.72168.88184.88184,0,0,0-.3042-.7207,1.39642,1.39642,0,0,0-.90674-.252H102.917l.40576-.44824Zm2.2959,1.74317-1.23877-1.77832h.97314l1.2461,1.77832Z"/><path class="cls-1" d="M106.83693,26.41016l2.20508-4.90039h.896l2.21192,4.90039h-.95166l-1.897-4.417h.36377l-1.89013,4.417Zm1.01514-1.13379.24511-.71387h2.646l.24512.71387Z"/><path class="cls-1" d="M113.522,26.41016V22.28027h-1.624v-.7705h4.15821v.7705h-1.624v4.12989Z"/><path class="cls-1" d="M.83009,7.87012v-7H4.00978A4.4376,4.4376,0,0,1,6.02,1.30469,3.31853,3.31853,0,0,1,7.3799,2.52051a3.40426,3.40426,0,0,1,.49023,1.84961A3.41057,3.41057,0,0,1,7.3799,6.21484,3.30928,3.30928,0,0,1,6.02,7.43555a4.4376,4.4376,0,0,1-2.01025.43457ZM2.45021,6.54h1.48A2.62174,2.62174,0,0,0,5.145,6.27539a1.92494,1.92494,0,0,0,.79981-.75488A2.24883,2.24883,0,0,0,6.23,4.37012a2.2422,2.2422,0,0,0-.28516-1.15528,1.93222,1.93222,0,0,0-.79981-.75A2.62186,2.62186,0,0,0,3.93019,2.2002h-1.48Z"/><path class="cls-1" d="M9.75978,1.74023a.98879.98879,0,0,1-.70019-.25.812.812,0,0,1-.27-.62011A.81349.81349,0,0,1,9.05959.25.99317.99317,0,0,1,9.75978,0,1.0261,1.0261,0,0,1,10.46.23535a.76556.76556,0,0,1,.27.60449.85845.85845,0,0,1-.26514.64551A.97437.97437,0,0,1,9.75978,1.74023ZM8.98,7.87012V2.49023h1.55957V7.87012Z"/><path class="cls-1" d="M13.79982,7.9502a5.22994,5.22994,0,0,1-1.32471-.165,3.27987,3.27987,0,0,1-1.00488-.415l.52-1.12012a3.45537,3.45537,0,0,0,.875.375,3.59036,3.59036,0,0,0,.99463.14551,1.62481,1.62481,0,0,0,.76514-.13086.3982.3982,0,0,0,.22509-.35938.30633.30633,0,0,0-.17529-.28515A1.52347,1.52347,0,0,0,14.21,5.85059q-.29-.05127-.63477-.10059-.345-.0498-.69531-.13477a2.34909,2.34909,0,0,1-.63965-.25488,1.30424,1.30424,0,0,1-.46533-.46,1.43547,1.43547,0,0,1-.17481-.75A1.45154,1.45154,0,0,1,11.895,3.25a1.956,1.956,0,0,1,.855-.61523,3.60225,3.60225,0,0,1,1.33984-.22461A5.42265,5.42265,0,0,1,15.21,2.53027a3.04666,3.04666,0,0,1,.95019.34961l-.52,1.11035A2.64326,2.64326,0,0,0,14.855,3.6748a3.63585,3.63585,0,0,0-.76514-.085,1.56155,1.56155,0,0,0-.75977.14063.41078.41078,0,0,0-.24023.35937.32362.32362,0,0,0,.17529.29981A1.575,1.575,0,0,0,13.73,4.5498q.29.06006.63525.10547a5.946,5.946,0,0,1,.69482.13477,2.54615,2.54615,0,0,1,.63477.25488,1.33272,1.33272,0,0,1,.46533.4502,1.38212,1.38212,0,0,1,.17969.74511,1.39909,1.39909,0,0,1-.29981.88477,1.9683,1.9683,0,0,1-.86523.60547A3.80281,3.80281,0,0,1,13.79982,7.9502Z"/><path class="cls-1" d="M16.65968,3.81055V2.61035h3.73v1.2002ZM19.49953,7.9502a2.11248,2.11248,0,0,1-1.48-.48536,1.86026,1.86026,0,0,1-.52979-1.44433V1.2998h1.56006V6a.72345.72345,0,0,0,.17969.52539.653.653,0,0,0,.49023.18457.99985.99985,0,0,0,.62988-.20019l.41993,1.10058a1.71585,1.71585,0,0,1-.57471.25488A2.81873,2.81873,0,0,1,19.49953,7.9502Z"/><path class="cls-1" d="M21.64992,7.87012V2.49023h1.48974V4.00977l-.21-.43946a1.728,1.728,0,0,1,.77-.86523,2.62034,2.62034,0,0,1,1.29-.29492V3.85059c-.06689-.00684-.127-.01172-.18017-.01563-.05323-.00293-.10987-.00488-.16993-.00488a1.46631,1.46631,0,0,0-1.03515.36523,1.47475,1.47475,0,0,0-.395,1.13477v2.54Z"/><path class="cls-1" d="M26.69972,1.74023a.98879.98879,0,0,1-.70019-.25.812.812,0,0,1-.27-.62011.81349.81349,0,0,1,.27-.62012A.99317.99317,0,0,1,26.69972,0a1.0261,1.0261,0,0,1,.7002.23535.76553.76553,0,0,1,.27.60449.85845.85845,0,0,1-.26514.64551A.97437.97437,0,0,1,26.69972,1.74023Zm-.77978,6.12989V2.49023h1.55957V7.87012Z"/><path class="cls-1" d="M28.9297,7.87012V.4502h1.55957V3.58008l-.09961,1.58984.02979,1.60059V7.87012Zm3.17969.08008a2.36162,2.36162,0,0,1-1.21973-.29981,1.91389,1.91389,0,0,1-.78027-.915,3.89247,3.89247,0,0,1-.27-1.55566,3.69542,3.69542,0,0,1,.28516-1.55957A2.00352,2.00352,0,0,1,30.91945,2.71a2.30163,2.30163,0,0,1,1.18994-.2998A2.74021,2.74021,0,0,1,33.47462,2.75a2.50779,2.50779,0,0,1,.96.96,2.91432,2.91432,0,0,1,.355,1.46973,2.8897,2.8897,0,0,1-.355,1.46,2.5436,2.5436,0,0,1-.96.96582A2.71284,2.71284,0,0,1,32.10939,7.9502Zm-.27-1.28028a1.29849,1.29849,0,0,0,1.18506-.69433,1.61969,1.61969,0,0,0,.18506-.7959,1.61434,1.61434,0,0,0-.18506-.79981,1.30616,1.30616,0,0,0-1.18506-.68945,1.36614,1.36614,0,0,0-.69971.17969,1.29057,1.29057,0,0,0-.49023.50976,1.65167,1.65167,0,0,0-.18018.79981,1.65716,1.65716,0,0,0,.18018.7959,1.28471,1.28471,0,0,0,.49023.51464A1.36614,1.36614,0,0,0,31.83937,6.66992Z"/><path class="cls-1" d="M38.09962,7.9502a2.6651,2.6651,0,0,1-1.19531-.25977,1.84365,1.84365,0,0,1-.81494-.79492,2.84894,2.84894,0,0,1-.29-1.36524v-3.04h1.56006V5.2998a1.43683,1.43683,0,0,0,.28516.98536,1.02958,1.02958,0,0,0,.80468.31543,1.29691,1.29691,0,0,0,.64014-.15528,1.06778,1.06778,0,0,0,.43994-.48047,1.83883,1.83883,0,0,0,.16016-.81445V2.49023h1.56006V7.87012h-1.48V6.38965l.27.43066a1.8447,1.8447,0,0,1-.79541.84473A2.35463,2.35463,0,0,1,38.09962,7.9502Z"/><path class="cls-1" d="M42.05959,3.81055V2.61035h3.73v1.2002ZM44.89943,7.9502a2.11248,2.11248,0,0,1-1.48-.48536,1.86026,1.86026,0,0,1-.52979-1.44433V1.2998h1.56006V6a.72345.72345,0,0,0,.17969.52539.653.653,0,0,0,.49023.18457.99986.99986,0,0,0,.62989-.20019l.41992,1.10058a1.71576,1.71576,0,0,1-.57471.25488A2.81873,2.81873,0,0,1,44.89943,7.9502Z"/><path class="cls-1" d="M47.82961,1.74023a.98882.98882,0,0,1-.7002-.25.812.812,0,0,1-.27-.62011.81349.81349,0,0,1,.27-.62012.99319.99319,0,0,1,.7002-.25,1.02607,1.02607,0,0,1,.70019.23535.76553.76553,0,0,1,.27.60449.85845.85845,0,0,1-.26514.64551A.97434.97434,0,0,1,47.82961,1.74023Zm-.77979,6.12989V2.49023h1.55957V7.87012Z"/><path class="cls-1" d="M52.61916,7.9502a3.14981,3.14981,0,0,1-1.52491-.36036,2.73568,2.73568,0,0,1-1.0498-.98437,2.66142,2.66142,0,0,1-.38526-1.42578,2.65631,2.65631,0,0,1,1.43506-2.415,3.44658,3.44658,0,0,1,3.04493,0,2.62424,2.62424,0,0,1,1.43017,2.415,2.649,2.649,0,0,1-1.43017,2.41015A3.15609,3.15609,0,0,1,52.61916,7.9502Zm0-1.28028a1.36661,1.36661,0,0,0,.70019-.17969,1.288,1.288,0,0,0,.49024-.51464,1.66287,1.66287,0,0,0,.17968-.7959,1.65734,1.65734,0,0,0-.17968-.79981,1.29392,1.29392,0,0,0-.49024-.50976,1.45311,1.45311,0,0,0-1.3999,0,1.326,1.326,0,0,0-.49512.50976,1.61434,1.61434,0,0,0-.18506.79981,1.61969,1.61969,0,0,0,.18506.7959,1.31941,1.31941,0,0,0,.49512.51464A1.36609,1.36609,0,0,0,52.61916,6.66992Z"/><path class="cls-1" d="M59.8799,2.41016a2.50439,2.50439,0,0,1,1.14453.25488,1.84845,1.84845,0,0,1,.79541.78027,2.766,2.766,0,0,1,.29,1.34473V7.87012H60.54982V5.03027a1.38126,1.38126,0,0,0-.28516-.96,1.038,1.038,0,0,0-.80517-.31054,1.40644,1.40644,0,0,0-.665.15527,1.08177,1.08177,0,0,0-.46.47461,1.79071,1.79071,0,0,0-.165.82031V7.87012H56.60988V2.49023h1.48974V3.98047l-.27978-.4502a1.98816,1.98816,0,0,1,.82959-.83007A2.55993,2.55993,0,0,1,59.8799,2.41016Z"/><path class="cls-1" d="M68.65919,7.99023a3.54574,3.54574,0,0,1-1.36962-.25,2.37668,2.37668,0,0,1-.9502-.67968,1.52518,1.52518,0,0,1-.3501-.99024,1.9,1.9,0,0,1,.23-.93554,2.48207,2.48207,0,0,1,.73-.7793,7.361,7.361,0,0,1,1.27-.71582,8.2494,8.2494,0,0,0,.88037-.46,1.53431,1.53431,0,0,0,.44971-.38477.64712.64712,0,0,0,.12988-.375A.54216.54216,0,0,0,69.50441,2a.74066.74066,0,0,0-.51514-.16016.80794.80794,0,0,0-.56006.18067.59.59,0,0,0-.1997.46.76564.76564,0,0,0,.06006.29492,1.19367,1.19367,0,0,0,.23.33008q.16992.18458.48.47461L72.68947,7l-.8501.99023L67.76955,4.21a4.45675,4.45675,0,0,1-.56006-.59961,2.07544,2.07544,0,0,1-.30518-.5498A1.67725,1.67725,0,0,1,66.80959,2.5a1.53894,1.53894,0,0,1,.27-.89941,1.7494,1.7494,0,0,1,.75976-.60547,2.83921,2.83921,0,0,1,1.1499-.21485,2.601,2.601,0,0,1,1.05518.19532,1.64457,1.64457,0,0,1,.70019.55468,1.44885,1.44885,0,0,1,.25489.85938,1.532,1.532,0,0,1-.22022.80566,2.29514,2.29514,0,0,1-.68506.68457,7.44307,7.44307,0,0,1-1.21484.65039,4.60894,4.60894,0,0,0-.80518.44532,1.51066,1.51066,0,0,0-.4248.43457.94134.94134,0,0,0-.12988.49023.71744.71744,0,0,0,.15478.4502.99939.99939,0,0,0,.43506.30957,1.80255,1.80255,0,0,0,.66016.11035,2.26228,2.26228,0,0,0,1.11963-.28516,2.42265,2.42265,0,0,0,.86523-.85058,3.901,3.901,0,0,0,.50488-1.375l1.25.39062a4.55175,4.55175,0,0,1-.75,1.76953,3.695,3.695,0,0,1-3.1001,1.57031Z"/><path class="cls-1" d="M.83009,17.87012v-7H2.45021V16.5498H5.96v1.32032Z"/><path class="cls-1" d="M9.2798,17.9502a3.1498,3.1498,0,0,1-1.5249-.36036,2.73571,2.73571,0,0,1-1.04981-.98437,2.84724,2.84724,0,0,1,0-2.86035,2.70437,2.70437,0,0,1,1.04981-.98047,3.19206,3.19206,0,0,1,1.5249-.35449,3.19843,3.19843,0,0,1,1.52.35449,2.72866,2.72866,0,0,1,0,4.82519A3.15609,3.15609,0,0,1,9.2798,17.9502Zm0-1.28028a1.36667,1.36667,0,0,0,.7002-.17969,1.288,1.288,0,0,0,.49023-.51464,1.86114,1.86114,0,0,0,0-1.59571A1.2939,1.2939,0,0,0,9.98,13.87012a1.45313,1.45313,0,0,0-1.39991,0,1.32587,1.32587,0,0,0-.49511.50976,1.81243,1.81243,0,0,0,0,1.59571,1.31932,1.31932,0,0,0,.49511.51464A1.36611,1.36611,0,0,0,9.2798,16.66992Z"/><path class="cls-1" d="M15.55959,17.61035a2.81578,2.81578,0,0,1-1.355-.32519,2.658,2.658,0,0,1-.96973-3.65039,2.50182,2.50182,0,0,1,.96973-.9043,2.84655,2.84655,0,0,1,1.355-.32031,2.52594,2.52594,0,0,1,1.20019.27539,1.88462,1.88462,0,0,1,.81006.84961,3.27323,3.27323,0,0,1,.29,1.47461,3.25047,3.25047,0,0,1-.29,1.46582,1.92138,1.92138,0,0,1-.81006.85449A2.4938,2.4938,0,0,1,15.55959,17.61035Zm.24023,2.2793a5.75681,5.75681,0,0,1-1.46484-.18457,3.18516,3.18516,0,0,1-1.1753-.55469l.62012-1.12012a2.55523,2.55523,0,0,0,.86523.44532,3.454,3.454,0,0,0,1.03467.16406,1.669,1.669,0,0,0,1.20508-.36914,1.48166,1.48166,0,0,0,.375-1.10059v-.80957l.1001-1.35058-.02-1.35938V12.49023h1.48v4.4795a2.84891,2.84891,0,0,1-.77979,2.21A3.21425,3.21425,0,0,1,15.79982,19.88965Zm.06982-3.55957a1.56543,1.56543,0,0,0,.73-.165,1.22264,1.22264,0,0,0,.5-.46484,1.42041,1.42041,0,0,0,0-1.38477,1.22431,1.22431,0,0,0-.5-.46,1.69689,1.69689,0,0,0-1.46,0,1.26259,1.26259,0,0,0-.50488.46,1.38777,1.38777,0,0,0,0,1.38477,1.26047,1.26047,0,0,0,.50488.46484A1.56548,1.56548,0,0,0,15.86964,16.33008Z"/><path class="cls-1" d="M21.04982,11.74023a.98884.98884,0,0,1-.7002-.25.84709.84709,0,0,1,0-1.24023.99321.99321,0,0,1,.7002-.25,1.0261,1.0261,0,0,1,.7002.23535.76555.76555,0,0,1,.27.60449.85844.85844,0,0,1-.26513.64551A.97437.97437,0,0,1,21.04982,11.74023ZM20.27,17.87012V12.49023h1.55958v5.37989Z"/><path class="cls-1" d="M25.08986,17.9502a5.22994,5.22994,0,0,1-1.32471-.165,3.27987,3.27987,0,0,1-1.00488-.415l.52-1.12012a3.45521,3.45521,0,0,0,.875.375,3.5903,3.5903,0,0,0,.99463.14551,1.62474,1.62474,0,0,0,.76513-.13086.3982.3982,0,0,0,.2251-.35938.30633.30633,0,0,0-.17529-.28515A1.52356,1.52356,0,0,0,25.5,15.85059q-.29-.05127-.63477-.10059-.345-.0498-.69531-.13477a2.34909,2.34909,0,0,1-.63965-.25488,1.30424,1.30424,0,0,1-.46533-.46,1.43547,1.43547,0,0,1-.17481-.75,1.45154,1.45154,0,0,1,.29492-.90039,1.95606,1.95606,0,0,1,.855-.61523,3.60234,3.60234,0,0,1,1.33985-.22461A5.42265,5.42265,0,0,1,26.5,12.53027a3.04666,3.04666,0,0,1,.95019.34961l-.52,1.11035a2.64321,2.64321,0,0,0-.78516-.31543,3.63569,3.63569,0,0,0-.76513-.085,1.56155,1.56155,0,0,0-.75977.14063.41078.41078,0,0,0-.24023.35937.32362.32362,0,0,0,.17529.29981,1.575,1.575,0,0,0,.46484.16015q.29.06006.63526.10547a5.94645,5.94645,0,0,1,.69482.13477,2.54615,2.54615,0,0,1,.63477.25488,1.33272,1.33272,0,0,1,.46533.4502,1.38212,1.38212,0,0,1,.17969.74511,1.39909,1.39909,0,0,1-.29981.88477,1.9683,1.9683,0,0,1-.86523.60547A3.80284,3.80284,0,0,1,25.08986,17.9502Z"/><path class="cls-1" d="M27.94972,13.81055v-1.2002h3.73v1.2002Zm2.83985,4.13965a2.11248,2.11248,0,0,1-1.48-.48536,1.86026,1.86026,0,0,1-.52979-1.44433V11.2998h1.56006V16a.72345.72345,0,0,0,.17969.52539.653.653,0,0,0,.49023.18457.99985.99985,0,0,0,.62988-.20019l.41993,1.10058a1.71585,1.71585,0,0,1-.57471.25488A2.81873,2.81873,0,0,1,30.78957,17.9502Z"/><path class="cls-1" d="M33.71974,11.74023a.98879.98879,0,0,1-.70019-.25.84707.84707,0,0,1,0-1.24023.99317.99317,0,0,1,.70019-.25,1.0261,1.0261,0,0,1,.7002.23535.76556.76556,0,0,1,.27.60449.85845.85845,0,0,1-.26514.64551A.97437.97437,0,0,1,33.71974,11.74023ZM32.94,17.87012V12.49023h1.55957v5.37989Z"/><path class="cls-1" d="M38.54933,17.9502a3.29194,3.29194,0,0,1-1.5498-.35547,2.65883,2.65883,0,0,1-1.06494-.98438,2.71206,2.71206,0,0,1,1.06494-3.8457,3.30321,3.30321,0,0,1,1.5498-.35449,2.96773,2.96773,0,0,1,1.48.35449,2.16653,2.16653,0,0,1,.93018,1.01562l-1.21.64942a1.40728,1.40728,0,0,0-.52491-.55957,1.35592,1.35592,0,0,0-.68505-.17969,1.44258,1.44258,0,0,0-.72022.17969,1.30616,1.30616,0,0,0-.50488.50976,1.823,1.823,0,0,0,0,1.60059,1.3061,1.3061,0,0,0,.50488.50976,1.44258,1.44258,0,0,0,.72022.17969,1.382,1.382,0,0,0,.68505-.1748,1.351,1.351,0,0,0,.52491-.56543l1.21.66015a2.16974,2.16974,0,0,1-.93018,1.00489A2.95785,2.95785,0,0,1,38.54933,17.9502Z"/><path class="cls-1" d="M43.66945,17.9502a5.22994,5.22994,0,0,1-1.32471-.165,3.27987,3.27987,0,0,1-1.00488-.415l.52-1.12012a3.45521,3.45521,0,0,0,.875.375,3.5903,3.5903,0,0,0,.99463.14551,1.62474,1.62474,0,0,0,.76513-.13086.3982.3982,0,0,0,.2251-.35938.30633.30633,0,0,0-.17529-.28515,1.52356,1.52356,0,0,0-.46484-.14453q-.29-.05127-.63477-.10059-.345-.0498-.69531-.13477a2.34909,2.34909,0,0,1-.63965-.25488,1.30424,1.30424,0,0,1-.46533-.46,1.43547,1.43547,0,0,1-.17481-.75,1.45154,1.45154,0,0,1,.29492-.90039,1.95606,1.95606,0,0,1,.855-.61523,3.60234,3.60234,0,0,1,1.33985-.22461,5.42265,5.42265,0,0,1,1.12012.12011,3.04666,3.04666,0,0,1,.95019.34961l-.52,1.11035a2.64321,2.64321,0,0,0-.78516-.31543,3.63569,3.63569,0,0,0-.76513-.085,1.56155,1.56155,0,0,0-.75977.14063.41078.41078,0,0,0-.24023.35937.32362.32362,0,0,0,.17529.29981,1.575,1.575,0,0,0,.46484.16015q.29.06006.63526.10547a5.94645,5.94645,0,0,1,.69482.13477,2.54615,2.54615,0,0,1,.63477.25488,1.33272,1.33272,0,0,1,.46533.4502,1.38212,1.38212,0,0,1,.17969.74511,1.39909,1.39909,0,0,1-.29981.88477,1.9683,1.9683,0,0,1-.86523.60547A3.80284,3.80284,0,0,1,43.66945,17.9502Z"/><path class="cls-1" d="M53.45949,17.99023a4.21069,4.21069,0,0,1-1.50537-.26464,3.50467,3.50467,0,0,1-2-1.90528,3.8362,3.8362,0,0,1,0-2.90039,3.46712,3.46712,0,0,1,.80029-1.14941,3.59626,3.59626,0,0,1,1.20508-.75586A4.19468,4.19468,0,0,1,53.46925,10.75a4.13671,4.13671,0,0,1,1.645.31543,3.207,3.207,0,0,1,1.23487.9248l-1.04.96a2.42946,2.42946,0,0,0-.79981-.61524,2.24428,2.24428,0,0,0-.96-.20508,2.45784,2.45784,0,0,0-.8999.16016,2.03033,2.03033,0,0,0-.71.46,2.10466,2.10466,0,0,0-.46533.71,2.59216,2.59216,0,0,0,0,1.82031,2.10456,2.10456,0,0,0,.46533.71,2.03049,2.03049,0,0,0,.71.46,2.458,2.458,0,0,0,.8999.16015,2.24428,2.24428,0,0,0,.96-.20508,2.374,2.374,0,0,0,.79981-.625l1.04.96a3.24824,3.24824,0,0,1-1.23487.92969A4.095,4.095,0,0,1,53.45949,17.99023Z"/><path class="cls-1" d="M59.80959,17.9502a3.46048,3.46048,0,0,1-1.61524-.36036,2.64847,2.64847,0,0,1-1.07471-.98437,2.689,2.689,0,0,1-.38037-1.42578,2.73371,2.73371,0,0,1,.375-1.43457,2.66118,2.66118,0,0,1,1.02539-.98047,3.2121,3.2121,0,0,1,2.895-.01953,2.51329,2.51329,0,0,1,1.00489.96,2.88486,2.88486,0,0,1,.37011,1.49512c0,.05957-.0039.12793-.01025.20507-.00684.07618-.01318.14844-.02.21485H58.00929V14.71h3.5503l-.6001.27051a1.49792,1.49792,0,0,0-.16992-.73047,1.25176,1.25176,0,0,0-.47022-.48535,1.36677,1.36677,0,0,0-.69971-.17481,1.39454,1.39454,0,0,0-.70507.17481,1.22445,1.22445,0,0,0-.4751.49023A1.54888,1.54888,0,0,0,58.26955,15v.24023a1.51046,1.51046,0,0,0,.19482.77442,1.27454,1.27454,0,0,0,.55029.51074,1.87216,1.87216,0,0,0,.835.17481,2.01862,2.01862,0,0,0,.75489-.12989,1.83612,1.83612,0,0,0,.59472-.39062l.83008.90039a2.42058,2.42058,0,0,1-.92969.64551A3.455,3.455,0,0,1,59.80959,17.9502Z"/><path class="cls-1" d="M66.71925,12.41016a2.50436,2.50436,0,0,1,1.14453.25488,1.84835,1.84835,0,0,1,.79541.78027,2.76589,2.76589,0,0,1,.29,1.34473v3.08008H67.38918V15.03027a1.38131,1.38131,0,0,0-.28516-.96,1.038,1.038,0,0,0-.80518-.31054,1.40644,1.40644,0,0,0-.665.15527,1.08182,1.08182,0,0,0-.46.47461,1.79084,1.79084,0,0,0-.165.82031v2.66016H63.44923V12.49023H64.939v1.49024l-.27979-.4502a1.98821,1.98821,0,0,1,.82959-.83007A2.56,2.56,0,0,1,66.71925,12.41016Z"/><path class="cls-1" d="M69.71925,13.81055v-1.2002h3.73v1.2002ZM72.5591,17.9502a2.11248,2.11248,0,0,1-1.48-.48536,1.86026,1.86026,0,0,1-.52979-1.44433V11.2998h1.56006V16a.72345.72345,0,0,0,.17969.52539.653.653,0,0,0,.49023.18457.99983.99983,0,0,0,.62988-.20019l.41993,1.10058a1.71585,1.71585,0,0,1-.57471.25488A2.81873,2.81873,0,0,1,72.5591,17.9502Z"/><path class="cls-1" d="M74.70949,17.87012V12.49023h1.48974v1.51954l-.21-.43946a1.728,1.728,0,0,1,.77-.86523,2.62034,2.62034,0,0,1,1.29-.29492v1.44043c-.06689-.00684-.12695-.01172-.18017-.01563-.05323-.00293-.10987-.00488-.16993-.00488a1.32647,1.32647,0,0,0-1.43017,1.5v2.54Z"/><path class="cls-1" d="M81.59962,17.9502a3.46046,3.46046,0,0,1-1.61523-.36036,2.64847,2.64847,0,0,1-1.07471-.98437,2.689,2.689,0,0,1-.38037-1.42578,2.73371,2.73371,0,0,1,.375-1.43457,2.66118,2.66118,0,0,1,1.02539-.98047,3.2121,3.2121,0,0,1,2.895-.01953,2.51335,2.51335,0,0,1,1.00489.96,2.88486,2.88486,0,0,1,.37011,1.49512c0,.05957-.0039.12793-.01025.20507-.00684.07618-.01319.14844-.02.21485H79.79933V14.71h3.55029l-.60009.27051a1.49792,1.49792,0,0,0-.16992-.73047,1.25176,1.25176,0,0,0-.47022-.48535,1.36679,1.36679,0,0,0-.69971-.17481,1.39454,1.39454,0,0,0-.70507.17481,1.22445,1.22445,0,0,0-.4751.49023A1.54888,1.54888,0,0,0,80.05959,15v.24023a1.51046,1.51046,0,0,0,.19482.77442,1.27454,1.27454,0,0,0,.55029.51074,1.87216,1.87216,0,0,0,.835.17481,2.01866,2.01866,0,0,0,.75489-.12989,1.83612,1.83612,0,0,0,.59472-.39062l.83008.90039a2.42058,2.42058,0,0,1-.92969.64551A3.455,3.455,0,0,1,81.59962,17.9502Z"/></g></g></svg>