<svg xmlns="http://www.w3.org/2000/svg" viewBox="0 0 169.41688 68.39318"><defs><style>.cls-1{fill:#fdfeff;}.cls-2{fill:none;stroke:#fdfeff;stroke-miterlimit:10;stroke-width:0.5px;}.cls-3{fill:#fff;}</style></defs><g id="Layer_2" data-name="Layer 2"><g id="Layer_3" data-name="Layer 3"><path class="cls-1" d="M163.21266,51.56453a6.20318,6.20318,0,0,0-2.99559,11.63569l1.46282,2.54083,1.53277,2.65213,1.53277-2.65213,1.466-2.54083a6.20428,6.20428,0,0,0-2.99875-11.63569Zm0,9.53687a3.33425,3.33425,0,1,1,3.33583-3.33265A3.33182,3.33182,0,0,1,163.21266,61.1014Z"/><polyline class="cls-2" points="158.015 54.433 136.695 33.113 0 33.113"/><path class="cls-3" d="M.65822,25.62988V20.72949h2.2959a2.21681,2.21681,0,0,1,1.34375.34668,1.10117,1.10117,0,0,1,.46191.92774,1.19171,1.19171,0,0,1-.18164.66894,1.22423,1.22423,0,0,1-.48682.42676,1.46683,1.46683,0,0,1-.66113.15039l.126-.252a1.75975,1.75975,0,0,1,.7417.15039,1.23086,1.23086,0,0,1,.52148.4375,1.25407,1.25407,0,0,1,.19287.71386,1.14151,1.14151,0,0,1-.4834.98047,2.43608,2.43608,0,0,1-1.43457.34961Zm.90967-.71386H3.0381a1.50166,1.50166,0,0,0,.78369-.168.66423.66423,0,0,0,0-1.07422A1.47984,1.47984,0,0,0,3.0381,23.502h-1.54v-.707H2.856a1.32788,1.32788,0,0,0,.73145-.168.6316.6316,0,0,0,0-1.01465,1.328,1.328,0,0,0-.73145-.168H1.56789Z"/><path class="cls-3" d="M5.292,25.62988l2.20508-4.90039h.896L10.605,25.62988H9.65334l-1.897-4.417h.36377L6.23,25.62988Zm1.01513-1.13379.24512-.71386h2.646l.24511.71386Z"/><path class="cls-3" d="M11.97658,25.62988V21.5h-1.624v-.77051h4.15821V21.5h-1.624v4.12988Z"/><path class="cls-3" d="M14.2588,25.62988l2.20508-4.90039h.896l2.21191,4.90039h-.95166l-1.897-4.417h.36377l-1.89014,4.417Zm1.01514-1.13379.24512-.71386h2.646l.24512.71386Z"/><path class="cls-3" d="M20.19533,25.62988V20.72949h.749l2.1416,3.57715h-.3916l2.10693-3.57715h.749l.00683,4.90039H24.6963L24.689,22.08105h.18213l-1.792,2.98926h-.40576L20.853,22.08105h.21v3.54883Z"/><path class="cls-3" d="M28.15382,23.9707v-.57422h3.5v.57422Z"/><path class="cls-3" d="M34.24367,25.62988V20.72949h.90967v4.90039Zm.812-1.15527-.04932-1.07813,2.56934-2.667h1.022l-2.13525,2.26856-.50391.55273Zm2.604,1.15527-1.876-2.2334.60156-.665,2.33838,2.89843Z"/><path class="cls-3" d="M40.25636,24.86719H43.0215v.76269H39.34669V20.72949h3.57667v.76367h-2.667Zm-.06982-2.10059h2.436v.749h-2.436Z"/><path class="cls-3" d="M44.03664,25.62988V20.72949h2.01562a2.70815,2.70815,0,0,1,1.1167.21,1.62241,1.62241,0,0,1,.71729.60254,1.84665,1.84665,0,0,1,0,1.86231,1.62048,1.62048,0,0,1-.71729.60156,2.70815,2.70815,0,0,1-1.1167.21H44.54054l.40576-.42676v1.84082Zm.90966-1.74316-.40576-.44043h1.46973a1.385,1.385,0,0,0,.90674-.25586,1.00237,1.00237,0,0,0,0-1.43848,1.39644,1.39644,0,0,0-.90674-.252H44.54054l.40576-.44824Z"/><path class="cls-3" d="M51.15578,25.7002a2.14115,2.14115,0,0,1-1.57862-.56739,2.20874,2.20874,0,0,1-.57031-1.63769V20.72949h.90967V23.46a1.556,1.556,0,0,0,.32568,1.09863,1.39954,1.39954,0,0,0,1.83741,0A1.56793,1.56793,0,0,0,52.40187,23.46V20.72949h.896v2.76563a2.20893,2.20893,0,0,1-.5708,1.63769A2.13181,2.13181,0,0,1,51.15578,25.7002Z"/><path class="cls-3" d="M54.57179,25.62988V20.72949h.90967v4.13086h2.562v.76953Z"/><path class="cls-3" d="M58.07814,25.62988l2.20508-4.90039h.896l2.21192,4.90039h-.95166l-1.897-4.417h.36377l-1.89014,4.417Zm1.01514-1.13379.24511-.71386h2.646l.24512.71386Z"/><path class="cls-3" d="M66.01662,25.7002a2.14115,2.14115,0,0,1-1.57862-.56739,2.20874,2.20874,0,0,1-.57031-1.63769V20.72949h.90967V23.46a1.556,1.556,0,0,0,.32568,1.09863,1.39952,1.39952,0,0,0,1.8374,0A1.56788,1.56788,0,0,0,67.26271,23.46V20.72949h.896v2.76563a2.20893,2.20893,0,0,1-.5708,1.63769A2.13181,2.13181,0,0,1,66.01662,25.7002Z"/><path class="cls-3" d="M68.63429,25.62988l2.20508-4.90039h.896l2.21191,4.90039h-.95166l-1.897-4.417h.36377l-1.89014,4.417Zm1.01514-1.13379.24512-.71386h2.646l.24512.71386Z"/><path class="cls-3" d="M74.57033,25.62988V20.72949h.749l3.07276,3.77344H78.021V20.72949h.90332v4.90039h-.749l-3.07324-3.77343h.37109v3.77343Z"/><path class="cls-3" d="M82.17238,25.62988V20.72949H84.188a2.70808,2.70808,0,0,1,1.1167.21,1.62241,1.62241,0,0,1,.71729.60254,1.68407,1.68407,0,0,1,.25195.93067,1.66725,1.66725,0,0,1-.25195.92773,1.6071,1.6071,0,0,1-.71729.59473,2.74172,2.74172,0,0,1-1.1167.207H82.67628l.40577-.41309v1.84082Zm.90967-1.74316-.40577-.43359H84.146a1.37385,1.37385,0,0,0,.90674-.25879.89575.89575,0,0,0,.3042-.72168.88189.88189,0,0,0-.3042-.72071A1.39644,1.39644,0,0,0,84.146,21.5H82.67628l.40577-.44824Zm2.29589,1.74316-1.23876-1.77832h.97314l1.24609,1.77832Z"/><path class="cls-3" d="M87.28908,25.62988V20.72949h.90967v4.90039Z"/><path class="cls-3" d="M88.82863,25.62988l2.20508-4.90039h.896l2.21192,4.90039H93.19l-1.897-4.417h.36377l-1.89013,4.417Zm1.01514-1.13379.24511-.71386h2.646l.24512.71386Z"/><path class="cls-3" d="M96.76711,25.7002a2.14115,2.14115,0,0,1-1.57862-.56739,2.20874,2.20874,0,0,1-.57031-1.63769V20.72949h.90967V23.46a1.556,1.556,0,0,0,.32568,1.09863,1.39952,1.39952,0,0,0,1.8374,0A1.56788,1.56788,0,0,0,98.0132,23.46V20.72949h.896v2.76563a2.20889,2.20889,0,0,1-.5708,1.63769A2.13177,2.13177,0,0,1,96.76711,25.7002Z"/><path class="cls-3" d="M.86086,7.08984v-7H2.481v7Z"/><path class="cls-3" d="M10.92043,1.62988a2.44527,2.44527,0,0,1,1.13525.25489,1.83006,1.83006,0,0,1,.77978.78027,2.80154,2.80154,0,0,1,.28516,1.34473V7.08984H11.56056V4.25a1.43255,1.43255,0,0,0-.27-.96.95366.95366,0,0,0-.75976-.31055,1.202,1.202,0,0,0-.61035.15528,1.04673,1.04673,0,0,0-.41993.46484,1.81665,1.81665,0,0,0-.1499.79V7.08984H7.79054V4.25a1.45216,1.45216,0,0,0-.26513-.96.938.938,0,0,0-.75489-.31055,1.20025,1.20025,0,0,0-.60986.15528,1.0411,1.0411,0,0,0-.41992.46484,1.81612,1.81612,0,0,0-.15039.79V7.08984H4.03078V1.71H5.52052V3.17969L5.24074,2.75a1.91779,1.91779,0,0,1,.79492-.835,2.38054,2.38054,0,0,1,1.1748-.28516,2.25692,2.25692,0,0,1,1.29493.375,1.8134,1.8134,0,0,1,.73535,1.14453L8.69044,3a2.1511,2.1511,0,0,1,.86524-1A2.52659,2.52659,0,0,1,10.92043,1.62988Z"/><path class="cls-3" d="M14.521,9.03027V1.71h1.48975V2.80957L15.981,4.41016,16.08058,6V9.03027ZM17.7007,7.16992a2.3016,2.3016,0,0,1-1.18994-.2998,1.99668,1.99668,0,0,1-.79492-.915,3.707,3.707,0,0,1-.28516-1.55567,3.88014,3.88014,0,0,1,.27-1.55957,1.91952,1.91952,0,0,1,.78027-.91015,2.3616,2.3616,0,0,1,1.21973-.29981,2.71289,2.71289,0,0,1,1.36523.34473,2.54776,2.54776,0,0,1,.96.96484,2.89469,2.89469,0,0,1,.355,1.46,2.91289,2.91289,0,0,1-.355,1.47071,2.5077,2.5077,0,0,1-.96.96A2.74026,2.74026,0,0,1,17.7007,7.16992Zm-.27-1.28027a1.29848,1.29848,0,0,0,1.18506-.69434,1.61963,1.61963,0,0,0,.18506-.7959,1.61427,1.61427,0,0,0-.18506-.7998,1.30611,1.30611,0,0,0-1.18506-.68945,1.36621,1.36621,0,0,0-.69971.17968,1.2906,1.2906,0,0,0-.49023.50977,1.6516,1.6516,0,0,0-.18018.7998,1.6571,1.6571,0,0,0,.18018.7959A1.28474,1.28474,0,0,0,16.731,5.71,1.36611,1.36611,0,0,0,17.43068,5.88965Z"/><path class="cls-3" d="M23.98048,7.16992a3.14991,3.14991,0,0,1-1.5249-.36035,2.73568,2.73568,0,0,1-1.0498-.98437,2.66148,2.66148,0,0,1-.38526-1.42579,2.65628,2.65628,0,0,1,1.43506-2.415,3.44647,3.44647,0,0,1,3.04492,0,2.62423,2.62423,0,0,1,1.43018,2.415A2.649,2.649,0,0,1,25.5005,6.80957,3.15617,3.15617,0,0,1,23.98048,7.16992Zm0-1.28027a1.36662,1.36662,0,0,0,.7002-.17969,1.28794,1.28794,0,0,0,.49023-.51465,1.6627,1.6627,0,0,0,.17969-.7959,1.65716,1.65716,0,0,0-.17969-.7998,1.29386,1.29386,0,0,0-.49023-.50977,1.45318,1.45318,0,0,0-1.3999,0,1.32592,1.32592,0,0,0-.49512.50977,1.61417,1.61417,0,0,0-.18506.7998,1.61952,1.61952,0,0,0,.18506.7959,1.31937,1.31937,0,0,0,.49512.51465A1.36608,1.36608,0,0,0,23.98048,5.88965Z"/><path class="cls-3" d="M27.97072,7.08984V1.71h1.48974V3.22949l-.21-.43945a1.728,1.728,0,0,1,.77-.86524,2.62045,2.62045,0,0,1,1.29-.29492V3.07031c-.06689-.00683-.12695-.01172-.18017-.01562-.05323-.00293-.10987-.00489-.16993-.00489a1.46631,1.46631,0,0,0-1.03515.36524,1.47471,1.47471,0,0,0-.395,1.13476v2.54Z"/><path class="cls-3" d="M31.79054,3.03027V1.83008h3.73V3.03027Zm2.83985,4.13965a2.11252,2.11252,0,0,1-1.48-.48535,1.86029,1.86029,0,0,1-.52979-1.44434V.51953h1.56006v4.7002a.72347.72347,0,0,0,.17969.52539.65306.65306,0,0,0,.49023.18457.9998.9998,0,0,0,.62988-.2002l.41993,1.10059a1.71585,1.71585,0,0,1-.57471.25488A2.8192,2.8192,0,0,1,34.63039,7.16992Z"/><path class="cls-3" d="M41.91994,7.21a3.54575,3.54575,0,0,1-1.36963-.25,2.37661,2.37661,0,0,1-.9502-.67969A1.52515,1.52515,0,0,1,39.25,5.29a1.90006,1.90006,0,0,1,.23-.93555,2.482,2.482,0,0,1,.73-.77929,7.36025,7.36025,0,0,1,1.27-.71582,8.253,8.253,0,0,0,.88037-.46,1.53452,1.53452,0,0,0,.4497-.38476.64718.64718,0,0,0,.12989-.375.54215.54215,0,0,0-.17481-.41992A.74065.74065,0,0,0,42.25,1.05957a.808.808,0,0,0-.56006.18066.59.59,0,0,0-.19971.46.76568.76568,0,0,0,.06006.29492,1.19382,1.19382,0,0,0,.23.33008q.16992.18456.48.4746l3.68994,3.41993-.8501.99023L41.03029,3.42969a4.458,4.458,0,0,1-.56006-.59961,2.07549,2.07549,0,0,1-.30518-.54981,1.67715,1.67715,0,0,1-.09472-.56054,1.539,1.539,0,0,1,.27-.89942,1.74954,1.74954,0,0,1,.75976-.60547A2.8394,2.8394,0,0,1,42.25,0a2.601,2.601,0,0,1,1.05517.19531A1.64469,1.64469,0,0,1,44.00539.75a1.44889,1.44889,0,0,1,.25488.85938,1.532,1.532,0,0,1-.22022.80566,2.29532,2.29532,0,0,1-.68505.68457A7.444,7.444,0,0,1,42.14015,3.75a4.60913,4.60913,0,0,0-.80517.44531,1.51083,1.51083,0,0,0-.42481.43457.94138.94138,0,0,0-.12988.49024.71743.71743,0,0,0,.15478.45019.99923.99923,0,0,0,.43506.30957,1.80238,1.80238,0,0,0,.66016.11035,2.26227,2.26227,0,0,0,1.11963-.28515,2.42252,2.42252,0,0,0,.86523-.85059,3.90062,3.90062,0,0,0,.50488-1.375l1.25.39063a4.55152,4.55152,0,0,1-.75,1.76953A3.75386,3.75386,0,0,1,43.69,6.7998,3.78262,3.78262,0,0,1,41.91994,7.21Z"/><path class="cls-3" d="M51.44,5.79H55.25v1.2998H49.83009v-7h5.29V1.38965H51.44Zm-.12012-2.87988H54.69V4.16992H51.31984Z"/><path class="cls-3" d="M55.68019,7.08984l2.41016-3.16015L58.06007,4.79,55.75,1.71H57.5l1.46,2.00977-.65967.0205L59.81007,1.71h1.66016L59.14992,4.75977V3.91992l2.40039,3.16992h-1.77L58.25,4.9502l.6499.08984-1.51953,2.0498Z"/><path class="cls-3" d="M62.31007,9.03027V1.71h1.48975V2.80957L63.77,4.41016,63.86964,6V9.03027Zm3.17969-1.86035a2.30163,2.30163,0,0,1-1.18994-.2998,1.99673,1.99673,0,0,1-.79492-.915,3.70716,3.70716,0,0,1-.28516-1.55567,3.88014,3.88014,0,0,1,.27-1.55957A1.91958,1.91958,0,0,1,64.27,1.92969a2.36162,2.36162,0,0,1,1.21973-.29981,2.7129,2.7129,0,0,1,1.36524.34473,2.54783,2.54783,0,0,1,.96.96484,2.89479,2.89479,0,0,1,.355,1.46,2.913,2.913,0,0,1-.355,1.47071,2.50777,2.50777,0,0,1-.96.96A2.74028,2.74028,0,0,1,65.48976,7.16992Zm-.27-1.28027a1.29848,1.29848,0,0,0,1.18506-.69434,1.61952,1.61952,0,0,0,.18506-.7959,1.61417,1.61417,0,0,0-.18506-.7998,1.30611,1.30611,0,0,0-1.18506-.68945,1.36623,1.36623,0,0,0-.69971.17968,1.2906,1.2906,0,0,0-.49023.50977,1.6516,1.6516,0,0,0-.18018.7998,1.6571,1.6571,0,0,0,.18018.7959A1.28474,1.28474,0,0,0,64.52,5.71,1.36614,1.36614,0,0,0,65.21974,5.88965Z"/><path class="cls-3" d="M71.76955,7.16992a3.14992,3.14992,0,0,1-1.52491-.36035,2.73575,2.73575,0,0,1-1.0498-.98437,2.66148,2.66148,0,0,1-.38525-1.42579,2.65625,2.65625,0,0,1,1.43505-2.415,3.44649,3.44649,0,0,1,3.04493,0,2.62424,2.62424,0,0,1,1.43017,2.415,2.649,2.649,0,0,1-1.43017,2.41016A3.1562,3.1562,0,0,1,71.76955,7.16992Zm0-1.28027A1.36661,1.36661,0,0,0,72.46974,5.71,1.288,1.288,0,0,0,72.96,5.19531a1.6627,1.6627,0,0,0,.17968-.7959,1.65716,1.65716,0,0,0-.17968-.7998,1.294,1.294,0,0,0-.49024-.50977,1.45318,1.45318,0,0,0-1.3999,0,1.326,1.326,0,0,0-.49512.50977,1.61427,1.61427,0,0,0-.18506.7998,1.61963,1.61963,0,0,0,.18506.7959,1.31944,1.31944,0,0,0,.49512.51465A1.36609,1.36609,0,0,0,71.76955,5.88965Z"/><path class="cls-3" d="M75.76027,7.08984V1.71H77.25V3.22949L77.04,2.79a1.728,1.728,0,0,1,.77-.86524,2.62045,2.62045,0,0,1,1.29-.29492V3.07031c-.06689-.00683-.127-.01172-.18017-.01562-.05323-.00293-.10987-.00489-.16992-.00489a1.46632,1.46632,0,0,0-1.03516.36524,1.47475,1.47475,0,0,0-.395,1.13476v2.54Z"/><path class="cls-3" d="M79.58009,3.03027V1.83008h3.73V3.03027Zm2.83985,4.13965a2.11252,2.11252,0,0,1-1.48-.48535,1.86029,1.86029,0,0,1-.52979-1.44434V.51953h1.56006v4.7002a.72347.72347,0,0,0,.17969.52539.65306.65306,0,0,0,.49023.18457.9998.9998,0,0,0,.62988-.2002L83.69,6.83008a1.71585,1.71585,0,0,1-.57471.25488A2.8192,2.8192,0,0,1,82.41994,7.16992Z"/><path class="cls-3" d="M.86086,17.08984v-7H2.481v7Z"/><path class="cls-3" d="M7.3008,11.62988a2.50427,2.50427,0,0,1,1.14453.25489,1.8484,1.8484,0,0,1,.79541.78027,2.766,2.766,0,0,1,.29,1.34473v3.08007H7.97072V14.25a1.3813,1.3813,0,0,0-.28516-.96,1.038,1.038,0,0,0-.80517-.31055,1.40639,1.40639,0,0,0-.665.15528,1.08171,1.08171,0,0,0-.46.47461,1.79068,1.79068,0,0,0-.165.82031v2.66015H4.03078V11.71H5.52052V13.2002L5.24074,12.75a1.98818,1.98818,0,0,1,.82959-.83008A2.55993,2.55993,0,0,1,7.3008,11.62988Z"/><path class="cls-3" d="M10.3008,13.03027V11.83008h3.73v1.20019Zm2.83984,4.13965a2.11254,2.11254,0,0,1-1.48-.48535,1.86029,1.86029,0,0,1-.52979-1.44434v-4.7207h1.56006v4.7002a.72347.72347,0,0,0,.17969.52539.65308.65308,0,0,0,.49024.18457.9998.9998,0,0,0,.62988-.2002l.41992,1.10059a1.71576,1.71576,0,0,1-.57471.25488A2.8192,2.8192,0,0,1,13.14064,17.16992Z"/><path class="cls-3" d="M17.79054,17.16992a3.46056,3.46056,0,0,1-1.61523-.36035,2.64854,2.64854,0,0,1-1.07471-.98437,2.689,2.689,0,0,1-.38037-1.42579,2.73376,2.73376,0,0,1,.375-1.43457,2.66116,2.66116,0,0,1,1.02539-.98046,3.21206,3.21206,0,0,1,2.895-.01954,2.51333,2.51333,0,0,1,1.00488.96,2.88479,2.88479,0,0,1,.37012,1.49512c0,.05957-.00391.12793-.01025.20508-.00684.07617-.01319.14844-.02.21484H15.99025v-.91015h3.55029l-.6001.27051a1.4979,1.4979,0,0,0-.16992-.73047,1.25166,1.25166,0,0,0-.47021-.48535,1.36669,1.36669,0,0,0-.69971-.17481,1.3945,1.3945,0,0,0-.70508.17481,1.22443,1.22443,0,0,0-.47509.49023,1.54874,1.54874,0,0,0-.16993.74512V14.46a1.51036,1.51036,0,0,0,.19483.77442,1.27448,1.27448,0,0,0,.55029.51074,1.87216,1.87216,0,0,0,.835.1748,2.01878,2.01878,0,0,0,.75488-.12988,1.8363,1.8363,0,0,0,.59473-.39063l.83008.90039a2.42047,2.42047,0,0,1-.92969.64551A3.45477,3.45477,0,0,1,17.79054,17.16992Z"/><path class="cls-3" d="M21.43068,17.08984V11.71h1.48975v1.51953l-.21-.43945a1.728,1.728,0,0,1,.77-.86524,2.62045,2.62045,0,0,1,1.29-.29492v1.44043c-.06689-.00683-.127-.01172-.18017-.01562-.05323-.00293-.10987-.00489-.16992-.00489a1.32648,1.32648,0,0,0-1.43018,1.5v2.54Z"/><path class="cls-3" d="M28.97072,11.62988a2.50427,2.50427,0,0,1,1.14453.25489,1.8484,1.8484,0,0,1,.79541.78027,2.766,2.766,0,0,1,.29,1.34473v3.08007H29.64064V14.25a1.38125,1.38125,0,0,0-.28516-.96,1.038,1.038,0,0,0-.80517-.31055,1.40645,1.40645,0,0,0-.665.15528,1.08171,1.08171,0,0,0-.46.47461,1.79068,1.79068,0,0,0-.165.82031v2.66015H25.7007V11.71h1.48974V13.2002l-.27978-.4502a1.98824,1.98824,0,0,1,.82959-.83008A2.55993,2.55993,0,0,1,28.97072,11.62988Z"/><path class="cls-3" d="M34.27052,17.16992a2.49894,2.49894,0,0,1-1.08008-.21484,1.64837,1.64837,0,0,1-.68994-.585,1.58749,1.58749,0,0,1-.00488-1.66992,1.53735,1.53735,0,0,1,.74512-.56543,3.61611,3.61611,0,0,1,1.33008-.20508H36.0005v.91015H34.74074a1.17085,1.17085,0,0,0-.75488.17969.575.575,0,0,0-.20508.4502.56217.56217,0,0,0,.23486.47558,1.06162,1.06162,0,0,0,.645.17481,1.33573,1.33573,0,0,0,.7002-.18555,1.05738,1.05738,0,0,0,.4497-.54492l.24024.71973a1.39136,1.39136,0,0,1-.62012.79A2.2225,2.2225,0,0,1,34.27052,17.16992Zm1.64014-.08008V16.04l-.1001-.23047V13.92969a1.00864,1.00864,0,0,0-.30469-.78028,1.34713,1.34713,0,0,0-.93505-.27929,2.71778,2.71778,0,0,0-.84522.13476,2.23186,2.23186,0,0,0-.70508.36524l-.56006-1.08985a3.36907,3.36907,0,0,1,1.06006-.48047,4.74877,4.74877,0,0,1,1.26026-.16992,2.85427,2.85427,0,0,1,1.90966.58008,2.2501,2.2501,0,0,1,.68018,1.80957v3.07031Z"/><path class="cls-3" d="M38.14064,13.03027V11.83008h3.73v1.20019Zm2.83984,4.13965a2.11254,2.11254,0,0,1-1.48-.48535,1.86032,1.86032,0,0,1-.52978-1.44434v-4.7207h1.56006v4.7002a.72351.72351,0,0,0,.17968.52539.6531.6531,0,0,0,.49024.18457.9998.9998,0,0,0,.62988-.2002l.41992,1.10059a1.71571,1.71571,0,0,1-.5747.25488A2.81928,2.81928,0,0,1,40.98048,17.16992Z"/><path class="cls-3" d="M43.91017,10.96a.98884.98884,0,0,1-.70019-.25.84707.84707,0,0,1,0-1.24023.99317.99317,0,0,1,.70019-.25,1.026,1.026,0,0,1,.7002.23535.76556.76556,0,0,1,.27.60449.85846.85846,0,0,1-.26514.64551A.97437.97437,0,0,1,43.91017,10.96Zm-.77978,6.12988V11.71H44.69v5.37988Z"/><path class="cls-3" d="M48.70021,17.16992a3.14991,3.14991,0,0,1-1.5249-.36035,2.73578,2.73578,0,0,1-1.04981-.98437,2.84726,2.84726,0,0,1,0-2.86036,2.70435,2.70435,0,0,1,1.04981-.98046,3.44647,3.44647,0,0,1,3.04492,0,2.72866,2.72866,0,0,1,0,4.82519A3.15617,3.15617,0,0,1,48.70021,17.16992Zm0-1.28027a1.36667,1.36667,0,0,0,.7002-.17969,1.288,1.288,0,0,0,.49023-.51465,1.86112,1.86112,0,0,0,0-1.5957,1.29393,1.29393,0,0,0-.49023-.50977,1.4532,1.4532,0,0,0-1.39991,0,1.32589,1.32589,0,0,0-.49511.50977,1.81241,1.81241,0,0,0,0,1.5957,1.31935,1.31935,0,0,0,.49511.51465A1.36611,1.36611,0,0,0,48.70021,15.88965Z"/><path class="cls-3" d="M55.96046,11.62988a2.50431,2.50431,0,0,1,1.14454.25489,1.8484,1.8484,0,0,1,.79541.78027,2.766,2.766,0,0,1,.29,1.34473v3.08007H56.63039V14.25a1.3813,1.3813,0,0,0-.28516-.96,1.038,1.038,0,0,0-.80518-.31055,1.40638,1.40638,0,0,0-.665.15528,1.08179,1.08179,0,0,0-.46.47461,1.79081,1.79081,0,0,0-.165.82031v2.66015H52.69044V11.71h1.48975V13.2002l-.27978-.4502a1.98818,1.98818,0,0,1,.82959-.83008A2.55992,2.55992,0,0,1,55.96046,11.62988Z"/><path class="cls-3" d="M61.26027,17.16992a2.49891,2.49891,0,0,1-1.08008-.21484,1.64837,1.64837,0,0,1-.68994-.585,1.58744,1.58744,0,0,1-.00488-1.66992,1.53732,1.53732,0,0,1,.74511-.56543,3.61618,3.61618,0,0,1,1.33008-.20508h1.42969v.91015H61.73048a1.17085,1.17085,0,0,0-.75488.17969.575.575,0,0,0-.20508.4502.56217.56217,0,0,0,.23487.47558,1.0616,1.0616,0,0,0,.645.17481,1.3357,1.3357,0,0,0,.70019-.18555,1.0574,1.0574,0,0,0,.44971-.54492l.24023.71973a1.39134,1.39134,0,0,1-.62011.79A2.22253,2.22253,0,0,1,61.26027,17.16992Zm1.64014-.08008V16.04l-.1001-.23047V13.92969a1.00864,1.00864,0,0,0-.30469-.78028,1.34716,1.34716,0,0,0-.93506-.27929,2.71767,2.71767,0,0,0-.84521.13476,2.23175,2.23175,0,0,0-.70508.36524l-.56006-1.08985a3.369,3.369,0,0,1,1.06006-.48047,4.7487,4.7487,0,0,1,1.26025-.16992,2.85428,2.85428,0,0,1,1.90967.58008,2.25013,2.25013,0,0,1,.68018,1.80957v3.07031Z"/><path class="cls-3" d="M65.77052,17.08984V9.66992h1.55957v7.41992Z"/><path class="cls-3" d="M71.72023,17.08984v-7h3.17969a4.43776,4.43776,0,0,1,2.01025.43457A3.31858,3.31858,0,0,1,78.27,11.74023a3.40429,3.40429,0,0,1,.49024,1.84961A3.41061,3.41061,0,0,1,78.27,15.43457a3.30923,3.30923,0,0,1-1.35986,1.2207,4.43763,4.43763,0,0,1-2.01025.43457Zm1.62012-1.33007h1.48a2.62174,2.62174,0,0,0,1.21484-.26465,1.925,1.925,0,0,0,.79981-.75489,2.47295,2.47295,0,0,0,0-2.30566,1.93234,1.93234,0,0,0-.79981-.75,2.62174,2.62174,0,0,0-1.21484-.26465h-1.48Z"/><path class="cls-3" d="M80.64992,10.96a.98888.98888,0,0,1-.7002-.25.84707.84707,0,0,1,0-1.24023.99321.99321,0,0,1,.7002-.25,1.026,1.026,0,0,1,.70019.23535.76553.76553,0,0,1,.27.60449.85845.85845,0,0,1-.26513.64551A.97438.97438,0,0,1,80.64992,10.96Zm-.77979,6.12988V11.71H81.4297v5.37988Z"/><path class="cls-3" d="M84.68947,17.16992a5.22994,5.22994,0,0,1-1.32471-.165,3.27938,3.27938,0,0,1-1.00488-.415l.52-1.12011a3.45521,3.45521,0,0,0,.875.375,3.59029,3.59029,0,0,0,.99463.1455,1.62476,1.62476,0,0,0,.76513-.13085.3982.3982,0,0,0,.2251-.35938.30635.30635,0,0,0-.17529-.28516,1.5241,1.5241,0,0,0-.46485-.14453q-.29-.05127-.63476-.10058-.345-.04982-.69531-.13477a2.34909,2.34909,0,0,1-.63965-.25488,1.30424,1.30424,0,0,1-.46533-.46,1.43547,1.43547,0,0,1-.17481-.75,1.4515,1.4515,0,0,1,.29492-.90039,1.95608,1.95608,0,0,1,.855-.61524,3.60254,3.60254,0,0,1,1.33985-.22461,5.42182,5.42182,0,0,1,1.12011.12012,3.04663,3.04663,0,0,1,.9502.34961l-.52,1.11035a2.64294,2.64294,0,0,0-.78516-.31543,3.63569,3.63569,0,0,0-.76513-.085,1.56155,1.56155,0,0,0-.75977.14063.41078.41078,0,0,0-.24023.35937.32362.32362,0,0,0,.17529.29981,1.57519,1.57519,0,0,0,.46484.16015q.29.06006.63526.10547a5.94438,5.94438,0,0,1,.69482.13477,2.54539,2.54539,0,0,1,.63477.25488,1.33269,1.33269,0,0,1,.46533.45019,1.38216,1.38216,0,0,1,.17969.74512,1.39909,1.39909,0,0,1-.29981.88477,1.96838,1.96838,0,0,1-.86523.60547A3.80286,3.80286,0,0,1,84.68947,17.16992Z"/><path class="cls-3" d="M87.54982,13.03027V11.83008h3.73v1.20019Zm2.83984,4.13965a2.11254,2.11254,0,0,1-1.48-.48535,1.86032,1.86032,0,0,1-.52978-1.44434v-4.7207H89.94v4.7002a.72351.72351,0,0,0,.17968.52539.6531.6531,0,0,0,.49024.18457.9998.9998,0,0,0,.62988-.2002l.41992,1.10059a1.71571,1.71571,0,0,1-.5747.25488A2.81928,2.81928,0,0,1,90.38966,17.16992Z"/><path class="cls-3" d="M92.54,17.08984V11.71H94.0298v1.51953l-.21-.43945a1.728,1.728,0,0,1,.77-.86524,2.62042,2.62042,0,0,1,1.29-.29492v1.44043c-.0669-.00683-.127-.01172-.18018-.01562-.05322-.00293-.10986-.00489-.16992-.00489a1.32648,1.32648,0,0,0-1.43018,1.5v2.54Z"/><path class="cls-3" d="M97.58986,10.96a.98888.98888,0,0,1-.7002-.25.84707.84707,0,0,1,0-1.24023.99321.99321,0,0,1,.7002-.25,1.026,1.026,0,0,1,.70019.23535.76553.76553,0,0,1,.27.60449.85845.85845,0,0,1-.26513.64551A.97437.97437,0,0,1,97.58986,10.96Zm-.77979,6.12988V11.71h1.55957v5.37988Z"/><path class="cls-3" d="M99.81984,17.08984V9.66992h1.55957V12.7998l-.09961,1.58985.02979,1.60058v1.09961Zm3.17969.08008a2.36167,2.36167,0,0,1-1.21973-.2998,1.91393,1.91393,0,0,1-.78027-.915,3.89252,3.89252,0,0,1-.27-1.55567,3.69543,3.69543,0,0,1,.28515-1.55957,2.00346,2.00346,0,0,1,.79493-.91015,2.30151,2.30151,0,0,1,1.18994-.29981,2.74017,2.74017,0,0,1,1.36523.33985,2.50763,2.50763,0,0,1,.96.96,2.9142,2.9142,0,0,1,.355,1.46972,2.88961,2.88961,0,0,1-.355,1.46,2.5435,2.5435,0,0,1-.96.96582A2.71288,2.71288,0,0,1,102.99953,17.16992Zm-.27-1.28027a1.29848,1.29848,0,0,0,1.18506-.69434,1.8125,1.8125,0,0,0,0-1.5957,1.30611,1.30611,0,0,0-1.18506-.68945,1.36618,1.36618,0,0,0-.69971.17968,1.29053,1.29053,0,0,0-.49023.50977,1.85655,1.85655,0,0,0,0,1.5957,1.28467,1.28467,0,0,0,.49023.51465A1.36609,1.36609,0,0,0,102.72951,15.88965Z"/><path class="cls-3" d="M108.98976,17.16992a2.66507,2.66507,0,0,1-1.19531-.25976,1.84362,1.84362,0,0,1-.81494-.79493,2.8489,2.8489,0,0,1-.29-1.36523V11.71h1.56006v2.80957a1.4368,1.4368,0,0,0,.28515.98535,1.0296,1.0296,0,0,0,.80469.31543,1.297,1.297,0,0,0,.64014-.15527,1.06789,1.06789,0,0,0,.43994-.48047,1.839,1.839,0,0,0,.16016-.81445V11.71h1.56005v5.37988h-1.48V15.60938l.27.43066a1.84465,1.84465,0,0,1-.79541.84473A2.35459,2.35459,0,0,1,108.98976,17.16992Z"/><path class="cls-3" d="M112.94972,13.03027V11.83008h3.73v1.20019Zm2.83985,4.13965a2.11252,2.11252,0,0,1-1.48-.48535,1.86029,1.86029,0,0,1-.52979-1.44434v-4.7207h1.56006v4.7002a.72347.72347,0,0,0,.17969.52539.65306.65306,0,0,0,.49023.18457.9998.9998,0,0,0,.62988-.2002l.41993,1.10059a1.71585,1.71585,0,0,1-.57471.25488A2.8192,2.8192,0,0,1,115.78957,17.16992Z"/><path class="cls-3" d="M118.71974,10.96a.98884.98884,0,0,1-.70019-.25.84707.84707,0,0,1,0-1.24023.99317.99317,0,0,1,.70019-.25,1.026,1.026,0,0,1,.7002.23535.76556.76556,0,0,1,.27.60449.85846.85846,0,0,1-.26514.64551A.97437.97437,0,0,1,118.71974,10.96ZM117.94,17.08984V11.71h1.55957v5.37988Z"/><path class="cls-3" d="M123.50929,17.16992a3.14991,3.14991,0,0,1-1.5249-.36035,2.73568,2.73568,0,0,1-1.0498-.98437,2.8472,2.8472,0,0,1,0-2.86036,2.70425,2.70425,0,0,1,1.0498-.98046,3.44647,3.44647,0,0,1,3.04492,0,2.72864,2.72864,0,0,1,0,4.82519A3.15617,3.15617,0,0,1,123.50929,17.16992Zm0-1.28027a1.36665,1.36665,0,0,0,.7002-.17969,1.28794,1.28794,0,0,0,.49023-.51465,1.86112,1.86112,0,0,0,0-1.5957,1.29386,1.29386,0,0,0-.49023-.50977,1.45318,1.45318,0,0,0-1.3999,0,1.32585,1.32585,0,0,0-.49512.50977,1.81241,1.81241,0,0,0,0,1.5957,1.3193,1.3193,0,0,0,.49512.51465A1.36608,1.36608,0,0,0,123.50929,15.88965Z"/><path class="cls-3" d="M130.76955,11.62988a2.50427,2.50427,0,0,1,1.14453.25489,1.8484,1.8484,0,0,1,.79541.78027,2.766,2.766,0,0,1,.29,1.34473v3.08007h-1.56006V14.25a1.3813,1.3813,0,0,0-.28516-.96,1.038,1.038,0,0,0-.80517-.31055,1.40639,1.40639,0,0,0-.665.15528,1.08171,1.08171,0,0,0-.46.47461,1.79068,1.79068,0,0,0-.165.82031v2.66015h-1.55957V11.71h1.48974V13.2002l-.27978-.4502a1.98818,1.98818,0,0,1,.82959-.83008A2.55993,2.55993,0,0,1,130.76955,11.62988Z"/></g></g></svg>