<svg xmlns="http://www.w3.org/2000/svg" viewBox="0 0 169.07736 69.68945"><defs><style>.cls-1{fill:#fdfeff;}.cls-2{fill:none;stroke:#fdfeff;stroke-miterlimit:10;stroke-width:0.5px;}.cls-3{fill:#fff;}</style></defs><g id="Layer_2" data-name="Layer 2"><g id="Layer_3" data-name="Layer 3"><path class="cls-1" d="M162.87314,52.86081a6.20319,6.20319,0,0,0-2.99559,11.63569l1.46282,2.54083,1.53277,2.65212,1.53278-2.65212,1.466-2.54083a6.20428,6.20428,0,0,0-2.99876-11.63569Zm0,9.53687A3.33425,3.33425,0,1,1,166.209,59.065,3.33183,3.33183,0,0,1,162.87314,62.39768Z"/><polyline class="cls-2" points="158.015 55.213 136.695 33.893 0 33.893"/><path class="cls-3" d="M2.17679,26.48047a3.66342,3.66342,0,0,1-1.09864-.165,2.40418,2.40418,0,0,1-.833-.42285l.31494-.707a2.55734,2.55734,0,0,0,.728.38476,2.64068,2.64068,0,0,0,.88867.1543,1.92066,1.92066,0,0,0,.623-.084.74938.74938,0,0,0,.3501-.22754.51559.51559,0,0,0,.11231-.32618.44852.44852,0,0,0-.16114-.36035,1.19249,1.19249,0,0,0-.4165-.21679q-.25562-.08058-.5669-.15039-.312-.07032-.623-.165a2.54765,2.54765,0,0,1-.5669-.24512,1.21605,1.21605,0,0,1-.4165-.40234,1.1733,1.1733,0,0,1-.16113-.64356,1.32277,1.32277,0,0,1,.21338-.73144,1.469,1.469,0,0,1,.65087-.53223,2.68543,2.68543,0,0,1,1.10987-.19922,3.50991,3.50991,0,0,1,.875.11133,2.55887,2.55887,0,0,1,.75586.32226l-.28711.707a2.66959,2.66959,0,0,0-.6792-.29,2.55538,2.55538,0,0,0-.67188-.09473,1.72294,1.72294,0,0,0-.6123.09082.74225.74225,0,0,0-.34326.23828.55059.55059,0,0,0-.1084.33594.45325.45325,0,0,0,.15771.36035,1.12119,1.12119,0,0,0,.41309.21387c.16992.05078.36035.10156.57031.15039s.41895.10351.62647.16406a2.60216,2.60216,0,0,1,.56689.23828,1.16139,1.16139,0,0,1,.41309.39844,1.18478,1.18478,0,0,1,.15771.63769,1.315,1.315,0,0,1-.21386.72461,1.46428,1.46428,0,0,1-.6543.53125A2.69344,2.69344,0,0,1,2.17679,26.48047Z"/><path class="cls-3" d="M4.3677,26.41016l2.20508-4.90039h.896l2.21191,4.90039H8.729l-1.897-4.417h.36377l-1.89014,4.417Zm1.01514-1.13379L5.628,24.5625h2.646l.24512.71387Z"/><path class="cls-3" d="M10.30423,26.41016V21.50977h.749l2.1416,3.57714h-.3916l2.10694-3.57714h.749l.00683,4.90039H14.8052l-.00732-3.54883H14.98l-1.792,2.98926h-.40576l-1.82032-2.98926h.21v3.54883Z"/><path class="cls-3" d="M16.29593,26.41016,18.501,21.50977h.896l2.21192,4.90039h-.95166l-1.897-4.417h.36377l-1.89013,4.417Zm1.01513-1.13379.24512-.71387h2.646l.24511.71387Z"/><path class="cls-3" d="M22.232,26.41016V21.50977h2.01563a2.70815,2.70815,0,0,1,1.1167.21,1.62232,1.62232,0,0,1,.71728.60254,1.684,1.684,0,0,1,.252.93066,1.66723,1.66723,0,0,1-.252.92773,1.607,1.607,0,0,1-.71728.59473,2.74162,2.74162,0,0,1-1.1167.207H22.73587l.40576-.41308v1.84082Zm.90967-1.74317-.40576-.43359H24.2056a1.37382,1.37382,0,0,0,.90673-.25879.89571.89571,0,0,0,.3042-.72168.88184.88184,0,0,0-.3042-.7207,1.39641,1.39641,0,0,0-.90673-.252H22.73587l.40576-.44824Zm2.2959,1.74317-1.23877-1.77832h.97314l1.2461,1.77832Z"/><path class="cls-3" d="M27.34915,26.41016V21.50977h.90967v4.90039Z"/><path class="cls-3" d="M29.58206,26.41016V21.50977h.749l3.07276,3.77343h-.3711V21.50977h.90332v4.90039h-.749L30.1138,22.63672h.37109v3.77344Z"/><path class="cls-3" d="M35.252,26.41016V21.50977h2.1416a3.0378,3.0378,0,0,1,1.40039.30859,2.31564,2.31564,0,0,1,.938.85352,2.63179,2.63179,0,0,1,0,2.57324,2.31113,2.31113,0,0,1-.938.85742,3.03762,3.03762,0,0,1-1.40039.30762Zm.90967-.76953h1.18994a2.03216,2.03216,0,0,0,.95557-.21094,1.51217,1.51217,0,0,0,.623-.58789,1.87983,1.87983,0,0,0,0-1.76758,1.52212,1.52212,0,0,0-.623-.584,2.044,2.044,0,0,0-.95557-.21H36.16165Z"/><path class="cls-3" d="M40.27054,26.41016l2.20508-4.90039h.896l2.21192,4.90039h-.95166l-1.897-4.417h.36377l-1.89013,4.417Zm1.01513-1.13379.24512-.71387h2.646l.24511.71387Z"/><path class="cls-3" d="M47.4805,24.751v-.57422h3.5V24.751Z"/><path class="cls-3" d="M54.48,25.64746h2.76514v.7627H53.57034V21.50977H57.147v.76367H54.48Zm-.06982-2.10058h2.436v.749h-2.436Z"/><path class="cls-3" d="M57.56692,26.41016,59.772,21.50977h.896l2.21191,4.90039h-.95166l-1.897-4.417h.36377l-1.89014,4.417Zm1.01514-1.13379.24512-.71387h2.646l.24512.71387Z"/><path class="cls-3" d="M65.022,26.48047a3.6634,3.6634,0,0,1-1.09863-.165,2.40424,2.40424,0,0,1-.833-.42285l.31494-.707a2.55747,2.55747,0,0,0,.728.38476,2.64073,2.64073,0,0,0,.88867.1543,1.92068,1.92068,0,0,0,.623-.084.74943.74943,0,0,0,.3501-.22754.51564.51564,0,0,0,.1123-.32618.44854.44854,0,0,0-.16113-.36035,1.19254,1.19254,0,0,0-.41651-.21679q-.25562-.08058-.56689-.15039-.312-.07032-.623-.165a2.54757,2.54757,0,0,1-.56689-.24512,1.21617,1.21617,0,0,1-.41651-.40234,1.1733,1.1733,0,0,1-.16113-.64356,1.32277,1.32277,0,0,1,.21338-.73144,1.469,1.469,0,0,1,.65088-.53223,2.68535,2.68535,0,0,1,1.10986-.19922,3.50985,3.50985,0,0,1,.875.11133,2.55865,2.55865,0,0,1,.75586.32226l-.28711.707a2.66959,2.66959,0,0,0-.6792-.29,2.55531,2.55531,0,0,0-.67187-.09473,1.723,1.723,0,0,0-.61231.09082.74236.74236,0,0,0-.34326.23828.55065.55065,0,0,0-.1084.33594.45325.45325,0,0,0,.15772.36035,1.12114,1.12114,0,0,0,.41308.21387c.16993.05078.36036.10156.57032.15039s.41894.10351.62646.16406a2.60225,2.60225,0,0,1,.5669.23828,1.16136,1.16136,0,0,1,.41308.39844,1.18478,1.18478,0,0,1,.15772.63769,1.315,1.315,0,0,1-.21387.72461,1.46422,1.46422,0,0,1-.6543.53125A2.69341,2.69341,0,0,1,65.022,26.48047Z"/><path class="cls-3" d="M68.83011,26.41016V22.28027h-1.624v-.7705h4.15821v.7705h-1.624v4.12989Z"/><path class="cls-3" d="M73.98245,26.41016V21.50977h.90967v4.90039Zm.812-1.15528-.04931-1.07812,2.56933-2.667h1.022L76.2012,23.77832l-.50391.55273Zm2.604,1.15528-1.876-2.2334.60156-.665,2.33838,2.89844Z"/><path class="cls-3" d="M78.18167,26.41016l2.20508-4.90039h.896l2.21192,4.90039H82.543l-1.897-4.417h.36376l-1.89013,4.417Zm1.01514-1.13379.24511-.71387h2.646l.24512.71387Z"/><path class="cls-3" d="M84.11819,26.41016V21.50977h.90967v4.13086h2.562v.76953Z"/><path class="cls-3" d="M88.31106,26.41016V21.50977h.90967v4.90039Z"/><path class="cls-3" d="M90.544,26.41016V21.50977h.749l2.1416,3.57714H93.043l2.10693-3.57714h.749l.00684,4.90039H95.045l-.00732-3.54883h.18213l-1.792,2.98926H93.022l-1.82031-2.98926h.21v3.54883Z"/><path class="cls-3" d="M96.53567,26.41016l2.20508-4.90039h.896l2.21191,4.90039H100.897L99,21.99316h.36377l-1.89014,4.417Zm1.01514-1.13379.24512-.71387h2.646l.24512.71387Z"/><path class="cls-3" d="M102.47171,26.41016V21.50977h.749l3.07276,3.77343h-.3711V21.50977h.90332v4.90039h-.749l-3.07324-3.77344h.37109v3.77344Z"/><path class="cls-3" d="M109.13577,26.41016V22.28027h-1.624v-.7705H111.67v.7705h-1.624v4.12989Z"/><path class="cls-3" d="M111.41751,26.41016l2.20508-4.90039h.896l2.21192,4.90039h-.95166l-1.897-4.417h.36376l-1.89013,4.417Zm1.01514-1.13379.24511-.71387h2.646l.24512.71387Z"/><path class="cls-3" d="M117.354,26.41016V21.50977h.749l3.07275,3.77343h-.37109V21.50977h.90332v4.90039h-.749l-3.07324-3.77344h.3711v3.77344Z"/><path class="cls-3" d="M.86087,7.87012v-7H4.04056a4.43763,4.43763,0,0,1,2.01025.43457A3.31851,3.31851,0,0,1,7.41067,2.52051a3.40427,3.40427,0,0,1,.49024,1.84961,3.41058,3.41058,0,0,1-.49024,1.84472A3.30925,3.30925,0,0,1,6.05081,7.43555a4.43763,4.43763,0,0,1-2.01025.43457ZM2.481,6.54h1.48a2.62174,2.62174,0,0,0,1.21484-.26465,1.92506,1.92506,0,0,0,.79981-.75488,2.24883,2.24883,0,0,0,.28515-1.15039,2.2422,2.2422,0,0,0-.28515-1.15528,1.93234,1.93234,0,0,0-.79981-.75A2.62186,2.62186,0,0,0,3.961,2.2002H2.481Z"/><path class="cls-3" d="M9.79056,1.74023a.98884.98884,0,0,1-.7002-.25.812.812,0,0,1-.27-.62011A.81349.81349,0,0,1,9.09036.25.99321.99321,0,0,1,9.79056,0a1.026,1.026,0,0,1,.70019.23535.76553.76553,0,0,1,.27.60449.85845.85845,0,0,1-.26514.64551A.97434.97434,0,0,1,9.79056,1.74023ZM9.01077,7.87012V2.49023h1.55957V7.87012Z"/><path class="cls-3" d="M13.8306,7.9502a5.22988,5.22988,0,0,1-1.32471-.165,3.27987,3.27987,0,0,1-1.00488-.415L12.021,6.25a3.45521,3.45521,0,0,0,.875.375,3.59024,3.59024,0,0,0,.99462.14551,1.62476,1.62476,0,0,0,.76514-.13086.39821.39821,0,0,0,.2251-.35938.30634.30634,0,0,0-.17529-.28515,1.52354,1.52354,0,0,0-.46485-.14453q-.29-.05127-.63476-.10059-.345-.0498-.69532-.13477a2.34916,2.34916,0,0,1-.63964-.25488,1.30426,1.30426,0,0,1-.46534-.46,1.43547,1.43547,0,0,1-.1748-.75A1.45148,1.45148,0,0,1,11.92581,3.25a1.95606,1.95606,0,0,1,.855-.61523,3.60232,3.60232,0,0,1,1.33984-.22461,5.42258,5.42258,0,0,1,1.12012.12011,3.04673,3.04673,0,0,1,.9502.34961l-.52,1.11035a2.64342,2.64342,0,0,0-.78516-.31543,3.63571,3.63571,0,0,0-.76514-.085,1.56151,1.56151,0,0,0-.75976.14063.41077.41077,0,0,0-.24024.35937.32363.32363,0,0,0,.1753.29981,1.57491,1.57491,0,0,0,.46484.16015q.29.06006.63526.10547a5.94645,5.94645,0,0,1,.69482.13477,2.54631,2.54631,0,0,1,.63477.25488,1.33281,1.33281,0,0,1,.46533.4502,1.38212,1.38212,0,0,1,.17968.74511,1.39908,1.39908,0,0,1-.2998.88477,1.96836,1.96836,0,0,1-.86523.60547A3.80288,3.80288,0,0,1,13.8306,7.9502Z"/><path class="cls-3" d="M16.69046,3.81055V2.61035h3.73v1.2002ZM19.5303,7.9502a2.1125,2.1125,0,0,1-1.48-.48536,1.86029,1.86029,0,0,1-.52978-1.44433V1.2998H19.0806V6a.72349.72349,0,0,0,.17968.52539.65306.65306,0,0,0,.49024.18457.99985.99985,0,0,0,.62988-.20019l.41992,1.10058a1.71571,1.71571,0,0,1-.5747.25488A2.81881,2.81881,0,0,1,19.5303,7.9502Z"/><path class="cls-3" d="M21.68069,7.87012V2.49023h1.48975V4.00977l-.21-.43946a1.7279,1.7279,0,0,1,.77-.86523,2.62031,2.62031,0,0,1,1.29-.29492V3.85059c-.0669-.00684-.127-.01172-.18018-.01563-.05322-.00293-.10986-.00488-.16992-.00488a1.46632,1.46632,0,0,0-1.03516.36523,1.47479,1.47479,0,0,0-.395,1.13477v2.54Z"/><path class="cls-3" d="M26.7305,1.74023a.98884.98884,0,0,1-.7002-.25.812.812,0,0,1-.27-.62011A.81352.81352,0,0,1,26.0303.25.99321.99321,0,0,1,26.7305,0a1.026,1.026,0,0,1,.70019.23535.76553.76553,0,0,1,.27.60449.85844.85844,0,0,1-.26513.64551A.97438.97438,0,0,1,26.7305,1.74023Zm-.77979,6.12989V2.49023h1.55957V7.87012Z"/><path class="cls-3" d="M28.96048,7.87012V.4502h1.55957V3.58008l-.09961,1.58984.02978,1.60059V7.87012Zm3.17969.08008a2.36157,2.36157,0,0,1-1.21973-.29981,1.91384,1.91384,0,0,1-.78027-.915,3.89247,3.89247,0,0,1-.27-1.55566,3.69543,3.69543,0,0,1,.28515-1.55957A2.00352,2.00352,0,0,1,30.95022,2.71a2.30166,2.30166,0,0,1,1.18995-.2998A2.74026,2.74026,0,0,1,33.5054,2.75a2.50777,2.50777,0,0,1,.96.96,2.91421,2.91421,0,0,1,.355,1.46973,2.8896,2.8896,0,0,1-.355,1.46,2.54357,2.54357,0,0,1-.96.96582A2.71289,2.71289,0,0,1,32.14017,7.9502Zm-.27-1.28028a1.29846,1.29846,0,0,0,1.18505-.69433,1.61958,1.61958,0,0,0,.18506-.7959,1.61423,1.61423,0,0,0-.18506-.79981,1.30613,1.30613,0,0,0-1.18505-.68945,1.36609,1.36609,0,0,0-.69971.17969,1.2906,1.2906,0,0,0-.49024.50976A1.65178,1.65178,0,0,0,30.5,5.17969a1.65727,1.65727,0,0,0,.18017.7959,1.28473,1.28473,0,0,0,.49024.51464A1.36609,1.36609,0,0,0,31.87015,6.66992Z"/><path class="cls-3" d="M38.1304,7.9502a2.66507,2.66507,0,0,1-1.19531-.25977,1.84365,1.84365,0,0,1-.81494-.79492,2.84894,2.84894,0,0,1-.29-1.36524v-3.04h1.56006V5.2998a1.43683,1.43683,0,0,0,.28515.98536,1.0296,1.0296,0,0,0,.80469.31543,1.297,1.297,0,0,0,.64014-.15528,1.06784,1.06784,0,0,0,.43994-.48047,1.839,1.839,0,0,0,.16015-.81445V2.49023H41.2803V7.87012h-1.48V6.38965l.27.43066a1.8446,1.8446,0,0,1-.79541.84473A2.3546,2.3546,0,0,1,38.1304,7.9502Z"/><path class="cls-3" d="M42.09036,3.81055V2.61035h3.73v1.2002ZM44.9302,7.9502a2.1125,2.1125,0,0,1-1.48-.48536,1.86029,1.86029,0,0,1-.52978-1.44433V1.2998H44.4805V6a.72345.72345,0,0,0,.17969.52539.653.653,0,0,0,.49023.18457.99985.99985,0,0,0,.62988-.20019l.41992,1.10058a1.71571,1.71571,0,0,1-.5747.25488A2.81881,2.81881,0,0,1,44.9302,7.9502Z"/><path class="cls-3" d="M47.86038,1.74023a.98879.98879,0,0,1-.70019-.25.812.812,0,0,1-.27-.62011.81349.81349,0,0,1,.27-.62012A.99317.99317,0,0,1,47.86038,0a1.0261,1.0261,0,0,1,.7002.23535.76556.76556,0,0,1,.27.60449.85845.85845,0,0,1-.26514.64551A.97437.97437,0,0,1,47.86038,1.74023ZM47.0806,7.87012V2.49023h1.55957V7.87012Z"/><path class="cls-3" d="M52.64993,7.9502a3.1498,3.1498,0,0,1-1.5249-.36036,2.73571,2.73571,0,0,1-1.04981-.98437A2.66151,2.66151,0,0,1,49.69,5.17969a2.65626,2.65626,0,0,1,1.43506-2.415,3.44656,3.44656,0,0,1,3.04492,0,2.62428,2.62428,0,0,1,1.43018,2.415A2.649,2.649,0,0,1,54.17,7.58984,3.15606,3.15606,0,0,1,52.64993,7.9502Zm0-1.28028a1.36665,1.36665,0,0,0,.7002-.17969,1.288,1.288,0,0,0,.49023-.51464,1.66276,1.66276,0,0,0,.17969-.7959,1.65723,1.65723,0,0,0-.17969-.79981,1.2939,1.2939,0,0,0-.49023-.50976,1.45313,1.45313,0,0,0-1.39991,0,1.32587,1.32587,0,0,0-.49511.50976,1.61423,1.61423,0,0,0-.18506.79981,1.61958,1.61958,0,0,0,.18506.7959,1.31932,1.31932,0,0,0,.49511.51464A1.36614,1.36614,0,0,0,52.64993,6.66992Z"/><path class="cls-3" d="M59.91067,2.41016A2.50436,2.50436,0,0,1,61.0552,2.665a1.84842,1.84842,0,0,1,.79542.78027,2.766,2.766,0,0,1,.29,1.34473V7.87012H60.5806V5.03027a1.38131,1.38131,0,0,0-.28516-.96,1.038,1.038,0,0,0-.80518-.31054,1.40644,1.40644,0,0,0-.665.15527,1.08187,1.08187,0,0,0-.46.47461,1.79084,1.79084,0,0,0-.165.82031V7.87012H56.64065V2.49023H58.1304V3.98047l-.27978-.4502a1.98813,1.98813,0,0,1,.82958-.83007A2.56,2.56,0,0,1,59.91067,2.41016Z"/><path class="cls-3" d="M2.47073,16.57031H6.28079v1.29981H.86087v-7h5.29v1.2998H2.47073Zm-.12011-2.87988H5.72073V14.9502H2.35062Z"/><path class="cls-3" d="M9.0806,17.9502a2.49888,2.49888,0,0,1-1.08008-.21485,1.64817,1.64817,0,0,1-.68994-.585,1.58747,1.58747,0,0,1-.00489-1.66992,1.53741,1.53741,0,0,1,.74512-.56543A3.61611,3.61611,0,0,1,9.38089,14.71h1.42969v.91016H9.55081a1.17092,1.17092,0,0,0-.75488.17968.575.575,0,0,0-.20508.4502.56218.56218,0,0,0,.23486.47559,1.06162,1.06162,0,0,0,.645.1748,1.33562,1.33562,0,0,0,.7002-.18555,1.0573,1.0573,0,0,0,.4497-.54492l.24024.71973a1.39137,1.39137,0,0,1-.62012.79A2.22256,2.22256,0,0,1,9.0806,17.9502Zm1.64013-.08008V16.82031l-.1001-.23047V14.71a1.00865,1.00865,0,0,0-.30468-.78027,1.34713,1.34713,0,0,0-.93506-.2793,2.7175,2.7175,0,0,0-.84522.13477,2.23148,2.23148,0,0,0-.70507.36523l-.56006-1.08984a3.36863,3.36863,0,0,1,1.06006-.48047,4.74864,4.74864,0,0,1,1.26025-.16992,2.85437,2.85437,0,0,1,1.90967.58007,2.25013,2.25013,0,0,1,.68017,1.80957v3.07032Z"/><path class="cls-3" d="M15.40042,17.9502a5.22994,5.22994,0,0,1-1.32471-.165,3.27987,3.27987,0,0,1-1.00488-.415l.52-1.12012a3.45537,3.45537,0,0,0,.875.375,3.59036,3.59036,0,0,0,.99463.14551,1.62481,1.62481,0,0,0,.76514-.13086.3982.3982,0,0,0,.22509-.35938.30633.30633,0,0,0-.17529-.28515,1.52347,1.52347,0,0,0-.46484-.14453q-.29-.05127-.63477-.10059-.345-.0498-.69531-.13477a2.34909,2.34909,0,0,1-.63965-.25488,1.30424,1.30424,0,0,1-.46533-.46,1.43547,1.43547,0,0,1-.17481-.75,1.45154,1.45154,0,0,1,.29492-.90039,1.956,1.956,0,0,1,.855-.61523,3.60225,3.60225,0,0,1,1.33984-.22461,5.42265,5.42265,0,0,1,1.12012.12011,3.04666,3.04666,0,0,1,.95019.34961l-.52,1.11035a2.64326,2.64326,0,0,0-.78515-.31543,3.63585,3.63585,0,0,0-.76514-.085,1.56155,1.56155,0,0,0-.75977.14063.41078.41078,0,0,0-.24023.35937.32362.32362,0,0,0,.17529.29981,1.575,1.575,0,0,0,.46485.16015q.29.06006.63525.10547a5.946,5.946,0,0,1,.69482.13477,2.54615,2.54615,0,0,1,.63477.25488,1.33272,1.33272,0,0,1,.46533.4502,1.38212,1.38212,0,0,1,.17969.74511,1.39909,1.39909,0,0,1-.29981.88477,1.9683,1.9683,0,0,1-.86523.60547A3.80284,3.80284,0,0,1,15.40042,17.9502Z"/><path class="cls-3" d="M18.26077,13.81055v-1.2002h3.73v1.2002Zm2.83985,4.13965a2.11251,2.11251,0,0,1-1.48-.48536,1.86029,1.86029,0,0,1-.52978-1.44433V11.2998h1.56006V16a.72345.72345,0,0,0,.17969.52539.653.653,0,0,0,.49023.18457.99985.99985,0,0,0,.62988-.20019l.41992,1.10058a1.71571,1.71571,0,0,1-.5747.25488A2.81879,2.81879,0,0,1,21.10062,17.9502Z"/><path class="cls-3" d="M26.19046,17.87012v-7h1.60986v7Zm1.44971-1.59961-.08985-1.87012,3.3501-3.53027h1.7998l-3.02,3.25-.8999.96Zm3.34033,1.59961-2.49024-3.04981,1.06006-1.15039,3.31983,4.2002Z"/><path class="cls-3" d="M35.02005,17.9502A2.49891,2.49891,0,0,1,33.94,17.73535a1.64829,1.64829,0,0,1-.68994-.585,1.58744,1.58744,0,0,1-.00488-1.66992,1.53733,1.53733,0,0,1,.74511-.56543A3.61618,3.61618,0,0,1,35.32034,14.71H36.75v.91016H35.49026a1.17092,1.17092,0,0,0-.75488.17968.575.575,0,0,0-.20508.4502.56219.56219,0,0,0,.23487.47559,1.0616,1.0616,0,0,0,.645.1748,1.33561,1.33561,0,0,0,.70019-.18555,1.05732,1.05732,0,0,0,.44971-.54492l.24023.71973a1.39137,1.39137,0,0,1-.62012.79A2.22256,2.22256,0,0,1,35.02005,17.9502Zm1.64014-.08008V16.82031l-.1001-.23047V14.71a1.00862,1.00862,0,0,0-.30469-.78027,1.34711,1.34711,0,0,0-.93506-.2793,2.71739,2.71739,0,0,0-.84521.13477,2.23153,2.23153,0,0,0-.70508.36523L33.21,13.06055a3.36874,3.36874,0,0,1,1.06006-.48047,4.74864,4.74864,0,0,1,1.26025-.16992,2.85433,2.85433,0,0,1,1.90967.58007,2.25013,2.25013,0,0,1,.68018,1.80957v3.07032Z"/><path class="cls-3" d="M39.5303,17.87012V10.4502h1.55957v7.41992Z"/><path class="cls-3" d="M43.32034,11.74023a.98879.98879,0,0,1-.70019-.25.84707.84707,0,0,1,0-1.24023.99317.99317,0,0,1,.70019-.25,1.0261,1.0261,0,0,1,.7002.23535.76556.76556,0,0,1,.27.60449.85845.85845,0,0,1-.26514.64551A.97437.97437,0,0,1,43.32034,11.74023Zm-.77978,6.12989V12.49023h1.55957v5.37989Z"/><path class="cls-3" d="M52.44,12.41016a2.44533,2.44533,0,0,1,1.13525.25488,1.83013,1.83013,0,0,1,.77979.78027A2.80166,2.80166,0,0,1,54.64017,14.79v3.08008H53.08011V15.03027a1.43263,1.43263,0,0,0-.27-.96.95369.95369,0,0,0-.75977-.31054A1.20207,1.20207,0,0,0,51.44,13.915a1.04676,1.04676,0,0,0-.41992.46484,1.81653,1.81653,0,0,0-.1499.79v2.7002H49.31009V15.03027a1.45212,1.45212,0,0,0-.26514-.96.93792.93792,0,0,0-.75488-.31054,1.20028,1.20028,0,0,0-.60987.15527,1.04121,1.04121,0,0,0-.41992.46484,1.8163,1.8163,0,0,0-.15039.79v2.7002H45.55032V12.49023h1.48975V13.96l-.27979-.42969a1.918,1.918,0,0,1,.79492-.835A2.3806,2.3806,0,0,1,48.73,12.41016a2.25691,2.25691,0,0,1,1.29492.375,1.81329,1.81329,0,0,1,.73535,1.14453L50.21,13.78027a2.15112,2.15112,0,0,1,.86523-1A2.52663,2.52663,0,0,1,52.44,12.41016Z"/><path class="cls-3" d="M57.70022,17.9502a2.49886,2.49886,0,0,1-1.08007-.21485,1.64826,1.64826,0,0,1-.69-.585,1.58749,1.58749,0,0,1-.00488-1.66992,1.53741,1.53741,0,0,1,.74512-.56543A3.61611,3.61611,0,0,1,58.00052,14.71H59.4302v.91016H58.17044a1.17092,1.17092,0,0,0-.75488.17968.575.575,0,0,0-.20508.4502.56218.56218,0,0,0,.23486.47559,1.06162,1.06162,0,0,0,.645.1748,1.33562,1.33562,0,0,0,.7002-.18555,1.0573,1.0573,0,0,0,.4497-.54492l.24024.71973a1.39137,1.39137,0,0,1-.62012.79A2.22257,2.22257,0,0,1,57.70022,17.9502Zm1.64014-.08008V16.82031l-.1001-.23047V14.71a1.00865,1.00865,0,0,0-.30468-.78027,1.34713,1.34713,0,0,0-.93506-.2793,2.7175,2.7175,0,0,0-.84522.13477,2.23164,2.23164,0,0,0-.70508.36523l-.56005-1.08984a3.36868,3.36868,0,0,1,1.06005-.48047,4.74877,4.74877,0,0,1,1.26026-.16992,2.85437,2.85437,0,0,1,1.90967.58007,2.25013,2.25013,0,0,1,.68017,1.80957v3.07032Z"/><path class="cls-3" d="M65.48,12.41016a2.50436,2.50436,0,0,1,1.14453.25488,1.84845,1.84845,0,0,1,.79541.78027A2.766,2.766,0,0,1,67.71,14.79v3.08008H66.14993V15.03027a1.38131,1.38131,0,0,0-.28515-.96,1.038,1.038,0,0,0-.80518-.31054,1.40644,1.40644,0,0,0-.665.15527,1.08177,1.08177,0,0,0-.46.47461,1.79084,1.79084,0,0,0-.165.82031v2.66016H62.21V12.49023h1.48975v1.49024l-.27979-.4502a1.98816,1.98816,0,0,1,.82959-.83007A2.55993,2.55993,0,0,1,65.48,12.41016Z"/><path class="cls-3" d="M68.48,13.81055v-1.2002h3.73v1.2002Zm2.83984,4.13965a2.1125,2.1125,0,0,1-1.48-.48536,1.86029,1.86029,0,0,1-.52978-1.44433V11.2998h1.56006V16a.72349.72349,0,0,0,.17968.52539.65306.65306,0,0,0,.49024.18457.99985.99985,0,0,0,.62988-.20019l.41992,1.10058a1.71571,1.71571,0,0,1-.5747.25488A2.81881,2.81881,0,0,1,71.31985,17.9502Z"/><path class="cls-3" d="M75.12991,17.9502a2.49894,2.49894,0,0,1-1.08008-.21485,1.64829,1.64829,0,0,1-.68994-.585,1.58749,1.58749,0,0,1-.00488-1.66992,1.53736,1.53736,0,0,1,.74512-.56543A3.61609,3.61609,0,0,1,75.4302,14.71h1.42969v.91016H75.60013a1.171,1.171,0,0,0-.75489.17968.57507.57507,0,0,0-.20507.4502.56218.56218,0,0,0,.23486.47559,1.06162,1.06162,0,0,0,.645.1748,1.33561,1.33561,0,0,0,.70019-.18555,1.05727,1.05727,0,0,0,.44971-.54492l.24024.71973a1.39141,1.39141,0,0,1-.62012.79A2.22262,2.22262,0,0,1,75.12991,17.9502Zm1.64014-.08008V16.82031l-.1001-.23047V14.71a1.00862,1.00862,0,0,0-.30469-.78027,1.3471,1.3471,0,0,0-.93506-.2793,2.71749,2.71749,0,0,0-.84521.13477,2.23153,2.23153,0,0,0-.70508.36523l-.56006-1.08984a3.36884,3.36884,0,0,1,1.06006-.48047,4.74877,4.74877,0,0,1,1.26026-.16992,2.85432,2.85432,0,0,1,1.90966.58007A2.2501,2.2501,0,0,1,78.23,14.7998v3.07032Z"/><path class="cls-3" d="M82.91019,12.41016a2.50442,2.50442,0,0,1,1.14453.25488,1.84845,1.84845,0,0,1,.79541.78027,2.766,2.766,0,0,1,.29,1.34473v3.08008H83.58011V15.03027a1.38131,1.38131,0,0,0-.28516-.96,1.038,1.038,0,0,0-.80517-.31054,1.40639,1.40639,0,0,0-.665.15527,1.08177,1.08177,0,0,0-.46.47461,1.79071,1.79071,0,0,0-.165.82031v2.66016H79.64017V12.49023h1.48974v1.49024l-.27978-.4502a1.9881,1.9881,0,0,1,.82959-.83007A2.55993,2.55993,0,0,1,82.91019,12.41016Z"/><path class="cls-3" d="M89.48978,17.87012v-7h3.02978a3.94148,3.94148,0,0,1,1.62012.30468,2.37815,2.37815,0,0,1,1.0498.875,2.4451,2.4451,0,0,1,.37012,1.36036,2.399,2.399,0,0,1-.37012,1.34472,2.35265,2.35265,0,0,1-1.0498.86524,3.99208,3.99208,0,0,1-1.62012.2998H90.38968l.72021-.71v2.66016Zm1.62011-2.48047-.72021-.75977h2.04a1.65827,1.65827,0,0,0,1.12011-.32519,1.27432,1.27432,0,0,0,0-1.79492,1.67936,1.67936,0,0,0-1.12011-.31934h-2.04l.72021-.77051Zm2.82959,2.48047-1.75-2.54h1.73l1.77,2.54Z"/><path class="cls-3" d="M99.39944,17.9502a3.46044,3.46044,0,0,1-1.61523-.36036,2.64847,2.64847,0,0,1-1.07471-.98437,2.68889,2.68889,0,0,1-.38037-1.42578,2.73371,2.73371,0,0,1,.375-1.43457,2.66118,2.66118,0,0,1,1.02539-.98047,3.2121,3.2121,0,0,1,2.895-.01953,2.51326,2.51326,0,0,1,1.00488.96,2.88477,2.88477,0,0,1,.37012,1.49512c0,.05957-.00391.12793-.01025.20507-.00684.07618-.01319.14844-.02.21485H97.59915V14.71h3.55029l-.60009.27051a1.49793,1.49793,0,0,0-.16993-.73047,1.2518,1.2518,0,0,0-.47021-.48535,1.36679,1.36679,0,0,0-.69971-.17481,1.3946,1.3946,0,0,0-.70508.17481,1.22449,1.22449,0,0,0-.47509.49023A1.54877,1.54877,0,0,0,97.8594,15v.24023a1.51046,1.51046,0,0,0,.19483.77442,1.27448,1.27448,0,0,0,.55029.51074,1.87216,1.87216,0,0,0,.835.17481,2.01866,2.01866,0,0,0,.75489-.12989,1.83633,1.83633,0,0,0,.59472-.39062l.83008.90039a2.42058,2.42058,0,0,1-.92969.64551A3.455,3.455,0,0,1,99.39944,17.9502Z"/><path class="cls-3" d="M105.32913,17.61035a2.81578,2.81578,0,0,1-1.355-.32519,2.54633,2.54633,0,0,1-.96973-.91016,2.57834,2.57834,0,0,1,.96973-3.64453,2.84655,2.84655,0,0,1,1.355-.32031,2.526,2.526,0,0,1,1.2002.27539,1.88454,1.88454,0,0,1,.81005.84961,3.27323,3.27323,0,0,1,.29,1.47461,3.25047,3.25047,0,0,1-.29,1.46582,1.92131,1.92131,0,0,1-.81005.85449A2.49384,2.49384,0,0,1,105.32913,17.61035Zm.24024,2.2793a5.757,5.757,0,0,1-1.46485-.18457,3.18511,3.18511,0,0,1-1.17529-.55469l.62012-1.12012a2.55513,2.55513,0,0,0,.86523.44532,3.4539,3.4539,0,0,0,1.03467.16406,1.669,1.669,0,0,0,1.20508-.36914,1.48166,1.48166,0,0,0,.375-1.10059v-.80957l.10009-1.35058-.02-1.35938V12.49023h1.48v4.4795a2.84894,2.84894,0,0,1-.77978,2.21A3.21425,3.21425,0,0,1,105.56937,19.88965Zm.06982-3.55957a1.56546,1.56546,0,0,0,.73-.165,1.2227,1.2227,0,0,0,.5-.46484,1.42041,1.42041,0,0,0,0-1.38477,1.22437,1.22437,0,0,0-.5-.46,1.69689,1.69689,0,0,0-1.46,0,1.26253,1.26253,0,0,0-.50488.46,1.38777,1.38777,0,0,0,0,1.38477,1.2604,1.2604,0,0,0,.50488.46484A1.56546,1.56546,0,0,0,105.63919,16.33008Z"/><path class="cls-3" d="M110.81937,11.74023a.98882.98882,0,0,1-.7002-.25.84707.84707,0,0,1,0-1.24023.99319.99319,0,0,1,.7002-.25,1.02607,1.02607,0,0,1,.70019.23535.76553.76553,0,0,1,.27.60449.85845.85845,0,0,1-.26514.64551A.97434.97434,0,0,1,110.81937,11.74023Zm-.77979,6.12989V12.49023h1.55957v5.37989Z"/><path class="cls-3" d="M115.60892,17.9502a3.14981,3.14981,0,0,1-1.52491-.36036,2.73568,2.73568,0,0,1-1.0498-.98437,2.84718,2.84718,0,0,1,0-2.86035,2.70434,2.70434,0,0,1,1.0498-.98047,3.44658,3.44658,0,0,1,3.04493,0,2.72866,2.72866,0,0,1,0,4.82519A3.15609,3.15609,0,0,1,115.60892,17.9502Zm0-1.28028a1.36661,1.36661,0,0,0,.70019-.17969,1.288,1.288,0,0,0,.49024-.51464,1.86124,1.86124,0,0,0,0-1.59571,1.29392,1.29392,0,0,0-.49024-.50976,1.45311,1.45311,0,0,0-1.3999,0,1.326,1.326,0,0,0-.49512.50976,1.81243,1.81243,0,0,0,0,1.59571,1.31941,1.31941,0,0,0,.49512.51464A1.36609,1.36609,0,0,0,115.60892,16.66992Z"/><path class="cls-3" d="M122.86966,12.41016a2.50439,2.50439,0,0,1,1.14453.25488,1.84845,1.84845,0,0,1,.79541.78027,2.766,2.766,0,0,1,.29,1.34473v3.08008h-1.56006V15.03027a1.38126,1.38126,0,0,0-.28516-.96,1.038,1.038,0,0,0-.80517-.31054,1.40644,1.40644,0,0,0-.665.15527,1.08177,1.08177,0,0,0-.46.47461,1.79071,1.79071,0,0,0-.165.82031v2.66016h-1.55957V12.49023h1.48974v1.49024l-.27978-.4502a1.98816,1.98816,0,0,1,.82959-.83007A2.55993,2.55993,0,0,1,122.86966,12.41016Z"/></g></g></svg>